<svg xmlns="http://www.w3.org/2000/svg" xmlns:xlink="http://www.w3.org/1999/xlink" width="40" height="40" viewBox="0 0 40 40">
    <defs>
        <path id="ezgq5i8lja" d="M40.001 20L40.001 0 3.359 0 3.359 20 40.001 20z"/>
        <path id="xibdt7dpkc" d="M40.001 20L40.001 40 3.359 40 3.359 20 40.001 20z"/>
        <path id="jcelykurge" d="M0 8.909L0 31.094 20.001 31.094 20.001 8.909z"/>
    </defs>
    <g fill="none" fill-rule="evenodd">
        <g>
            <g>
                <g transform="translate(-291 -1261) translate(150 1226) translate(141 35)">
                    <rect width="40" height="40" fill="#FFF" rx="20"/>
                    <g>
                        <mask id="05jsmwasfb" fill="#fff">
                            <use xlink:href="#ezgq5i8lja"/>
                        </mask>
                        <path fill="#063B94" d="M40.002 20c0-11.044-8.956-20-20-20C13.059 0 6.947 3.538 3.359 8.908L20.002 20h20z" mask="url(#05jsmwasfb)"/>
                        <mask id="dttgzhnofd" fill="#fff">
                            <use xlink:href="#xibdt7dpkc"/>
                        </mask>
                        <path fill="#C21928" d="M40.002 20h-20L3.359 31.094C6.947 36.463 13.06 40 20.002 40c11.044 0 20-8.954 20-20" mask="url(#dttgzhnofd)"/>
                        <mask id="kyk6gmba0f" fill="#fff">
                            <use xlink:href="#jcelykurge"/>
                        </mask>
                        <path fill="#FEFEFE" d="M3.36 8.909C1.237 12.082 0 15.897 0 20s1.238 7.917 3.36 11.093L20 20 3.36 8.909z" mask="url(#kyk6gmba0f)"/>
                        <path fill="#F1C929" d="M4.591 28.766L3.82 28.434 3.271 29.066 3.352 28.234 2.58 27.909 3.397 27.725 3.471 26.891 3.896 27.613 4.711 27.423 4.153 28.05zM10.918 20.482l.357-.375c-.109-.093-.337-.388-.484-.37-.357.045-.712.085-1.066.129-.36.044-.335-.108.001-.165l.936-.167c-.223-.175-.239-.228-.497-.159-.298.079-.704.339-.814.022-.07-.211-.238-.298-.032-.412l.487-.266c.304-.166.301-.17.35-.513-.238.157-.478.313-.715.475l-.32.213c-.175.116-.008-.188.028-.217.298-.231.597-.46.894-.691.208-.16.131-.363.13-.621-.144.008-.514-.046-.606.066l-.678.836c-.228.28-.315.151-.115-.12.187-.257.373-.514.556-.77-.276.026-.328-.003-.468.23-.095.16-.192.319-.285.478-.126.206-.058.213-.304.092-.203-.102-.434-.04-.368-.284.049-.18.1-.359.146-.538.091-.33.087-.332-.128-.608-.052.284-.104.564-.154.847-.023.127-.046.252-.068.383-.038.2-.14-.132-.134-.178.04-.374.08-.749.122-1.122.025-.259-.174-.346-.36-.522-.096.107-.388.335-.37.48l.131 1.07c.041.361-.108.33-.168-.004-.056-.311-.112-.622-.17-.935-.173.22-.227.237-.157.497l.146.536c.064.235.114.19-.142.283-.213.077-.321.27-.442.056l-.279-.48c-.175-.297-.177-.297-.524-.335.164.235.332.47.496.707.075.101.147.207.224.31.115.167-.19.01-.221-.026-.239-.29-.478-.583-.715-.873-.163-.203-.367-.122-.623-.114.011.143-.033.516.083.604.285.223.567.439.85.655.29.224.163.31-.118.119-.259-.179-.521-.359-.78-.534.032.274.005.324.243.46.278.159.734.244.585.562-.093.204-.03.406-.268.345-.179-.05-.359-.097-.536-.141-.335-.09-.335-.086-.604.129.28.05.563.1.847.148l.376.067c.201.033-.124.141-.172.136-.375-.038-.75-.075-1.122-.115-.262-.025-.346.172-.524.363.11.093.343.385.487.366.353-.046.71-.093 1.068-.137.355-.047.33.104-.001.167l-.935.174c.22.174.236.23.497.156.308-.085.698-.348.812-.021.075.21.255.303.046.423-.16.09-.32.181-.483.27-.297.174-.297.176-.34.522l.708-.49c.104-.07.21-.142.316-.216.172-.116.01.187-.028.216-.295.235-.588.472-.88.71-.205.161-.124.362-.119.621.144-.013.514.037.603-.08.223-.28.444-.561.667-.844.221-.285.308-.157.114.123l-.544.776c.279-.032.33-.006.466-.24.093-.162.185-.319.276-.479.12-.208.056-.217.297-.103.205.1.423.038.359.282l-.144.532c-.088.333-.083.336.134.605.05-.281.098-.564.147-.848.021-.124.047-.252.068-.376.035-.201.14.127.136.173-.041.375-.077.748-.115 1.122-.026.261.174.346.362.522.093-.108.385-.34.366-.486-.045-.355-.092-.711-.136-1.067-.046-.355.104-.33.167 0 .057.315.117.624.175.937.172-.222.228-.238.156-.5-.052-.177-.1-.356-.151-.536-.063-.229-.115-.186.137-.28.211-.08.312-.272.439-.058.095.161.188.321.283.477.174.297.178.296.522.333-.164-.232-.33-.465-.498-.697-.074-.108-.147-.212-.222-.317-.12-.168.188-.011.219.025.239.292.479.581.72.87.164.203.365.12.623.113-.011-.144.032-.514-.086-.603-.286-.22-.572-.436-.853-.656-.292-.217-.161-.305.113-.116l.788.532c-.034-.276-.008-.327-.244-.461-.272-.148-.738-.244-.597-.55.092-.2.033-.392.267-.328l.534.147c.331.09.332.087.607-.128l-.733-.135c-.131-.024-.259-.049-.391-.07-.052-.011-.27-.192-.08-.171.481.052.96.105 1.444.156M14.477 20.679L14.975 20.003 14.473 19.331 15.272 19.591 15.759 18.908 15.755 19.745 16.556 19.996 15.76 20.255 15.765 21.093 15.275 20.413zM4.586 11.227L3.818 11.565 3.266 10.935 3.353 11.767 2.579 12.097 3.401 12.273 3.475 13.109 3.898 12.385 4.714 12.569 4.154 11.948z" mask="url(#kyk6gmba0f)"/>
                    </g>
                    <rect width="38.8" height="38.8" x=".6" y=".6" stroke="#E5E5E5" stroke-width="1.2" rx="19.4"/>
                </g>
            </g>
        </g>
    </g>
</svg>
