<svg xmlns="http://www.w3.org/2000/svg" width="40" height="40" viewBox="0 0 40 40">
    <g fill="none" fill-rule="evenodd">
        <g>
            <g>
                <g>
                    <g>
                        <path fill="#006239" d="M27.186 27.95c-.047.017-.097.038-.14.055-.07.028-.14.055-.16.073l-.033.029 1.753 2.32c.005-.06.004-.119-.016-.175-.021-.061-.063-.112-.087-.172-.053-.135.03-.278.08-.413.025-.072.069-.156.134-.167.017-.003.031-.017.037-.035.034-.11.076-.21.115-.32.04-.11.06-.154.044-.274-.003-.02.03-.077.042-.112l-1.313-1.083c-.134.121-.29.216-.456.274" transform="translate(-1250 -1993) translate(150 1958) translate(960) translate(140 35)"/>
                        <g fill="#006239">
                            <path d="M34.867 10.303l-.29.366.267.41-.46-.15-.285.368-.006-.455-.432-.186.431-.143.044-.471.267.406.464-.145zm.39 1.53l.215.435.478-.088-.331.329.215.439-.438-.205-.328.332.05-.453-.407-.237.445-.09.1-.463zm.896 1.912l.162.46.485-.03-.368.285.16.462-.41-.256-.365.29.103-.443-.375-.285.453-.035.155-.448zm.765 2.482l.485.029-.4.24.104.478-.376-.304-.398.243.156-.427-.338-.327.454.019.208-.426.105.475zm.407 2.358l.046.487-.337-.347-.425.194.207-.405-.296-.366.448.074.258-.398.047.484.478.087-.426.19zm.068 2.113l-.013.489-.293-.385-.445.141.254-.377-.25-.4.436.128.304-.363-.011.486.464.144-.446.137zm-.187 2.106l-.072.483-.244-.417-.459.087.298-.345-.2-.426.417.18.345-.325-.07.482.444.199-.459.082zm-.44 2.067l-.13.472-.191-.444-.466.031.337-.306-.147-.447.393.228.381-.28-.127.47.417.25-.466.026zm-.685 2l-.186.453-.137-.464-.466-.025.372-.263-.093-.462.363.274.413-.233-.183.451.383.3-.466-.03zm-.92 1.903l-.24.427-.08-.477-.46-.081.4-.217-.036-.47.327.316.438-.18-.236.425.345.343-.459-.086zm-1.145 1.778l-.289.395-.022-.483-.446-.136.423-.167.021-.47.287.352.456-.127-.285.394.3.383-.445-.141zm-.925 1.82l-.424-.193-.335.357.036-.482-.426-.189.44-.114.077-.465.243.385.468-.071-.33.357.251.415zm-1.562 1.503l-.398-.243-.375.314.094-.475-.401-.238.451-.06.133-.453.194.411.473-.014-.371.315.2.443zm-1.475-2.218c-.07.03-.149.038-.21.083-.027.02-.05.046-.076.065l.41.542-.492-.517c-.042-.003-.083-.023-.121-.044-.166-.092-.336-.23-.361-.43l-.003-.036-2.152-2.263c-.165.154-.328.312-.488.474-.035.036-.073.074-.088.124-.011.034-.011.07-.006.105l2.172 3.74-2.027-2.727c-.005.102-.016.203-.033.303-.009.053-.02.107-.05.15-.026.038-.066.064-.104.088-.134.08-.276.146-.422.196-.08.027-.179.051-.253.098l1.222 2.85-1.352-2.372-.011.071c-.051.29-.174.563-.373.76-.085.085-.18.158-.258.25-.073.089-.128.192-.193.288-.022.032-.044.063-.068.093l.486 1.66-.629-1.496c-.1.104-.208.2-.316.296-.186.164-.273.26-.44.4-.03.025-.098.038-.13.067-.015.06-.258.185-.312.191-.065.007-.133-.004-.197.002l.176 1.071-.295-1.04c-.05.013-.126.028-.173.05-.048.021-.065.052-.083.056-.044.009-.073.001-.115-.013l-.136-.043c-.036-.012-.075-.024-.11-.008-.016.008-.03.02-.045.03-.084.046-.18-.037-.274-.037-.138-.001-.24.17-.377.163-.052-.004-.1-.033-.152-.032-.069 0-.125.052-.184.093l.047 1.086-.163-1.034h-.013c-.06 0-.113-.04-.161-.079l-.234-.188c-.018-.014-.036-.03-.048-.049-.016-.025-.02-.055-.027-.084-.018-.08-.055-.154-.104-.216-.025-.03-.017-.071.012-.096.063-.054.092-.16.079-.25-.026-.176-.152-.31-.236-.46-.048-.087-.083-.18-.117-.274l-.202-.545-.007-.018c-.046-.1-.14-.127-.223-.203-.077-.07-.132-.164-.178-.263l-.3 3.833-.211-6.027-.056-.093c-.128-.215-.202-.456-.314-.677l-1.352 6.636.66-7.489c-.055-.01-.11-.022-.164-.034l-2.378 7.133 1.557-7.354-.159-.054-3.22 6.794 2.433-7.113-.151-.073-4.016 6.357 3.273-6.769-.141-.09-4.754 5.827 4.066-6.326-.13-.106-5.421 5.212 4.799-5.79c-.04-.04-.078-.08-.116-.121l-6.01 4.52 5.46-5.169-.1-.133-6.51 3.762 6.043-4.472-.083-.145-6.917 2.95 6.538-3.711-.065-.154-7.221 2.094 6.938-2.896c-.016-.053-.032-.107-.046-.16l-7.422 1.208 7.238-2.038c-.01-.055-.018-.11-.026-.166l-7.514.306 7.431-1.152c-.002-.055-.005-.11-.006-.166l-7.497-.603 7.16-.236c-.09-.066-.153-.168-.238-.241-.037-.032-.078-.058-.118-.085l-6.644-1.353 5.89.519c-.004-.086-.003-.174-.03-.255l-.013-.031c-.032-.072-.085-.137-.12-.208-.03-.058-.06-.118-.105-.163l-5.232-1.744 4.628.98c-.012-.011-.025-.022-.039-.03-.04-.024-.077-.057-.112-.091-.014-.013-.052-.036-.072-.066-.008-.012-.013-.025-.013-.04 0-.016-.002-.032 0-.047.023-.131-.006-.271.027-.4.01-.041.026-.08.027-.122 0-.053-.023-.102-.047-.148l-.041-.083-3.744-1.775 3.919 1.34c.024-.023.048-.047.065-.077.028-.05.034-.108.04-.166l.006-.041c.02-.15.078-.292.167-.407.027-.035.057-.068.075-.108.012-.027.02-.056.024-.085l-3.467-2.19 3.422 1.654c-.007-.018-.014-.037-.017-.057-.019-.102.04-.2.088-.29.013-.025.027-.051.028-.08 0-.026-.01-.05-.019-.074-.043-.105-.091-.206-.145-.305l.007-.077c.013-.106.038-.199.08-.304.007-.02.015-.039.03-.052.009-.009.02-.014.032-.019l-2.473-2.018 2.687 1.727.07-.17c.017-.047.035-.097.07-.132.028-.03.064-.046.098-.066.213-.125.34-.363.457-.595l-2.162-2.25 2.37 1.966c.011-.006.023-.011.035-.015.031-.01.065-.013.096-.025.136-.05.172-.233.251-.365.026-.042.056-.079.095-.104.077-.05.173-.045.261-.06.09-.017.173-.055.253-.103l-1.971-2.62 2.275 2.403c.133-.107.256-.228.34-.382.044-.082.016-.153.01-.247-.005-.11.007-.228.069-.316.05-.071.13-.117.171-.195.012-.022.02-.046.03-.07l-1.355-2.344L12.7 8.996c.033-.025.067-.049.1-.071.028-.02.056-.038.086-.05.046-.018.095-.02.142-.028.152-.028.288-.124.395-.244.107-.121.187-.265.264-.41.016-.03.032-.06.052-.085l-.924-2.166 1.368 2.41c.053.011.107.012.159.001.046-.01.09-.026.137-.023.067.003.125.046.188.072.04.017.085.027.129.03.08.004.16-.015.23-.054.107-.06.17-.198.305-.184.04.005.08.022.12.015l.01-.001-.875-3.014 1.18 2.828c.055-.018.112-.028.168-.034.12-.011.241-.006.361-.02.126-.015.249-.053.375-.066.1-.01.206-.003.298.04l-.534-3.278.92 3.265.026-.009c.017-.005.035-.01.052-.009.032.004.061.03.093.028.049-.003.08-.065.128-.072.044-.007.08.034.117.06.081.057.213.048.312.011.021-.008.041-.017.058-.027.028-.016.055-.037.085-.05.077-.036.166-.025.25-.012l-.143-3.487.795 5.127c.039.015.079.025.12.026.05 0 .1-.014.151-.017.147-.007.283.086.428.108l.427-5.316.192 5.811c.033.003.065.006.097.013.09.02.175.057.252.11.057.039.11.087.168.126l1.188-5.902-.44 5.135c.024-.018.05-.032.079-.04.043-.012.088-.01.13-.02.04-.01.077-.031.117-.042.079-.021.162-.002.241.016.062.015.13.034.166.09l.011.019 1.58-4.77-1.045 4.983h.002c.049 0 .08.007.101.032.016.017.028.043.04.082.107-.017.218-.034.323-.002.036.012.07.028.106.038.051.014.103.014.156.015l2.138-4.537-1.598 4.708.028.009c.027.008.056.015.084.01.032-.005.06-.024.088-.043l.243-.165c.07-.048.143-.096.223-.12.08-.023.171-.018.238.035.025.02.045.045.07.064.011.01.024.017.037.023l2.322-3.694-1.765 3.673c.035-.013.07-.03.1-.054l.029.007.002.004c.024.048.044.097.062.149.035.099.09.186.127.284.02.055.03.116.051.17-.008.014-.016.031-.019.042-.033.137-.06.399-.071.582l3.107-3.826-2.994 4.68c.017.024.034.047.049.071.1.155.157.348.284.472L30.7 8.523l-3.822 4.632c.079.06.164.11.239.176.013.012.027.025.035.041.025.05-.004.12.025.168.005.01.012.017.02.023l4.832-3.651-4.66 4.43c.017.053.036.106.046.16.006.032.009.065.026.09.014.02.036.034.057.047.03.019.057.04.082.065l5.601-3.253-5.15 3.828c.018.084.021.174.055.251.023.052.06.096.078.149v.002l5.975-2.564-5.337 3.045c.021.021.04.047.058.071.071.095.157.177.253.241.033.022.069.044.093.075l5.684-1.662-5.79 2.431.003.034.022.218c0 .006 0 .011.005.016.003.003.008.004.013.005.02.002.042-.002.061-.01.025-.013.045-.033.07-.043.023-.009.048-.009.072-.008.033 0 .065 0 .097.007l.018.004.014-.024c.042-.07.085-.142.134-.205.044.118.15.23.232.3.015.013.03.025.046.036l.525-.086c.014-.013.03-.024.047-.027.015-.003.03 0 .044.004l.016.005.319-.053c.05-.042.099-.088.157-.11.104-.038.235.002.315-.08.011-.012.023-.027.04-.028.013 0 .024.01.035.017.074.05.17.017.25-.018l.245-.104c.053-.023.11-.049.138-.102.011-.02.018-.043.035-.057.015-.013.035-.015.054-.015.057 0 .115.016.166.046.007.068-.058.127-.054.195.001.01.003.018.006.027l3.196-.528-3.203.91c-.009.037-.017.075-.02.112-.006.062.002.125-.002.187-.006.11-.046.213-.084.314-.032.082-.064.164-.113.236-.022.033-.049.063-.068.099-.02.036-.032.076-.045.115-.01.031-.022.062-.034.091l3.874-.166-4.057.638c-.01.068-.016.138-.039.202-.023.067-.061.125-.097.183-.105.176-.191.367-.296.541l4.563.357-4.975.175c-.03.032-.064.063-.096.093-.063.057-.127.115-.2.159-.056.035-.116.06-.174.09-.04.02-.073.048-.104.08l-.191.194 5.582 1.124-6.118-.525c-.093.121-.18.248-.256.383l-.02.037 6.006 1.988-6.603-1.383c-.007.023-.01.047-.012.07-.004.063-.004.132-.043.178-.023.028-.058.043-.084.068l6.13 2.89-6.425-2.182c-.015.08-.024.164-.038.24-.006.035-.012.07-.003.104.004.014.01.027.018.039l5.62 3.533-2.374-1.142.008.024c.101.268.135.56.168.846.012.1.018.216-.02.302-.017.039-.067.045-.092.01l-.008-.013c-.015-.028.002-.127-.023-.145-.026-.018-.066-.006-.085.044.028.185.04.351-.036.518l-.006.011 1.439 1.168-1.524-.974c-.007.032-.013.065-.018.098-.035.192-.092.377-.15.561-.076.245-.153.49-.251.724-.032.076-.066.151-.097.227l.821.851-.871-.719-.01.032c-.043.134-.065.273-.104.408-.043.155-.107.303-.17.45-.082.188-.179.392-.357.468zm-.257 3.52l-.366-.288-.41.267.15-.46-.369-.286.455-.005.186-.433.143.431.472.044-.406.267.145.464zm-1.876 1.086l-.329-.331-.439.215.205-.438-.332-.328.452.05.237-.408.09.446.463.1-.436.216.089.478zm-1.994.851l-.286-.368-.462.16.256-.41-.29-.365.443.103.284-.375.036.453.448.154-.459.163.03.485zm-2.052.12l-.029.485-.24-.4-.478.104.304-.377-.244-.398.427.157.328-.339-.02.454.426.207-.474.106zm-2.081.356l-.087.478-.19-.426-.487.046.347-.337-.195-.424.406.206.366-.297-.074.449.398.257-.484.048zm-2.109.103l-.144.464-.137-.446-.489-.013.385-.293-.142-.444.378.254.399-.25-.127.435.363.304-.486-.01zm-2.136-.131l-.207.418-.067-.482-.482-.067.408-.241-.056-.451.354.311.413-.19-.211.416.333.351-.485-.065zm-2.074-.408l-.256.39-.009-.486-.47-.125.434-.19v-.455l.312.352.434-.139-.26.387.288.39-.473-.124zm-1.555-.476l-.455-.18-.301.357.05-.483-.452-.181.454-.137.054-.45.268.386.447-.085-.304.353.239.42zm-1.942-.839l-.43-.233-.341.318.107-.474-.426-.234.466-.08.109-.442.22.416.454-.03-.345.313.186.446zm-1.826-1.066l-.399-.283-.377.274.164-.458-.395-.284.473-.024.16-.425.168.44.455.024-.38.27.131.466zm-1.684-1.279l-.362-.33-.408.227.218-.434-.358-.33.472.034.21-.403.115.457.448.079-.41.222.075.478zM6.95 32.021l-.32-.37-.432.176.269-.405-.316-.37.465.09.257-.375.059.468.435.132-.434.17.017.484zm-1.288-2.126l-.042.482-.272-.407-.45.123.315-.37-.27-.405.452.145.3-.34.002.47.416.184-.451.118zm-1.164-1.311l-.221-.436-.462.067.358-.329-.218-.435.43.199.34-.302-.056.468.391.232-.462.062-.1.474zm-.897-1.915l-.168-.46-.466.011.395-.283-.164-.458.403.249.373-.259-.111.458.36.278-.466.006-.156.458zm-.771-2.486l-.465-.045.426-.234-.107-.474.37.296.402-.212-.166.44.324.32-.464-.05-.21.436-.11-.477zm-.36-2.365l-.05-.484.332.338.424-.162-.217.418.284.356-.455-.106-.26.408-.053-.487-.456-.1.451-.181zm-.067-2.11l.008-.487.289.376.44-.11-.265.389.238.387-.438-.16-.308.374.006-.49-.44-.154.47-.125zm.187-2.103l.067-.482.241.408.451-.056-.31.353.19.414-.417-.211-.35.333.065-.485-.419-.207.482-.067zm.439-2.065l.125-.47.19.433h.454l-.35.313.138.433-.388-.26-.388.29.123-.474-.39-.256.486-.01zm.685-1.997l.18-.452.137.454.451.053-.386.27.085.446-.353-.304-.42.24.179-.456-.357-.3.484.049zm.92-1.9l.234-.427.08.467.442.108-.416.22.031.454-.314-.345-.446.187.233-.43-.318-.341.474.107zm.685-1.94l.458.165.283-.396.024.473.425.16-.44.169-.023.455-.27-.38-.466.131.283-.399-.274-.377zM6.69 8.026l.435.218.329-.358-.033.472.402.21-.456.115-.079.448-.222-.41-.478.075.329-.362-.227-.408zm1.563-1.5l.406.268.37-.317-.09.466.374.257-.467.058-.132.436-.171-.434-.484.017.37-.32-.176-.432zm1.733-1.303l.37.316.405-.27-.144.451.34.3-.47.003-.184.416-.118-.451-.482-.042.406-.273-.123-.45zm1.878-1.083l.329.357.434-.218-.198.43.302.34-.467-.056-.233.392-.062-.463-.474-.099.436-.222-.067-.461zm1.994-.85l.283.395.458-.165-.248.403.258.374-.457-.111-.278.36-.006-.466-.458-.156.46-.167-.012-.467zm2.037-.138l.044-.465.235.426.474-.108-.296.37.213.402-.441-.165-.32.324.05-.464-.436-.21.477-.11zm2.083-.357l.1-.456.182.451.484-.05-.338.332.162.424-.418-.217-.356.284.106-.455-.408-.26.486-.053zm2.112-.103l.154-.44.126.47.486.008-.375.288.11.441-.389-.266-.387.24.159-.44-.373-.307.489.006zm2.127.179l.199-.444.082.46.484.072-.418.244.086.458-.344-.297-.426.2.18-.418-.325-.345.482.07zm2.071.407l.251-.417.026.466.472.13-.444.193.03.465-.305-.337-.447.147.228-.393-.28-.382.47.128zm1.557.47l.45.183.3-.383-.03.466.452.186-.464.137-.026.466-.262-.372-.462.093.274-.363-.232-.413zm1.94.838l.425.236.343-.344-.086.459.426.24-.477.079-.081.46-.216-.401-.47.036.316-.327-.18-.438zm1.823 1.066l.394.285.383-.3-.141.445.394.289-.483.022-.136.446-.166-.424-.47-.02.352-.287-.127-.456zm1.683 1.277l.357.33.415-.251-.193.425.357.334-.483-.036-.188.426-.115-.44-.464-.078.385-.242-.071-.468zm1.516 1.47l.315.372.443-.2-.244.399.315.375-.475-.095-.239.4-.06-.45-.452-.133.411-.194-.014-.473zM20 0C8.954 0 0 8.954 0 20s8.954 20 20 20 20-8.954 20-20S31.046 0 20 0z" transform="translate(-1250 -1993) translate(150 1958) translate(960) translate(140 35)"/>
                        </g>
                        <path fill="#006239" d="M18.151 8.72c-.067.04-.115.103-.08.156.022.035.067.054.122.068l-.017-.237-.025.014M27.75 24.783c.03.098.07.195.075.298.001.044-.002.092.023.127.014.018.034.03.053.042.062.04.107.055.167.149.009.01.018.022.026.034.01.013.019.027.02.043.001.017-.007.033-.015.049-.017.035-.028.072-.037.11l1.835 1.49c.001-.011.004-.021.01-.028.018-.022.047-.032.074-.028.02.003.04-.003.051-.02.02-.027.045-.05.074-.065.018-.01.023-.036.009-.052-.028-.033-.038-.086-.012-.122.022-.03.063-.05.066-.088.001-.01 0-.021-.004-.031-.013-.04.002-.098.033-.123.028-.023.05-.01.079.015.018.016.043.017.062.004.083-.052.152-.175.161-.28.006-.066-.008-.162.02-.228l-2.782-1.337c.003.014.007.027.012.041M25.402 10.946c-.04-.042-.068-.096-.11-.135-.043-.039-.1-.065-.126-.12-.011-.023-.015-.052-.025-.077-.015-.039-.043-.07-.068-.102-.036-.047-.066-.1-.089-.156l-.04.086c.029.047.064.091.074.146.005.028.004.059.016.084.01.022.029.037.044.055.058.065.083.163.154.213.024.016.052.026.073.049.036.039.035.1.054.152l.117-.144c-.027-.01-.053-.029-.074-.05M28.03 26.475c-.002.184-.02.365-.006.55.007.095-.026.19-.076.28l.908.941c-.01-.073-.044-.147-.017-.218.04-.106.116-.202.111-.316-.001-.033-.01-.07.007-.097.015-.024.043-.033.068-.041.217-.065.41-.136.602-.243l-1.593-1.018-.003.162" transform="translate(-1250 -1993) translate(150 1958) translate(960) translate(140 35)"/>
                        <path fill="#FFF" d="M19.586 9.449c.059.053.05.152.08.229.034.09.08.136.152.172.06.03.129.034.197.04l-.188-5.69-.418 5.204.016.003c.055.006.117.003.16.042M19.341 31.407c-.002-.018.001-.036 0-.054 0-.037-.013-.073-.023-.109-.036-.121-.043-.25-.049-.378-.003-.06-.006-.121-.027-.177-.014-.036-.036-.07-.051-.105-.04-.087-.043-.186-.046-.282l-.012-.336c-.001-.052-.003-.105-.018-.155-.014-.046-.038-.087-.062-.127l-.134-.225.207 5.9.293-3.753c-.021-.045-.04-.092-.06-.138-.008-.02-.016-.04-.018-.06M18.186 7.73c.02.03.022.082.056.094.059.02.104-.112.157-.077.02.014.023.046.018.072-.013.074-.06.141-.124.174-.02.01-.042.018-.058.036-.024.028-.022.073-.006.107s.044.06.071.084c.02.018.04.037.05.062.007.017.009.036.01.055.004.107-.04.215-.117.283-.037.032-.08.055-.116.087l.01.237c.068.03.162.031.205.096.015.024.022.052.038.074.018.024.045.037.072.05l.032.015.149.07c.03.015.06.03.092.04l-.778-5.02.139 3.415h.002c.036.006.076.014.098.046M21.006 35.286l-.045-1.063c-.036.026-.073.047-.114.05l.16 1.013zM16.709 7.835c.02.006.042 0 .062-.006l.218-.067-.9-3.196.522 3.209c.023.01.044.023.065.039.01.008.02.016.033.02M22.575 33.97l.29 1.018-.174-1.049c-.026.003-.052.008-.077.018l-.039.012M15.435 7.853l-1.156-2.768.856 2.95c.052-.011.091-.057.133-.093.05-.042.107-.07.167-.09M24.673 34.467l-.476-1.625c-.043.056-.09.11-.14.16l.616 1.465zM13.477 7.911c.033-.028.083-.038.119-.013.03.023.043.065.06.101.043.096.132.156.23.177l-1.34-2.359.905 2.12c.007-.009.016-.018.026-.026M25.109 31.065c-.013.044-.011.091-.012.137-.001.07-.007.14-.016.21l1.324 2.32-1.197-2.788c-.046.03-.084.067-.1.121M12.433 8.807l-1.52-2.054 1.326 2.294.01-.022c.038-.091.107-.16.184-.218M26.053 30.126l1.984 2.669-2.126-3.66c.006.04.019.08.03.118.088.28.126.578.112.873M11.633 10.232L9.406 7.88l1.93 2.565c.051-.03.101-.066.15-.101.05-.036.099-.072.147-.11M29.062 31.16l.481.507-.4-.53c-.01.006-.02.012-.032.017-.016.006-.033.008-.05.007M28.606 30.427l-1.753-2.32c-.126.11-.25.224-.372.339l2.106 2.215c-.003-.077.013-.157.02-.234M10.366 11.102L8.045 9.18l2.117 2.202.023-.047c.045-.09.098-.187.18-.232M27.721 27.599c-.025.027-.052.052-.079.077l1.313 1.083c.002-.009.004-.016.003-.02-.005-.03-.057-.086-.063-.115-.026-.128-.026-.249-.038-.37l-.001-.008-.908-.94c-.063.113-.153.216-.227.293M30.903 30.366l-.805-.833c-.017.042-.034.085-.049.129l.854.704zM9.437 12.422l.044-.098-2.63-1.691 2.42 1.975.023-.01c.068-.03.108-.105.143-.176M30.604 27.956l1.491.954-1.408-1.143c-.02.043-.047.083-.065.128-.007.02-.013.04-.018.061M28.04 25.904c0 .136-.004.273-.006.409l1.593 1.018c.041-.023.082-.047.124-.074.018-.011.038-.013.059-.009.015.003.043.006.069.005.027 0 .044-.032.033-.06-.01-.022-.016-.047-.015-.068l-1.835-1.49c-.02.087-.021.18-.023.27M9.214 13.9l-.024-.06-3.35-1.62 3.393 2.144.007-.06c.012-.136.021-.277-.026-.403M27.674 23.942c.067.075.091.19.063.289-.012.039-.03.08-.018.119.009.024.029.043.032.068.003.021-.007.042-.015.062-.031.083-.02.175.002.262l2.782 1.337c.015-.038.045-.067.1-.074.105-.013.13.11.159.199l2.325 1.118-5.503-3.46c.02.03.05.053.073.08M8.655 15.533c.006-.035.025-.064.044-.093.043-.064.087-.129.14-.184l.026-.026-3.837-1.312 3.665 1.737-.016-.03c-.009-.02-.028-.057-.022-.092M27.896 22.814c-.028.041-.023.096-.03.146-.015.095-.074.17-.127.244-.016.023-.03.046-.044.069-.036.063-.057.138-.071.214l6.29 2.136-6.001-2.828c-.007.006-.012.012-.017.02M9.445 17.335c-.054-.043-.081-.12-.124-.165-.019-.048-.046-.091-.077-.13l-.021-.026c-.032-.074-.087-.14-.12-.216-.007-.016-.014-.033-.026-.045-.011-.012-.028-.019-.042-.027-.029-.017-.052-.042-.077-.065l-4.53-.96 5.12 1.708c-.01-.01-.021-.02-.034-.03-.022-.015-.047-.027-.069-.044M28.57 22.005c-.045.078-.095.151-.161.207-.048.041-.104.071-.145.12-.013.016-.025.034-.043.045-.033.02-.075.009-.11.023-.033.014-.052.047-.063.085l6.465 1.354-5.88-1.946c-.02.038-.042.075-.063.112zM10.297 18.665c-.072-.067-.144-.135-.223-.193-.078-.058-.167-.109-.215-.197-.037-.069-.045-.145-.048-.223l-5.766-.508 6.504 1.325-.044-.03c-.073-.05-.14-.112-.208-.174M28.903 21.482l5.99.514-5.465-1.1c-.099.1-.196.2-.29.305-.082.09-.16.184-.235.28M11.23 19.493c-.015-.007-.03-.015-.044-.024-.066-.046-.113-.107-.172-.163-.037-.036-.068-.084-.11-.113l-.006-.005-7.01.231 7.34.59c-.002-.076-.003-.153-.003-.23 0-.095.001-.19.005-.286M30.303 20.125c-.031.04-.057.083-.088.122-.012.016-.025.03-.038.045l4.87-.171-4.467-.35c-.056.093-.117.181-.19.26-.029.03-.06.06-.087.094M3.959 21.3l7.356-.3c-.04-.272-.068-.548-.081-.828L3.959 21.3zM31.003 18.865l3.972-.625-3.793.163c-.041.1-.09.194-.136.293-.024.053-.034.11-.043.169M4.255 23.158l7.265-1.184c-.073-.265-.133-.536-.18-.812l-7.085 1.996zM29.498 17.346c.101-.013.188-.08.268-.148l.006-.006-.513.085c.072.05.155.079.239.069M31.541 17.273l3.135-.89-3.129.516c.006.02.015.038.022.057.036.102-.001.209-.028.317M30.037 17.255c.058-.01.106-.068.153-.132l-.312.083c.052.025.105.059.159.049M4.773 24.967l7.07-2.05c-.106-.256-.198-.518-.278-.785l-6.792 2.835zM28.634 16.281c.015.028.037.05.058.07.03.03.062.06.095.086.039.029.081.053.116.086-.043.026-.08.063-.105.109l-.029.003-.015-.001-.011-.002-.01-.002c-.023-.006-.045-.016-.065-.03l-.022.047c-.017.047-.03.099-.063.133-.022.023-.052.036-.071.062-.023.03-.026.072-.023.112l5.667-2.38-5.564 1.627c.005.006.01.012.014.02.011.019.017.04.028.06M5.506 26.7l6.771-2.888c-.136-.24-.26-.49-.37-.745l-6.401 3.634zM27.777 15.627c.027.017.051.036.078.05.024.013.05.022.075.03l.152.053c.034.012.068.024.096.046l.018.016 5.225-2.98-5.849 2.51c.012.032.016.068.027.1.03.09.108.131.178.175M6.442 28.333l6.374-3.684c-.163-.223-.316-.455-.457-.695l-5.917 4.379zM27.044 14.44c.023.027.044.058.072.08.05.038.118.047.157.1.029.038.04.09.065.131.018.03.041.055.06.083.023.038.035.08.044.124l5.041-3.748L27 14.395c.016.014.03.029.044.045M7.568 29.84l5.884-4.425c-.19-.202-.369-.414-.538-.635l-5.346 5.06zM26.723 13.61c0 .141.023.282.065.415l.005.016 4.563-4.338-4.732 3.575.032.028c.083.079.067.2.067.305M13.565 25.533l-4.698 5.669 5.308-5.103c-.212-.178-.416-.367-.61-.566M26.025 12.293c.024.019.05.036.065.064.023.045.008.1.005.151-.004.074.02.145.06.207.027.044.063.084.101.118l.057.046 3.742-4.535-4.061 3.92.031.029M10.322 32.396l4.653-5.704c-.233-.152-.457-.315-.673-.489l-3.98 6.193zM25.476 10.997l-.117.144c.002.007.005.014.01.021.026.052.083.082.104.138.01.027.01.058.013.088.015.134.103.238.182.346L28.6 7.15l-3.042 3.746c-.002.037-.004.07-.004.1-.025.01-.052.01-.077 0M11.91 33.407l3.93-6.223c-.25-.123-.492-.258-.727-.404l-3.204 6.627zM24.985 10.262c-.01-.023-.056-.027-.071-.005-.029.043-.016.104.02.148.01.013.022.025.034.037l.064-.086c-.02-.03-.035-.062-.047-.094M25.216 9.758c.022-.005.044-.012.066-.02l1.728-3.595-2.273 3.615c.042.021.09.029.137.032.115.008.23-.003.342-.032M13.607 34.218l3.153-6.65c-.264-.092-.521-.197-.771-.313l-2.382 6.963zM23.747 9.942l1.565-4.61-2.094 4.443c.02 0 .039.001.058.003.164.017.312.112.47.164M15.39 34.82l2.328-6.984c-.273-.059-.54-.131-.803-.216l-1.525 7.2zM22.172 9.513c.035.007.067.026.1.042.072.035.154.057.234.058l1.022-4.88-1.546 4.67c.013.027.023.055.044.074.038.036.096.025.146.036M18.19 28.06c-.003-.04 0-.082.006-.123l.002-.012c-.107-.016-.214-.035-.32-.056l-.645 7.332 1.323-6.496c-.028-.056-.059-.11-.093-.162-.104-.155-.255-.292-.272-.483M21.054 10.028c.026-.04.046-.088.042-.137-.006-.064-.05-.119-.052-.183 0-.054.029-.102.057-.146.043-.066.09-.136.152-.181l.432-5.027-1.164 5.778c.024.016.048.03.074.042.16.07.36.007.459-.146" transform="translate(-1250 -1993) translate(150 1958) translate(960) translate(140 35)"/>
                        <path fill="#FABC0C" d="M19.398 3.359L19.778 3.125 20.158 3.386 20.05 2.954 20.418 2.671 19.942 2.663 19.819 2.203 19.668 2.634 19.189 2.628 19.554 2.93zM19.516 36.187L19.125 36.432 18.755 36.184 18.894 36.619 18.517 36.906 18.996 36.919 19.13 37.355 19.271 36.901 19.747 36.911 19.391 36.614zM17.42 3.487L17.769 3.209 18.178 3.422 18.019 3.006 18.35 2.681 17.876 2.731 17.699 2.289 17.6 2.735 17.124 2.787 17.523 3.042zM21.492 36.062L21.134 36.352 20.737 36.15 20.927 36.565 20.588 36.895 21.065 36.851 21.251 37.268 21.335 36.8 21.809 36.753 21.42 36.501zM15.472 3.852L15.785 3.535 16.216 3.696 16.009 3.303 16.298 2.941 15.833 3.047 15.604 2.63 15.561 3.084 15.094 3.193 15.521 3.398zM23.439 35.699L23.119 36.031 22.7 35.878 22.939 36.267 22.642 36.636 23.11 36.534 23.345 36.926 23.373 36.451 23.837 36.347 23.421 36.144zM13.576 3.993L13.583 4.45 13.854 4.097 14.302 4.205 14.049 3.84 14.292 3.445 13.844 3.606 13.566 3.22 13.578 3.677 13.128 3.841zM25.363 35.548L25.328 35.105 25.05 35.472 24.616 35.371 24.9 35.729 24.65 36.131 25.102 35.973 25.382 36.334 25.353 35.859 25.802 35.7zM11.717 4.818L11.779 5.271 12.006 4.887 12.464 4.941 12.168 4.609 12.362 4.188 11.936 4.402 11.614 4.052 11.68 4.504 11.253 4.721zM27.22 34.723L27.132 34.287 26.9 34.685 26.457 34.637 26.783 34.958 26.582 35.387 27.012 35.176 27.334 35.5 27.247 35.032 27.674 34.821zM9.971 5.861L10.086 6.303 10.266 5.895 10.727 5.893 10.393 5.599 10.535 5.158 10.139 5.421 9.776 5.112 9.897 5.553 9.499 5.82zM28.964 33.68L28.824 33.258 28.642 33.681 28.197 33.687 28.558 33.966 28.411 34.416 28.812 34.155 29.171 34.438 29.028 33.984 29.426 33.722zM8.363 7.106L8.531 7.531 8.66 7.105 9.118 7.047 8.751 6.796 8.839 6.34 8.477 6.65 8.08 6.387 8.252 6.81 7.89 7.123zM30.57 32.435L30.38 32.032 30.25 32.475 29.809 32.534 30.201 32.768 30.109 33.232 30.476 32.924 30.866 33.162 30.67 32.729 31.034 32.421zM6.917 8.537L7.135 8.938 7.212 8.499 7.659 8.387 7.265 8.181 7.297 7.719 6.975 8.07 6.549 7.857 6.772 8.256 6.449 8.61zM32.014 31.005L31.777 30.628 31.701 31.083 31.27 31.195 31.688 31.38 31.652 31.852 31.98 31.502 32.396 31.692 32.149 31.285 32.472 30.935zM5.654 10.131L5.919 10.503 5.942 10.058 6.372 9.893 5.956 9.736 5.933 9.273 5.655 9.66 5.207 9.5 5.476 9.869 5.199 10.26zM33.722 29.287L33.275 29.411 32.994 29.066 32.974 29.527 32.56 29.69 32.997 29.823 33.018 30.296 33.301 29.91 33.737 30.047 33.443 29.673zM4.156 12.049L4.592 11.865 4.9 12.203 4.869 11.758 5.277 11.543 4.845 11.437 4.765 10.98 4.537 11.398 4.072 11.293 4.384 11.627zM34.764 27.501L34.335 27.678 34.015 27.369 34.05 27.829 33.658 28.04 34.108 28.12 34.187 28.587 34.421 28.169 34.87 28.253 34.533 27.917zM3.336 13.95L3.747 13.715 4.093 14.013 4.009 13.576 4.388 13.313 3.946 13.26 3.812 12.816 3.636 13.258 3.162 13.21 3.511 13.504zM35.582 25.601L35.178 25.829 34.823 25.561 34.914 26.013 34.55 26.27 35.006 26.295 35.141 26.749 35.323 26.306 35.779 26.336 35.404 26.043zM2.751 15.936L3.131 15.653 3.511 15.908 3.375 15.483 3.719 15.177 3.274 15.177 3.087 14.753 2.965 15.213 2.489 15.222 2.872 15.472zM36.167 23.617L35.793 23.892 35.408 23.669 35.552 24.107 35.223 24.406 35.678 24.376 35.866 24.81 35.994 24.349 36.45 24.323 36.042 24.077zM2.41 17.978L2.753 17.652 3.16 17.859 2.974 17.454 3.279 17.108 2.837 17.162 2.601 16.763 2.535 17.235 2.064 17.301 2.474 17.503zM36.507 21.578L36.169 21.895 35.761 21.72 35.957 22.137 35.665 22.474 36.114 22.389 36.353 22.798 36.424 22.324 36.873 22.244 36.439 22.049zM2.317 20.046L2.619 19.681 3.048 19.837 2.814 19.458 3.075 19.078 2.643 19.185 2.361 18.817 2.352 19.293 1.892 19.416 2.323 19.567zM36.6 19.511L36.303 19.867 35.876 19.743 36.121 20.133 35.872 20.503 36.307 20.364 36.594 20.741 36.607 20.263 37.044 20.129 36.589 19.988zM2.474 22.111L2.729 21.712 3.174 21.815 2.897 21.467 3.11 21.058 2.694 21.216 2.369 20.885 2.418 21.359 1.976 21.536 2.423 21.635zM36.443 17.449L36.191 17.838 35.752 17.766 36.042 18.124 35.84 18.521 36.255 18.331 36.585 18.671 36.54 18.194 36.958 18.009 36.49 17.923zM3.538 23.763L3.221 23.451 3.383 23.019 2.989 23.227 2.627 22.937 2.733 23.402 2.316 23.631 2.77 23.675 2.879 24.141 3.084 23.715zM35.391 15.819L35.722 16.139 35.569 16.558 35.958 16.319 36.327 16.617 36.225 16.149 36.617 15.914 36.142 15.886 36.039 15.421 35.835 15.838zM3.782 25.382L3.89 24.934 3.525 25.187 3.13 24.943 3.291 25.392 2.905 25.669 3.361 25.658 3.525 26.108 3.678 25.66 4.134 25.654zM35.165 14.208L35.063 14.641 35.421 14.358 35.823 14.609 35.666 14.156 36.026 13.876 35.551 13.905 35.393 13.456 35.241 13.894 34.798 13.929zM4.571 27.231L4.625 26.773 4.293 27.068 3.872 26.874 4.085 27.3 3.735 27.622 4.187 27.556 4.404 27.983 4.501 27.519 4.954 27.458zM34.379 12.357L34.331 12.8 34.652 12.475 35.081 12.676 34.87 12.246 35.195 11.924 34.727 12.01 34.515 11.584 34.417 12.037 33.981 12.125zM5.576 28.51L5.281 28.844 4.84 28.701 5.103 29.098 4.794 29.46 5.235 29.34 5.502 29.738 5.543 29.266 5.985 29.151 5.577 28.971zM33.375 10.292L32.953 10.432 33.376 10.614 33.382 11.06 33.661 10.699 34.111 10.846 33.85 10.445 34.134 10.087 33.679 10.229 33.418 9.83zM6.786 30.578L6.729 30.12 6.477 30.487 6.022 30.399 6.331 30.761 6.068 31.158 6.491 30.985 6.804 31.348 6.787 30.875 7.212 30.707zM32.171 9.005L32.23 9.447 32.464 9.055 32.928 9.147 32.621 8.78 32.859 8.39 32.425 8.586 32.118 8.222 32.131 8.686 31.729 8.875zM8.179 32.027L8.068 31.58 7.862 31.974 7.399 31.942 7.75 32.264 7.536 32.689 7.936 32.467 8.29 32.79 8.217 32.322 8.618 32.104zM30.78 7.553L30.892 7.985 31.077 7.567 31.549 7.603 31.2 7.275 31.389 6.86 30.982 7.106 30.633 6.782 30.702 7.241 30.326 7.478zM9.737 33.298L9.573 32.868 9.415 33.284 8.952 33.307 9.339 33.585 9.179 34.033 9.548 33.764 9.939 34.042 9.81 33.586 10.182 33.322zM29.225 6.279L29.388 6.694 29.521 6.257 29.994 6.236 29.608 5.953 29.746 5.517 29.371 5.811 28.986 5.532 29.11 5.979 28.765 6.259zM11.437 34.372L11.222 33.964 11.116 34.396 10.659 34.475 11.076 34.705 10.971 35.169 11.306 34.858 11.727 35.086 11.544 34.649 11.881 34.342zM27.527 5.202L27.739 5.594 27.819 5.145 28.286 5.066 27.868 4.832 27.953 4.383 27.616 4.72 27.2 4.489 27.377 4.917 27.068 5.237zM13.254 35.233L12.991 34.855 12.938 35.296 12.494 35.43 12.936 35.607 12.887 36.08 13.182 35.731 13.627 35.907 13.393 35.495 13.691 35.15zM25.712 4.337L25.97 4.701 25.995 4.245 26.449 4.111 26.006 3.929 26.036 3.473 25.743 3.848 25.301 3.669 25.529 4.073 25.26 4.428zM15.585 35.734L15.161 35.869 14.854 35.525 14.855 35.97 14.43 36.156 14.89 36.279 14.899 36.754 15.149 36.372 15.613 36.493 15.331 36.113zM23.369 3.842L23.806 3.697 24.106 4.028 24.076 3.572 24.51 3.384 24.049 3.256 24.023 2.8 23.778 3.208 23.318 3.083 23.592 3.457zM17.536 36.085L17.131 36.271 16.785 35.966 16.839 36.408 16.44 36.644 16.912 36.71 16.977 37.181 17.18 36.772 17.655 36.836 17.329 36.492zM21.42 3.488L21.837 3.292 22.174 3.584 22.089 3.135 22.498 2.896 22.025 2.825 21.945 2.375 21.75 2.809 21.278 2.741 21.595 3.079z" transform="translate(-1250 -1993) translate(150 1958) translate(960) translate(140 35)"/>
                        <path fill="#FFF" d="M18.217 27.67l.007.036c.018-.079.006-.127-.008-.208-.009-.058.003-.115.025-.17.013-.032.016-.066.037-.093.052-.066.069-.155.084-.24l.06-.329c.013-.077.028-.158.071-.221.041-.06.106-.104.127-.175.008-.027.01-.058.026-.081.026-.035.074-.034.111-.051.071-.033.098-.125.116-.207.045-.197.085-.422-.022-.589-.025-.039-.058-.072-.084-.11-.067-.096-.097-.22-.08-.34.014-.1.06-.196.052-.297-.005-.059-.027-.114-.05-.167-.04-.1-.12-.266-.117-.251l-.045-.072c-.058-.099-.107-.203-.146-.311-.005-.013-.01-.025-.013-.037-.014-.039-.024-.078-.032-.119-.007-.033-.012-.066-.015-.1-.007-.061-.007-.125-.026-.182l-.005-.016c-.018-.045-.046-.082-.074-.12l-.171-.227-.158-.21c-.037-.049-.073-.097-.114-.141-.055-.06-.118-.11-.174-.168-.164-.166-.272-.383-.37-.603-.024-.053-.003-.114.048-.142.03-.017.055-.039.07-.07.028-.061.01-.134.017-.201.008-.072.046-.134.071-.201.025-.067.034-.152-.011-.205l-.004-.003c-.013-.015-.03-.028-.035-.047-.013-.042.029-.077.057-.109.057-.062.073-.153.084-.24l.002-.016.031-.247c.016-.13-.05-.188-.063-.31-.004-.028-.004-.059-.02-.08-.023-.03-.063-.03-.097-.039-.058-.014-.109-.06-.133-.118-.008-.02-.013-.042-.025-.06-.023-.036-.067-.051-.105-.07l-.002-.001c-.037-.018-.08-.018-.115.006-.03.02-.07.031-.107.033-.064.002-.128-.016-.192-.014-.097.005-.187.058-.283.073-.141.022-.3-.058-.347-.204-.013-.044-.017-.092-.029-.138-.013-.052-.038-.1-.064-.145-.027-.046-.062-.085-.105-.113-.04-.025-.092-.072-.16-.09-.007-.003-.069-.032-.085-.043-.028-.018-.133-.043-.151-.052-.01-.005-.069.003-.079.006-.07.02-.069.049-.135.02-.02-.009-.03.002-.048-.006-.018-.008-.037-.007-.056-.002-.018.004-.035.013-.051.02-.031.016-.166.006-.26.02l-.018.003c-.048.007-.104.014-.117.01-.054-.016-.104.023-.149.053l-.002.002c-.06.04-.127.066-.196.077-.025.004-.051.005-.076.012-.024.006-.048.016-.07.027l-.533.237c-.063.028-.126.056-.193.063-.068.008-.14-.008-.189-.059-.013-.014-.025-.03-.04-.041-.013-.01-.028-.013-.042-.017l-.01-.003c-.22-.052-.444-.09-.668-.07-.203.019-.4.086-.588.165-.123.052-.242.107-.367.112-.054.002-.109-.006-.166-.026-.034-.012-.067-.028-.094-.053-.018-.016-.032-.036-.05-.051-.015-.013-.032-.022-.05-.03-.003.094-.004.19-.004.285 0 .077 0 .154.003.23.001.054.003.109.006.163.013.28.04.556.08.828l.026.162c.047.276.107.547.18.812l.045.158c.08.267.172.53.278.784.02.051.042.101.064.151.11.256.234.504.37.745l.082.142c.14.24.294.472.457.695l.098.131c.169.221.349.433.538.635.038.04.075.08.113.118.194.2.398.388.61.566l.127.104c.216.174.44.337.673.489l.138.088c.235.146.478.281.728.404l.148.07c.25.117.507.222.77.313l.156.053c.262.085.53.157.803.216l.16.033c.106.021.213.04.32.056.012-.085.032-.17.02-.255" transform="translate(-1250 -1993) translate(150 1958) translate(960) translate(140 35)"/>
                        <path fill="#006239" d="M30.039 29.693l.01-.031c.015-.044.032-.087.05-.13.03-.074.063-.147.094-.221.097-.23.172-.47.246-.71.057-.18.113-.36.147-.548.005-.032.01-.065.018-.097.005-.02.01-.04.018-.06.018-.046.044-.086.065-.13l.006-.01c.074-.163.062-.326.035-.507.019-.05.058-.06.083-.043.024.017.008.114.022.142l.009.013c.024.033.073.028.09-.01.037-.085.03-.198.02-.297-.033-.279-.066-.564-.165-.828l-.008-.022c-.03-.09-.054-.212-.16-.199-.054.007-.084.036-.1.074-.027.066-.013.162-.019.228-.01.105-.078.228-.16.28-.02.013-.045.012-.063-.004-.03-.024-.051-.038-.079-.015-.03.025-.046.083-.033.123.003.01.005.02.004.03-.003.04-.044.058-.066.089-.026.036-.016.089.012.122.014.016.009.042-.01.052-.028.016-.053.038-.073.066-.012.016-.032.022-.051.02-.027-.005-.056.005-.074.027-.006.007-.009.017-.01.028 0 .02.005.046.015.068.01.028-.006.06-.033.06-.026.001-.054-.002-.07-.005-.02-.004-.04-.002-.058.01-.042.026-.083.05-.124.073-.191.107-.385.178-.602.243-.025.008-.053.017-.068.04-.016.029-.008.065-.007.098.005.114-.072.21-.111.316-.027.07.008.145.017.218l.001.009c.012.12.012.241.038.369.006.03.058.085.063.114 0 .005 0 .012-.003.02-.011.036-.045.093-.042.113.016.12-.005.164-.044.275-.04.108-.081.21-.115.319-.006.018-.02.032-.037.035-.065.01-.109.095-.135.167-.049.135-.132.278-.079.413.024.06.066.11.087.172.02.056.021.115.016.175-.006.077-.022.157-.019.234l.003.036c.024.195.191.33.353.42.037.021.078.041.119.044.016 0 .033-.001.049-.007.011-.005.021-.01.031-.018.026-.018.048-.044.074-.063.06-.045.138-.052.206-.082.175-.074.27-.274.35-.458.061-.144.124-.288.166-.44.038-.132.06-.269.101-.4" transform="translate(-1250 -1993) translate(150 1958) translate(960) translate(140 35)"/>
                        <path stroke="#FFF" stroke-width=".6" d="M30.039 29.693l.01-.031c.015-.044.032-.087.05-.13.03-.074.063-.147.094-.221.097-.23.172-.47.246-.71.057-.18.113-.36.147-.548.005-.032.01-.065.018-.097.005-.02.01-.04.018-.06.018-.046.044-.086.065-.13l.006-.01c.074-.163.062-.326.035-.507.019-.05.058-.06.083-.043.024.017.008.114.022.142l.009.013c.024.033.073.028.09-.01.037-.085.03-.198.02-.297-.033-.279-.066-.564-.165-.828l-.008-.022c-.03-.09-.054-.212-.16-.199-.054.007-.084.036-.1.074-.027.066-.013.162-.019.228-.01.105-.078.228-.16.28-.02.013-.045.012-.063-.004-.03-.024-.051-.038-.079-.015-.03.025-.046.083-.033.123.003.01.005.02.004.03-.003.04-.044.058-.066.089-.026.036-.016.089.012.122.014.016.009.042-.01.052-.028.016-.053.038-.073.066-.012.016-.032.022-.051.02-.027-.005-.056.005-.074.027-.006.007-.009.017-.01.028 0 .02.005.046.015.068.01.028-.006.06-.033.06-.026.001-.054-.002-.07-.005-.02-.004-.04-.002-.058.01-.042.026-.083.05-.124.073-.191.107-.385.178-.602.243-.025.008-.053.017-.068.04-.016.029-.008.065-.007.098.005.114-.072.21-.111.316-.027.07.008.145.017.218l.001.009c.012.12.012.241.038.369.006.03.058.085.063.114 0 .005 0 .012-.003.02-.011.036-.045.093-.042.113.016.12-.005.164-.044.275-.04.108-.081.21-.115.319-.006.018-.02.032-.037.035-.065.01-.109.095-.135.167-.049.135-.132.278-.079.413.024.06.066.11.087.172.02.056.021.115.016.175-.006.077-.022.157-.019.234l.003.036c.024.195.191.33.353.42.037.021.078.041.119.044.016 0 .033-.001.049-.007.011-.005.021-.01.031-.018.026-.018.048-.044.074-.063.06-.045.138-.052.206-.082.175-.074.27-.274.35-.458.061-.144.124-.288.166-.44.038-.132.06-.269.101-.4z" transform="translate(-1250 -1993) translate(150 1958) translate(960) translate(140 35)"/>
                        <path fill="#006239" d="M26.886 28.078c.02-.018.09-.045.16-.073.043-.017.093-.038.14-.055.167-.058.322-.153.456-.274.027-.025.054-.05.08-.077.073-.077.163-.18.226-.293.05-.09.083-.186.076-.28-.013-.186.004-.367.007-.551l.003-.162c.002-.136.005-.273.005-.409.002-.09.004-.182.023-.27.009-.037.02-.074.037-.11.008-.015.016-.03.015-.048-.001-.016-.01-.03-.02-.043l-.026-.034c-.06-.094-.105-.109-.167-.149-.019-.012-.04-.024-.053-.042-.025-.035-.022-.083-.023-.127-.005-.103-.045-.2-.075-.298-.005-.014-.009-.027-.012-.041-.023-.087-.033-.18-.002-.262.007-.02.018-.04.015-.062-.003-.025-.023-.044-.032-.068-.013-.038.006-.08.018-.119.028-.099.004-.214-.063-.289-.023-.027-.053-.05-.073-.08-.007-.011-.014-.024-.018-.038-.009-.032-.003-.067.003-.1.014-.076.023-.157.038-.237.014-.076.035-.15.071-.214.013-.023.028-.046.044-.069.053-.075.112-.149.127-.244.007-.05.002-.105.03-.146l.017-.02c.025-.024.06-.039.082-.066.038-.046.038-.113.042-.174.002-.023.005-.047.011-.07.011-.037.03-.07.063-.084.035-.014.077-.003.11-.023.018-.011.03-.03.043-.045.041-.049.097-.079.145-.12.066-.056.116-.129.16-.207h.001l.063-.112.02-.037c.074-.132.16-.256.25-.374.075-.097.153-.19.234-.28.095-.105.192-.207.29-.307l.188-.19c.03-.03.063-.058.101-.078.057-.03.117-.054.172-.088.07-.043.133-.1.195-.156.032-.03.064-.06.094-.091l.038-.045c.03-.04.057-.083.088-.122.027-.033.058-.063.088-.095.072-.078.133-.166.189-.258.103-.171.187-.358.29-.53.035-.057.073-.114.095-.179.022-.063.029-.131.038-.198.009-.058.019-.116.043-.169.045-.099.095-.193.136-.293.012-.03.023-.059.033-.09.013-.038.025-.077.044-.112.02-.035.045-.065.067-.097.048-.07.08-.15.11-.231.039-.099.077-.2.083-.307.004-.061-.003-.123.002-.183.003-.037.011-.074.02-.11.027-.108.064-.215.028-.317-.007-.019-.016-.037-.022-.057l-.005-.026c-.004-.067.06-.124.052-.19-.05-.03-.106-.046-.163-.046-.018 0-.037.002-.052.014-.017.014-.023.037-.034.056-.028.052-.084.078-.135.1l-.24.102c-.079.034-.173.067-.245.018-.01-.008-.022-.018-.035-.017-.016 0-.027.015-.039.027-.077.08-.206.041-.307.078-.058.022-.106.067-.154.108-.047.04-.095.076-.153.083-.054.006-.107-.015-.16-.031l-.016-.005c-.013-.004-.028-.006-.042-.004-.018.003-.033.014-.047.026l-.006.006c-.08.068-.167.135-.268.148-.084.01-.167-.02-.239-.069-.016-.01-.03-.022-.045-.035-.08-.069-.184-.179-.228-.294-.048.062-.09.132-.13.2l-.014.024c-.006 0-.012-.002-.018-.004-.031-.006-.063-.007-.095-.007-.023 0-.048 0-.07.008-.025.01-.045.03-.069.042-.019.009-.04.012-.06.01-.005 0-.01-.002-.013-.005-.004-.004-.004-.01-.005-.015l-.02-.214c-.002-.01-.003-.022-.003-.033-.003-.04 0-.081.023-.112.019-.026.049-.039.07-.062.035-.034.047-.086.064-.133l.022-.046c.02.013.042.023.064.029l.01.002.012.002h.015c.01 0 .02 0 .029-.002.026-.046.062-.083.105-.109-.035-.033-.077-.057-.116-.086-.033-.026-.064-.056-.095-.086-.021-.02-.043-.042-.058-.07-.01-.02-.017-.041-.028-.06-.004-.008-.009-.014-.014-.02-.024-.03-.058-.052-.09-.073-.095-.063-.18-.143-.249-.236-.018-.024-.036-.049-.057-.07l-.018-.016c-.028-.022-.062-.034-.096-.046l-.152-.052c-.025-.01-.05-.018-.075-.03-.027-.015-.051-.034-.078-.05-.07-.045-.149-.086-.178-.175-.011-.033-.015-.069-.027-.102v-.002c-.018-.052-.054-.095-.076-.145-.034-.076-.037-.164-.054-.246-.009-.044-.021-.086-.045-.124-.018-.028-.041-.053-.059-.083-.025-.041-.036-.093-.065-.131-.04-.053-.107-.062-.157-.1-.028-.022-.049-.053-.072-.08-.014-.016-.028-.031-.044-.045-.025-.024-.051-.045-.08-.064-.02-.013-.042-.025-.056-.046-.017-.025-.02-.057-.025-.087-.01-.054-.029-.105-.046-.157l-.005-.016c-.042-.133-.065-.274-.065-.414 0-.105.016-.226-.067-.305l-.032-.028c-.007-.006-.014-.014-.019-.022-.027-.048 0-.115-.024-.165-.008-.016-.021-.029-.035-.04-.073-.065-.156-.114-.233-.172l-.057-.046c-.038-.034-.074-.074-.102-.118-.039-.062-.063-.133-.06-.207.004-.05.02-.106-.004-.15-.014-.029-.041-.046-.065-.065l-.031-.028c-.125-.122-.181-.31-.278-.463-.015-.023-.031-.046-.048-.068-.079-.108-.167-.212-.182-.346-.004-.03-.003-.06-.013-.088-.02-.056-.078-.086-.105-.138l-.01-.021c-.018-.052-.017-.113-.053-.152-.02-.023-.05-.033-.073-.05-.07-.049-.096-.147-.154-.212-.015-.018-.034-.033-.044-.055-.012-.025-.01-.056-.016-.084-.01-.055-.045-.1-.075-.146l-.022-.037c-.023-.044-.031-.105-.013-.148.01-.022.04-.018.046.005.008.032.018.064.03.094.023.056.053.11.09.156.024.033.052.063.067.102.01.025.014.054.025.078.026.054.083.08.126.12.042.038.07.092.11.134.02.022.047.041.074.05.025.01.052.012.077 0 0-.028.002-.062.004-.1.01-.179.037-.435.07-.569.002-.01.01-.027.018-.04-.02-.054-.03-.114-.05-.168-.036-.095-.09-.18-.124-.278-.018-.05-.037-.099-.06-.145l-.003-.004-.029-.007c-.03.023-.063.04-.097.053-.022.008-.044.015-.066.02-.112.029-.227.04-.342.032-.046-.003-.095-.01-.137-.032-.013-.006-.025-.013-.037-.022-.024-.019-.044-.043-.068-.062-.066-.052-.155-.057-.233-.034-.079.022-.149.07-.218.116l-.238.162c-.027.019-.055.037-.087.042-.027.005-.055-.002-.081-.01l-.028-.008c-.159-.052-.307-.147-.471-.164l-.058-.003c-.051-.002-.102-.002-.152-.015-.036-.01-.07-.026-.104-.037-.102-.032-.212-.015-.317.002-.01-.039-.022-.064-.038-.081-.022-.024-.052-.03-.1-.031h-.001c-.08-.001-.162-.023-.234-.058-.033-.016-.065-.035-.1-.042-.05-.011-.108 0-.146-.036-.02-.02-.03-.047-.044-.073l-.01-.02c-.037-.054-.103-.072-.163-.086-.078-.019-.159-.037-.236-.016-.039.01-.075.03-.114.04-.042.01-.086.009-.128.02-.029.008-.054.022-.078.039-.061.045-.109.115-.152.181-.028.044-.058.092-.057.146.002.064.046.119.052.183.004.049-.016.097-.042.137-.1.153-.3.217-.46.146-.025-.011-.05-.026-.073-.042-.056-.038-.108-.085-.165-.123-.075-.052-.159-.088-.246-.107-.03-.007-.063-.01-.095-.013-.068-.005-.137-.009-.197-.04-.072-.035-.118-.082-.152-.171-.03-.077-.021-.176-.08-.23-.044-.038-.106-.035-.161-.041l-.016-.003c-.142-.022-.275-.112-.418-.105-.05.002-.1.016-.149.016-.04 0-.08-.011-.117-.025-.031-.012-.062-.026-.092-.04l-.15-.071-.031-.015c-.027-.013-.054-.026-.072-.05-.016-.022-.023-.05-.038-.074-.043-.065-.137-.067-.205-.096-.032-.014-.058-.033-.07-.068-.021-.053.007-.115.046-.155l.014-.014c.037-.032.08-.055.116-.087.076-.068.12-.176.117-.283-.001-.019-.003-.038-.01-.055-.01-.025-.03-.044-.05-.062-.027-.025-.055-.05-.071-.084-.016-.034-.018-.08.006-.107.016-.018.038-.026.058-.036.064-.033.111-.1.124-.174.005-.026.003-.058-.018-.072-.053-.035-.098.098-.157.077-.034-.012-.035-.063-.056-.094-.022-.032-.062-.04-.098-.046h-.002c-.082-.013-.168-.024-.244.011-.03.014-.055.034-.083.05-.017.01-.036.019-.057.026-.097.036-.226.045-.305-.01-.037-.027-.072-.066-.115-.06-.048.008-.078.069-.125.071-.032.002-.06-.024-.091-.027-.017-.001-.035.004-.051.009l-.026.008-.218.067c-.02.006-.042.012-.062.006-.012-.005-.023-.013-.033-.021-.02-.016-.042-.029-.065-.04-.09-.041-.193-.048-.292-.038-.123.013-.243.05-.366.064-.118.015-.237.009-.354.02-.055.006-.11.016-.164.033-.06.02-.118.047-.167.09-.042.035-.081.08-.133.092l-.008.002c-.04.006-.079-.01-.119-.015-.132-.014-.193.122-.298.18-.069.038-.148.057-.225.052-.043-.002-.086-.012-.127-.029-.06-.026-.118-.067-.183-.07-.046-.003-.09.013-.135.023-.05.01-.104.01-.155-.002-.097-.021-.186-.081-.23-.177-.016-.036-.028-.078-.06-.101-.035-.025-.085-.015-.118.013-.01.008-.019.017-.026.027-.02.024-.036.054-.051.082-.076.142-.155.284-.259.402-.105.118-.238.212-.387.239-.046.008-.094.01-.139.027-.03.012-.057.03-.084.049-.032.022-.066.045-.098.07-.077.058-.146.127-.185.218l-.009.022c-.008.024-.016.047-.028.07-.04.076-.118.12-.168.19-.06.086-.072.201-.067.31.005.092.033.161-.01.241-.082.151-.202.27-.333.374-.048.039-.097.075-.147.11-.049.036-.099.071-.15.102-.079.047-.16.085-.248.1-.086.016-.18.011-.255.06-.039.025-.068.061-.093.102-.078.13-.113.309-.246.358-.03.01-.064.013-.095.024l-.033.014c-.083.045-.136.142-.181.232l-.023.047c-.114.227-.24.46-.448.582-.033.02-.068.036-.096.064-.034.035-.051.084-.069.13-.021.056-.044.112-.068.167l-.044.098c-.035.07-.075.145-.143.177l-.022.01c-.012.004-.023.01-.032.018-.014.013-.022.032-.03.05-.04.103-.064.194-.077.298l-.007.076c.053.096.1.196.142.298.01.023.019.047.018.072 0 .029-.014.055-.027.08-.047.087-.104.183-.086.283.003.02.01.038.017.056l.024.06c.047.127.038.268.026.404l-.007.06c-.004.03-.01.057-.023.084-.018.04-.047.072-.073.106-.087.112-.145.252-.164.398l-.005.04c-.006.057-.013.114-.04.162-.017.03-.04.053-.063.076l-.026.026c-.053.055-.097.12-.14.184-.019.029-.038.058-.044.093-.006.035.013.072.022.091l.016.031.04.082c.024.045.047.093.046.144 0 .041-.016.08-.026.12-.032.126-.004.263-.026.392-.003.014 0 .03 0 .047 0 .014.005.026.013.038.02.03.056.052.07.065.034.033.07.066.11.089.013.008.026.018.038.03.025.022.048.047.077.064.014.008.03.015.042.027.012.012.019.03.026.045.033.076.088.142.12.216l.021.026c.031.039.058.082.077.13.043.046.07.122.124.165.022.017.047.029.07.044l.034.03c.044.044.074.102.102.16.035.07.087.133.119.203l.012.031c.026.079.025.165.029.25.003.077.011.153.048.222.048.088.137.14.215.197.08.058.151.126.223.193.067.062.135.123.208.174l.044.03c.04.026.08.052.116.083.084.072.145.172.233.236l.006.005c.042.03.073.077.11.113.059.056.106.117.172.163.014.01.029.017.044.024.017.009.034.018.05.03.017.016.031.036.049.052.027.025.06.04.094.053.057.02.112.028.166.026.125-.005.244-.06.367-.112.189-.079.385-.146.588-.165.224-.02.449.018.668.07l.01.003c.014.004.029.008.041.017.016.01.028.027.041.041.049.05.121.067.189.06.067-.008.13-.036.193-.064l.532-.237c.023-.01.047-.021.071-.027.025-.007.05-.008.076-.012.07-.01.136-.037.196-.077l.002-.002c.045-.03.095-.07.149-.053.013.004.069-.003.117-.01l.019-.003c.093-.014.228-.004.259-.02.016-.007.033-.016.05-.02.02-.005.039-.006.057.002.019.008.029-.003.048.006.066.029.065 0 .135-.02.01-.003.07-.011.079-.006.018.01.123.034.15.052.017.01.079.04.085.042.069.02.122.066.161.091.043.028.078.067.105.113.026.045.05.093.064.145.012.046.016.094.03.138.045.146.205.226.346.204.096-.015.186-.068.283-.073.064-.002.128.016.192.014.037-.002.076-.012.107-.033.034-.024.078-.024.115-.006h.002c.038.02.082.035.105.071.012.018.017.04.025.06.024.059.075.104.133.118.034.009.074.01.096.038.017.022.017.053.02.081.014.122.08.18.064.31l-.03.247-.003.017c-.011.086-.027.177-.084.239-.028.032-.07.067-.057.109.006.02.022.032.035.047l.004.003c.045.053.036.138.011.205-.025.067-.063.13-.071.2-.008.068.011.14-.017.201-.015.032-.04.054-.07.07-.05.029-.072.09-.048.143.098.22.206.437.37.603.056.058.12.108.174.168.04.044.077.092.114.14l.158.21.171.228c.028.038.056.076.074.12l.005.016c.019.057.02.12.026.182.003.034.008.067.015.1.008.04.018.08.032.119l.013.037c.039.108.088.212.146.311l.045.072c-.002-.015.076.152.117.25.023.054.045.11.05.168.008.101-.038.198-.052.298-.017.118.013.243.08.338.026.039.059.072.084.111.107.167.067.392.022.59-.018.08-.045.173-.116.206-.037.017-.085.016-.11.05-.017.024-.019.055-.027.082-.021.07-.086.114-.127.175-.043.063-.058.144-.072.221l-.059.33c-.015.084-.032.173-.084.239-.02.027-.024.061-.037.094-.022.054-.034.111-.025.169.014.081.026.13.008.208l-.007-.036c.013.085-.007.17-.02.255v.012c-.006.041-.01.082-.006.123.017.19.168.328.272.483.034.052.065.106.093.162.11.216.182.451.308.662l.055.092.134.225c.024.04.048.081.062.127.015.05.017.103.018.155l.012.336c.003.096.007.195.046.282.015.036.037.069.051.105.021.056.024.117.027.177.006.128.013.257.049.378.01.036.023.072.024.109 0 .018-.003.036 0 .054.001.021.01.041.017.06.02.047.039.094.06.14.045.096.098.188.174.257.082.074.173.1.218.199l.007.017.198.534c.034.091.067.183.114.267.082.149.206.28.232.45.013.09-.016.193-.077.245-.03.025-.036.065-.013.095.049.06.084.134.102.212.007.028.011.057.026.082.012.019.03.033.047.047l.23.185c.047.037.099.077.158.078l.012-.001c.041-.004.078-.025.114-.05.057-.041.113-.091.18-.092.05 0 .098.028.149.03.134.009.234-.16.369-.159.092.001.186.082.268.036.015-.008.028-.02.044-.028.034-.016.073-.004.108.007l.133.043c.041.013.07.02.112.012.018-.004.035-.034.082-.055.046-.021.12-.036.169-.049l.04-.012c.024-.01.05-.015.076-.018.063-.005.13.005.194-.002.052-.005.29-.128.305-.187.032-.028.098-.041.126-.065.164-.137.25-.231.432-.392.105-.094.212-.188.31-.29.049-.051.096-.105.14-.16.022-.03.045-.06.066-.091.063-.094.117-.196.19-.282.075-.09.168-.162.252-.244.194-.194.314-.462.364-.745l.011-.07c.01-.069.015-.139.016-.209 0-.046 0-.093.012-.137.015-.054.053-.092.1-.121.072-.046.17-.07.247-.097.143-.048.282-.112.413-.192.038-.023.076-.048.103-.086.029-.042.04-.095.048-.146.017-.098.028-.197.033-.297.014-.295-.024-.593-.111-.873-.012-.038-.025-.079-.031-.119-.006-.034-.006-.069.005-.102.016-.05.052-.087.087-.122.156-.158.316-.313.478-.464.122-.115.246-.228.372-.34.01-.01.022-.019.033-.028" transform="translate(-1250 -1993) translate(150 1958) translate(960) translate(140 35)"/>
                        <path stroke="#FFF" stroke-width=".6" d="M26.886 28.078c.02-.018.09-.045.16-.073.043-.017.093-.038.14-.055.167-.058.322-.153.456-.274.027-.025.054-.05.08-.077.073-.077.163-.18.226-.293.05-.09.083-.186.076-.28-.013-.186.004-.367.007-.551l.003-.162c.002-.136.005-.273.005-.409.002-.09.004-.182.023-.27.009-.037.02-.074.037-.11.008-.015.016-.03.015-.048-.001-.016-.01-.03-.02-.043l-.026-.034c-.06-.094-.105-.109-.167-.149-.019-.012-.04-.024-.053-.042-.025-.035-.022-.083-.023-.127-.005-.103-.045-.2-.075-.298-.005-.014-.009-.027-.012-.041-.023-.087-.033-.18-.002-.262.007-.02.018-.04.015-.062-.003-.025-.023-.044-.032-.068-.013-.038.006-.08.018-.119.028-.099.004-.214-.063-.289-.023-.027-.053-.05-.073-.08-.007-.011-.014-.024-.018-.038-.009-.032-.003-.067.003-.1.014-.076.023-.157.038-.237.014-.076.035-.15.071-.214.013-.023.028-.046.044-.069.053-.075.112-.149.127-.244.007-.05.002-.105.03-.146l.017-.02c.025-.024.06-.039.082-.066.038-.046.038-.113.042-.174.002-.023.005-.047.011-.07.011-.037.03-.07.063-.084.035-.014.077-.003.11-.023.018-.011.03-.03.043-.045.041-.049.097-.079.145-.12.066-.056.116-.129.16-.207h.001l.063-.112.02-.037c.074-.132.16-.256.25-.374.075-.097.153-.19.234-.28.095-.105.192-.207.29-.307l.188-.19c.03-.03.063-.058.101-.078.057-.03.117-.054.172-.088.07-.043.133-.1.195-.156.032-.03.064-.06.094-.091l.038-.045c.03-.04.057-.083.088-.122.027-.033.058-.063.088-.095.072-.078.133-.166.189-.258.103-.171.187-.358.29-.53.035-.057.073-.114.095-.179.022-.063.029-.131.038-.198.009-.058.019-.116.043-.169.045-.099.095-.193.136-.293.012-.03.023-.059.033-.09.013-.038.025-.077.044-.112.02-.035.045-.065.067-.097.048-.07.08-.15.11-.231.039-.099.077-.2.083-.307.004-.061-.003-.123.002-.183.003-.037.011-.074.02-.11.027-.108.064-.215.028-.317-.007-.019-.016-.037-.022-.057l-.005-.026c-.004-.067.06-.124.052-.19-.05-.03-.106-.046-.163-.046-.018 0-.037.002-.052.014-.017.014-.023.037-.034.056-.028.052-.084.078-.135.1l-.24.102c-.079.034-.173.067-.245.018-.01-.008-.022-.018-.035-.017-.016 0-.027.015-.039.027-.077.08-.206.041-.307.078-.058.022-.106.067-.154.108-.047.04-.095.076-.153.083-.054.006-.107-.015-.16-.031l-.016-.005c-.013-.004-.028-.006-.042-.004-.018.003-.033.014-.047.026l-.006.006c-.08.068-.167.135-.268.148-.084.01-.167-.02-.239-.069-.016-.01-.03-.022-.045-.035-.08-.069-.184-.179-.228-.294-.048.062-.09.132-.13.2l-.014.024c-.006 0-.012-.002-.018-.004-.031-.006-.063-.007-.095-.007-.023 0-.048 0-.07.008-.025.01-.045.03-.069.042-.019.009-.04.012-.06.01-.005 0-.01-.002-.013-.005-.004-.004-.004-.01-.005-.015l-.02-.214c-.002-.01-.003-.022-.003-.033-.003-.04 0-.081.023-.112.019-.026.049-.039.07-.062.035-.034.047-.086.064-.133l.022-.046c.02.013.042.023.064.029l.01.002.012.002h.015c.01 0 .02 0 .029-.002.026-.046.062-.083.105-.109-.035-.033-.077-.057-.116-.086-.033-.026-.064-.056-.095-.086-.021-.02-.043-.042-.058-.07-.01-.02-.017-.041-.028-.06-.004-.008-.009-.014-.014-.02-.024-.03-.058-.052-.09-.073-.095-.063-.18-.143-.249-.236-.018-.024-.036-.049-.057-.07l-.018-.016c-.028-.022-.062-.034-.096-.046l-.152-.052c-.025-.01-.05-.018-.075-.03-.027-.015-.051-.034-.078-.05-.07-.045-.149-.086-.178-.175-.011-.033-.015-.069-.027-.102v-.002c-.018-.052-.054-.095-.076-.145-.034-.076-.037-.164-.054-.246-.009-.044-.021-.086-.045-.124-.018-.028-.041-.053-.059-.083-.025-.041-.036-.093-.065-.131-.04-.053-.107-.062-.157-.1-.028-.022-.049-.053-.072-.08-.014-.016-.028-.031-.044-.045-.025-.024-.051-.045-.08-.064-.02-.013-.042-.025-.056-.046-.017-.025-.02-.057-.025-.087-.01-.054-.029-.105-.046-.157l-.005-.016c-.042-.133-.065-.274-.065-.414 0-.105.016-.226-.067-.305l-.032-.028c-.007-.006-.014-.014-.019-.022-.027-.048 0-.115-.024-.165-.008-.016-.021-.029-.035-.04-.073-.065-.156-.114-.233-.172l-.057-.046c-.038-.034-.074-.074-.102-.118-.039-.062-.063-.133-.06-.207.004-.05.02-.106-.004-.15-.014-.029-.041-.046-.065-.065l-.031-.028c-.125-.122-.181-.31-.278-.463-.015-.023-.031-.046-.048-.068-.079-.108-.167-.212-.182-.346-.004-.03-.003-.06-.013-.088-.02-.056-.078-.086-.105-.138l-.01-.021c-.018-.052-.017-.113-.053-.152-.02-.023-.05-.033-.073-.05-.07-.049-.096-.147-.154-.212-.015-.018-.034-.033-.044-.055-.012-.025-.01-.056-.016-.084-.01-.055-.045-.1-.075-.146l-.022-.037c-.023-.044-.031-.105-.013-.148.01-.022.04-.018.046.005.008.032.018.064.03.094.023.056.053.11.09.156.024.033.052.063.067.102.01.025.014.054.025.078.026.054.083.08.126.12.042.038.07.092.11.134.02.022.047.041.074.05.025.01.052.012.077 0 0-.028.002-.062.004-.1.01-.179.037-.435.07-.569.002-.01.01-.027.018-.04-.02-.054-.03-.114-.05-.168-.036-.095-.09-.18-.124-.278-.018-.05-.037-.099-.06-.145l-.003-.004-.029-.007c-.03.023-.063.04-.097.053-.022.008-.044.015-.066.02-.112.029-.227.04-.342.032-.046-.003-.095-.01-.137-.032-.013-.006-.025-.013-.037-.022-.024-.019-.044-.043-.068-.062-.066-.052-.155-.057-.233-.034-.079.022-.149.07-.218.116l-.238.162c-.027.019-.055.037-.087.042-.027.005-.055-.002-.081-.01l-.028-.008c-.159-.052-.307-.147-.471-.164l-.058-.003c-.051-.002-.102-.002-.152-.015-.036-.01-.07-.026-.104-.037-.102-.032-.212-.015-.317.002-.01-.039-.022-.064-.038-.081-.022-.024-.052-.03-.1-.031h-.001c-.08-.001-.162-.023-.234-.058-.033-.016-.065-.035-.1-.042-.05-.011-.108 0-.146-.036-.02-.02-.03-.047-.044-.073l-.01-.02c-.037-.054-.103-.072-.163-.086-.078-.019-.159-.037-.236-.016-.039.01-.075.03-.114.04-.042.01-.086.009-.128.02-.029.008-.054.022-.078.039-.061.045-.109.115-.152.181-.028.044-.058.092-.057.146.002.064.046.119.052.183.004.049-.016.097-.042.137-.1.153-.3.217-.46.146-.025-.011-.05-.026-.073-.042-.056-.038-.108-.085-.165-.123-.075-.052-.159-.088-.246-.107-.03-.007-.063-.01-.095-.013-.068-.005-.137-.009-.197-.04-.072-.035-.118-.082-.152-.171-.03-.077-.021-.176-.08-.23-.044-.038-.106-.035-.161-.041l-.016-.003c-.142-.022-.275-.112-.418-.105-.05.002-.1.016-.149.016-.04 0-.08-.011-.117-.025-.031-.012-.062-.026-.092-.04l-.15-.071-.031-.015c-.027-.013-.054-.026-.072-.05-.016-.022-.023-.05-.038-.074-.043-.065-.137-.067-.205-.096-.032-.014-.058-.033-.07-.068-.021-.053.007-.115.046-.155l.014-.014c.037-.032.08-.055.116-.087.076-.068.12-.176.117-.283-.001-.019-.003-.038-.01-.055-.01-.025-.03-.044-.05-.062-.027-.025-.055-.05-.071-.084-.016-.034-.018-.08.006-.107.016-.018.038-.026.058-.036.064-.033.111-.1.124-.174.005-.026.003-.058-.018-.072-.053-.035-.098.098-.157.077-.034-.012-.035-.063-.056-.094-.022-.032-.062-.04-.098-.046h-.002c-.082-.013-.168-.024-.244.011-.03.014-.055.034-.083.05-.017.01-.036.019-.057.026-.097.036-.226.045-.305-.01-.037-.027-.072-.066-.115-.06-.048.008-.078.069-.125.071-.032.002-.06-.024-.091-.027-.017-.001-.035.004-.051.009l-.026.008-.218.067c-.02.006-.042.012-.062.006-.012-.005-.023-.013-.033-.021-.02-.016-.042-.029-.065-.04-.09-.041-.193-.048-.292-.038-.123.013-.243.05-.366.064-.118.015-.237.009-.354.02-.055.006-.11.016-.164.033-.06.02-.118.047-.167.09-.042.035-.081.08-.133.092l-.008.002c-.04.006-.079-.01-.119-.015-.132-.014-.193.122-.298.18-.069.038-.148.057-.225.052-.043-.002-.086-.012-.127-.029-.06-.026-.118-.067-.183-.07-.046-.003-.09.013-.135.023-.05.01-.104.01-.155-.002-.097-.021-.186-.081-.23-.177-.016-.036-.028-.078-.06-.101-.035-.025-.085-.015-.118.013-.01.008-.019.017-.026.027-.02.024-.036.054-.051.082-.076.142-.155.284-.259.402-.105.118-.238.212-.387.239-.046.008-.094.01-.139.027-.03.012-.057.03-.084.049-.032.022-.066.045-.098.07-.077.058-.146.127-.185.218l-.009.022c-.008.024-.016.047-.028.07-.04.076-.118.12-.168.19-.06.086-.072.201-.067.31.005.092.033.161-.01.241-.082.151-.202.27-.333.374-.048.039-.097.075-.147.11-.049.036-.099.071-.15.102-.079.047-.16.085-.248.1-.086.016-.18.011-.255.06-.039.025-.068.061-.093.102-.078.13-.113.309-.246.358-.03.01-.064.013-.095.024l-.033.014c-.083.045-.136.142-.181.232l-.023.047c-.114.227-.24.46-.448.582-.033.02-.068.036-.096.064-.034.035-.051.084-.069.13-.021.056-.044.112-.068.167l-.044.098c-.035.07-.075.145-.143.177l-.022.01c-.012.004-.023.01-.032.018-.014.013-.022.032-.03.05-.04.103-.064.194-.077.298l-.007.076c.053.096.1.196.142.298.01.023.019.047.018.072 0 .029-.014.055-.027.08-.047.087-.104.183-.086.283.003.02.01.038.017.056l.024.06c.047.127.038.268.026.404l-.007.06c-.004.03-.01.057-.023.084-.018.04-.047.072-.073.106-.087.112-.145.252-.164.398l-.005.04c-.006.057-.013.114-.04.162-.017.03-.04.053-.063.076l-.026.026c-.053.055-.097.12-.14.184-.019.029-.038.058-.044.093-.006.035.013.072.022.091l.016.031.04.082c.024.045.047.093.046.144 0 .041-.016.08-.026.12-.032.126-.004.263-.026.392-.003.014 0 .03 0 .047 0 .014.005.026.013.038.02.03.056.052.07.065.034.033.07.066.11.089.013.008.026.018.038.03.025.022.048.047.077.064.014.008.03.015.042.027.012.012.019.03.026.045.033.076.088.142.12.216l.021.026c.031.039.058.082.077.13.043.046.07.122.124.165.022.017.047.029.07.044l.034.03c.044.044.074.102.102.16.035.07.087.133.119.203l.012.031c.026.079.025.165.029.25.003.077.011.153.048.222.048.088.137.14.215.197.08.058.151.126.223.193.067.062.135.123.208.174l.044.03c.04.026.08.052.116.083.084.072.145.172.233.236l.006.005c.042.03.073.077.11.113.059.056.106.117.172.163.014.01.029.017.044.024.017.009.034.018.05.03.017.016.031.036.049.052.027.025.06.04.094.053.057.02.112.028.166.026.125-.005.244-.06.367-.112.189-.079.385-.146.588-.165.224-.02.449.018.668.07l.01.003c.014.004.029.008.041.017.016.01.028.027.041.041.049.05.121.067.189.06.067-.008.13-.036.193-.064l.532-.237c.023-.01.047-.021.071-.027.025-.007.05-.008.076-.012.07-.01.136-.037.196-.077l.002-.002c.045-.03.095-.07.149-.053.013.004.069-.003.117-.01l.019-.003c.093-.014.228-.004.259-.02.016-.007.033-.016.05-.02.02-.005.039-.006.057.002.019.008.029-.003.048.006.066.029.065 0 .135-.02.01-.003.07-.011.079-.006.018.01.123.034.15.052.017.01.079.04.085.042.069.02.122.066.161.091.043.028.078.067.105.113.026.045.05.093.064.145.012.046.016.094.03.138.045.146.205.226.346.204.096-.015.186-.068.283-.073.064-.002.128.016.192.014.037-.002.076-.012.107-.033.034-.024.078-.024.115-.006h.002c.038.02.082.035.105.071.012.018.017.04.025.06.024.059.075.104.133.118.034.009.074.01.096.038.017.022.017.053.02.081.014.122.08.18.064.31l-.03.247-.003.017c-.011.086-.027.177-.084.239-.028.032-.07.067-.057.109.006.02.022.032.035.047l.004.003c.045.053.036.138.011.205-.025.067-.063.13-.071.2-.008.068.011.14-.017.201-.015.032-.04.054-.07.07-.05.029-.072.09-.048.143.098.22.206.437.37.603.056.058.12.108.174.168.04.044.077.092.114.14l.158.21.171.228c.028.038.056.076.074.12l.005.016c.019.057.02.12.026.182.003.034.008.067.015.1h0c.008.04.018.08.032.119l.013.037c.039.108.088.212.146.311l.045.072c-.002-.015.076.152.117.25.023.054.045.11.05.168.008.101-.038.198-.052.298-.017.118.013.243.08.338.026.039.059.072.084.111.107.167.067.392.022.59-.018.08-.045.173-.116.206-.037.017-.085.016-.11.05-.017.024-.019.055-.027.082-.021.07-.086.114-.127.175-.043.063-.058.144-.072.221l-.059.33c-.015.084-.032.173-.084.239-.02.027-.024.061-.037.094-.022.054-.034.111-.025.169.014.081.026.13.008.208l-.007-.036c.013.085-.007.17-.02.255v.012c-.006.041-.01.082-.006.123.017.19.168.328.272.483.034.052.065.106.093.162.11.216.182.451.308.662l.055.092.134.225c.024.04.048.081.062.127.015.05.017.103.018.155l.012.336c.003.096.007.195.046.282.015.036.037.069.051.105.021.056.024.117.027.177.006.128.013.257.049.378.01.036.023.072.024.109 0 .018-.003.036 0 .054.001.021.01.041.017.06.02.047.039.094.06.14.045.096.098.188.174.257.082.074.173.1.218.199l.007.017.198.534c.034.091.067.183.114.267.082.149.206.28.232.45.013.09-.016.193-.077.245-.03.025-.036.065-.013.095.049.06.084.134.102.212.007.028.011.057.026.082.012.019.03.033.047.047l.23.185c.047.037.099.077.158.078l.012-.001c.041-.004.078-.025.114-.05.057-.041.113-.091.18-.092.05 0 .098.028.149.03.134.009.234-.16.369-.159.092.001.186.082.268.036.015-.008.028-.02.044-.028.034-.016.073-.004.108.007l.133.043c.041.013.07.02.112.012.018-.004.035-.034.082-.055.046-.021.12-.036.169-.049l.04-.012c.024-.01.05-.015.076-.018.063-.005.13.005.194-.002.052-.005.29-.128.305-.187.032-.028.098-.041.126-.065.164-.137.25-.231.432-.392.105-.094.212-.188.31-.29.049-.051.096-.105.14-.16.022-.03.045-.06.066-.091.063-.094.117-.196.19-.282.075-.09.168-.162.252-.244.194-.194.314-.462.364-.745l.011-.07c.01-.069.015-.139.016-.209 0-.046 0-.093.012-.137.015-.054.053-.092.1-.121.072-.046.17-.07.247-.097.143-.048.282-.112.413-.192.038-.023.076-.048.103-.086.029-.042.04-.095.048-.146.017-.098.028-.197.033-.297.014-.295-.024-.593-.111-.873-.012-.038-.025-.079-.031-.119-.006-.034-.006-.069.005-.102.016-.05.052-.087.087-.122.156-.158.316-.313.478-.464.122-.115.246-.228.372-.34.01-.01.022-.019.033-.028z" transform="translate(-1250 -1993) translate(150 1958) translate(960) translate(140 35)"/>
                    </g>
                </g>
            </g>
        </g>
    </g>
</svg>
