<svg xmlns="http://www.w3.org/2000/svg" width="20" height="19" viewBox="0 0 20 19">
    <g fill="none" fill-rule="evenodd">
        <g fill="#FFF">
            <g>
                <path d="M9.433 1.111c-4.589 0-8.322 3.733-8.322 8.322 0 4.588 3.733 8.32 8.322 8.32 4.588 0 8.321-3.732 8.321-8.32 0-4.589-3.733-8.322-8.321-8.322m0 17.754C4.23 18.865 0 14.634 0 9.433 0 4.23 4.231 0 9.433 0c5.2 0 9.432 4.231 9.432 9.433 0 5.2-4.231 9.432-9.432 9.432" transform="translate(-1271.000000, -53.000000) translate(1271.250000, 53.000000)"/>
                <path d="M9.433 1.111c-2.306 0-4.255 3.811-4.255 8.322 0 4.51 1.949 8.32 4.255 8.32s4.254-3.81 4.254-8.32S11.739 1.11 9.433 1.11m0 17.754c-3.01 0-5.366-4.143-5.366-9.432C4.067 4.143 6.424 0 9.433 0c3.008 0 5.365 4.143 5.365 9.433 0 5.289-2.357 9.432-5.365 9.432" transform="translate(-1271.000000, -53.000000) translate(1271.250000, 53.000000)"/>
                <path d="M16.022 15.936c-.132 0-.266-.047-.372-.143-1.428-1.29-3.753-2.06-6.217-2.06-2.465 0-4.79.77-6.217 2.06-.228.206-.58.188-.785-.04-.206-.228-.188-.58.04-.785 1.65-1.492 4.188-2.347 6.962-2.347 2.773 0 5.31.855 6.962 2.347.228.206.246.557.04.785-.11.121-.261.183-.413.183M9.433 6.245c-2.774 0-5.311-.856-6.963-2.348-.227-.206-.245-.557-.04-.785.206-.227.558-.245.785-.04 1.429 1.29 3.753 2.061 6.218 2.061s4.789-.77 6.217-2.06c.228-.206.58-.188.785.04.206.227.188.578-.04.784-1.651 1.492-4.189 2.348-6.962 2.348M18.31 9.988H.556C.249 9.988 0 9.74 0 9.433c0-.307.249-.556.556-.556H18.31c.307 0 .555.249.555.556 0 .307-.248.555-.555.555" transform="translate(-1271.000000, -53.000000) translate(1271.250000, 53.000000)"/>
                <path d="M9.433 18.865c-.307 0-.556-.249-.556-.555V.556c0-.307.249-.556.556-.556.307 0 .555.249.555.556V18.31c0 .306-.248.555-.555.555" transform="translate(-1271.000000, -53.000000) translate(1271.250000, 53.000000)"/>
            </g>
        </g>
    </g>
</svg>
