<svg xmlns="http://www.w3.org/2000/svg" width="30" height="33" viewBox="0 0 30 33">
    <g fill="none" fill-rule="evenodd">
        <g>
            <g>
                <g>
                    <g>
                        <g>
                            <path fill="#18191A" d="M15.027.197h-.257C6.613.197 0 6.623 0 14.553v.363c0 5.454 3.13 10.2 7.74 12.63-.11.52-.46 1.335-1.003 2.045-.625.817-1.412 1.769-1.776 2.144-.36.376-.033.547 1.052.275 1.085-.275 3.36-1.126 5.063-2.08.764-.428 1.21-.674 1.525-.83.71.103 1.43.172 2.169.172h.257c8.156 0 14.77-6.428 14.77-14.356v-.363c0-7.93-6.614-14.356-14.77-14.356" transform="translate(-1021 -709) translate(149 480) translate(1 178) translate(871 50) translate(0 1)"/>
                            <path fill="#F1F1F1" d="M23.71 13.119c-.496-.522-1.228-.787-2.176-.787-.526 0-1.007.113-1.428.335-.315.166-.59.365-.817.59V8.993h-2.064v11.303h2.048v-4.221c0-.351.05-.668.148-.944.096-.272.229-.507.394-.694.162-.187.356-.331.572-.43.216-.1.45-.15.692-.15.423 0 .752.112.981.333.228.22.344.63.344 1.217v4.89h2.049v-4.81c0-1.05-.25-1.848-.743-2.367M10.25 11.341c1.437 0 2.665.905 3.155 2.181h2.201c-.555-2.468-2.742-4.31-5.357-4.31-3.035 0-5.495 2.481-5.495 5.542 0 3.06 2.46 5.542 5.495 5.542 2.615 0 4.802-1.843 5.357-4.311h-2.201c-.49 1.276-1.718 2.181-3.156 2.181-1.868 0-3.383-1.528-3.383-3.412 0-1.886 1.515-3.413 3.383-3.413" transform="translate(-1021 -709) translate(149 480) translate(1 178) translate(871 50) translate(0 1)"/>
                        </g>
                    </g>
                </g>
            </g>
        </g>
    </g>
</svg>
