<svg xmlns="http://www.w3.org/2000/svg" width="30" height="30" viewBox="0 0 30 30">
    <g fill="none" fill-rule="evenodd">
        <g>
            <g>
                <g>
                    <g>
                        <g transform="translate(-412 -713) translate(149 480) translate(1 178) translate(241 51) translate(21 4)">
                            <circle cx="15" cy="15" r="15" fill="#18191A"/>
                            <g fill="#F8F8F8">
                                <path d="M.83 1.173c-.667.736-.903 1.668-.811 2.69-.395 4.091 6.087 10.51 10.322 10.12 1.341.111 2.54-.3 3.382-1.447.382-.747.294-1.188.175-1.414-.348-.66-2.641-1.38-3.39-1.671-.444-.173-1.441.458-1.715.806-.274.349-.751.105-.751.105-1.075-.513-3.93-3.51-4.363-4.583 0 0-.208-.475.182-.702.39-.227 1.145-1.113 1.009-1.55C4.732 3.088 3.637.31 3.637.31s-.373-.6-1.68-.134c0 0-.579.31-1.127.996" transform="translate(7.794 7.524)"/>
                            </g>
                        </g>
                    </g>
                </g>
            </g>
        </g>
    </g>
</svg>
