<?xml version="1.0" encoding="UTF-8" standalone="no"?>
<svg width="50px" height="45px" viewBox="0 0 50 45" version="1.1" xmlns="http://www.w3.org/2000/svg" xmlns:xlink="http://www.w3.org/1999/xlink">
    <!-- Generator: Sketch 39.1 (31720) - http://www.bohemiancoding.com/sketch -->
    <title>Alert black icon</title>
    <desc>Created with Sketch.</desc>
    <defs></defs>
    <g id="Symbols" stroke="none" stroke-width="1" fill="none" fill-rule="evenodd">
        <g id="HOLD" transform="translate(-20.000000, -30.000000)" fill="#44433d">
            <g id="Body">
                <path d="M39.8907099,33.5895656 C42.6349633,28.7942733 47.0967392,28.7751871 49.8645023,33.5610053 L68.8248679,66.3459155 C71.5889878,71.1254344 69.3549976,75 63.8229948,75 L26.1990706,75 C20.6724924,75 18.4179366,71.110963 21.161226,66.3173552 L39.8907099,33.5895656 Z M42.208053,34.3712996 C43.6991153,31.7213006 46.1263687,31.7160165 47.6244185,34.350604 L66.5945207,67.7129076 C68.0948345,70.3514767 66.8534248,72.4904596 63.8124655,72.4904596 L26.2583414,72.4904596 C23.2215409,72.4904596 21.9654993,70.3474951 23.4595348,67.6922119 L42.208053,34.3712996 Z M43.6378875,44.0503726 C43.6378875,43.3632343 44.1928911,42.8061987 44.8882763,42.8061987 C45.5788469,42.8061987 46.138665,43.3684541 46.138665,44.0621927 L46.138665,49.907883 L46.138665,58.4680368 C46.138665,59.1629444 45.5836614,59.7262783 44.8882763,59.7262783 C44.1977056,59.7262783 43.6378875,59.163317 43.6378875,58.4821045 L43.6378875,44.0503726 Z M43.6378875,63.3776081 C43.6378875,62.6883854 44.1928911,62.12966 44.8882763,62.12966 C45.5788469,62.12966 46.138665,62.685484 46.138665,63.3776081 L46.138665,66.9046088 C46.138665,67.5938316 45.5836614,68.152557 44.8882763,68.152557 C44.1977056,68.152557 43.6378875,67.596733 43.6378875,66.9046088 L43.6378875,63.3776081 Z" id="Alert-icon"></path>
            </g>
        </g>
    </g>
</svg>