<svg xmlns="http://www.w3.org/2000/svg" width="42" height="42" viewBox="0 0 42 42">
    <g fill="none" fill-rule="evenodd">
        <g>
            <g>
                <g>
                    <g>
                        <g transform="translate(-1355 -2133) translate(150 1958) translate(960) translate(35 175) translate(210)">
                            <rect width="41" height="41" x=".5" y=".5" fill="#FFF" stroke="#CCC" rx="8"/>
                            <path fill="#18191A" d="M24.561 24.271c0 .345-.145.543-.513.543h-6.083c-.447 0-.526-.265-.526-.635v-9.335c0-.556.092-.649.644-.649h1.16c.54 0 .645.106.645.65v6.792c0 .118.012.224 0 .344-.04.304.092.384.381.384h3.62c.567 0 .672.106.672.688v1.218zm6.517-14.657c-.592-.225-1.185-.41-1.79-.57-3.898-.992-7.86-1.284-11.863-.846-2.198.238-4.357.622-6.438 1.403-.75.278-.987.635-.987 1.417v12.101c0 .41.052.835.132 1.245.395 1.933 1.474 3.456 2.87 4.78 2.04 1.946 4.45 3.297 7.03 4.395.46.199.922.411 1.435.199 3.002-1.231 5.806-2.767 8.07-5.164 1.423-1.509 2.436-3.257 2.45-5.388L32 10.952c0-.662-.303-1.1-.922-1.338z"/>
                        </g>
                    </g>
                </g>
            </g>
        </g>
    </g>
</svg>
