<svg xmlns="http://www.w3.org/2000/svg" width="42" height="42" viewBox="0 0 42 42">
    <g fill="none" fill-rule="evenodd">
        <g>
            <g>
                <g transform="translate(-379 -1401) translate(150 1226) translate(229 175)">
                    <rect width="41" height="41" x=".5" y=".5" fill="#FFF" stroke="#CCC" rx="8"/>
                    <path fill="#000" d="M18.607 31.747c3.65 0 6.608-2.958 6.608-6.607V16.2c1.072 1.639 2.899 2.626 4.857 2.626.179-.001.357-.01.535-.027h.003V15.18c-2.801-.205-5.054-2.387-5.347-5.18h-3.115l-.033 15.183c0 1.863-1.645 3.33-3.508 3.33-1.862 0-3.372-1.51-3.372-3.372 0-1.862 1.51-3.372 3.372-3.372.14 0 .273.025.409.04v-3.255c-.136-.009-.27-.021-.409-.021-3.649 0-6.607 2.958-6.607 6.607 0 3.65 2.958 6.607 6.607 6.607"/>
                </g>
            </g>
        </g>
    </g>
</svg>
