<svg xmlns="http://www.w3.org/2000/svg" width="42" height="42" viewBox="0 0 42 42">
    <g fill="none" fill-rule="evenodd">
        <g>
            <g>
                <g>
                    <g>
                        <g transform="translate(-1215 -2133) translate(150 1958) translate(960) translate(35 175) translate(70)">
                            <rect width="41" height="41" x=".5" y=".5" fill="#FFF" stroke="#CCC" rx="8"/>
                            <g fill="#18191A">
                                <g>
                                    <path d="M22.173 12.604l.004-.068.004-.094.006-.164.002-.095.002-.16V12l-.001-.092c0-.046 0-.09-.002-.136 0-.049-.003-.097-.004-.145l-.004-.1-.01-.178-.004-.06c-.005-.071-.01-.142-.017-.212l-.002-.021c-.476-5.225-4.87-9.318-10.218-9.318C6.26 1.738 1.666 6.333 1.666 12c0 2.31.763 4.442 2.052 6.157l-.01.045-.247 1.116-.08.362-.486 2.2 2.15-.676.718-.225.776-.245c1.567.97 3.413 1.53 5.39 1.53 5.464 0 9.931-4.274 10.244-9.66m-2.147-9.416c4.865 4.459 5.194 12.02.735 16.886-3.838 4.188-9.974 5.014-14.711 2.32l-.943.297L.951 24l.944-4.254.213-.965C-.988 14.296-.699 8.111 3.14 3.924 7.6-.942 15.16-1.271 20.026 3.188" transform="translate(10 8) translate(0 .463)"/>
                                </g>
                                <path d="M6.964 7.544c-.54.624-.73 1.414-.656 2.282-.32 3.47 4.92 8.915 8.345 8.585 1.084.094 2.053-.254 2.734-1.228.309-.633.238-1.008.141-1.2-.281-.559-2.135-1.17-2.74-1.417-.359-.146-1.165.389-1.387.684-.221.296-.607.09-.607.09-.87-.436-3.176-2.979-3.526-3.889 0 0-.169-.403.147-.596.315-.192.925-.944.815-1.315-.111-.372-.997-2.728-.997-2.728s-.3-.508-1.358-.114c0 0-.468.264-.91.846" transform="translate(10 8)"/>
                            </g>
                        </g>
                    </g>
                </g>
            </g>
        </g>
    </g>
</svg>
