<svg xmlns="http://www.w3.org/2000/svg" width="42" height="42" viewBox="0 0 42 42">
    <g fill="none" fill-rule="evenodd">
        <g>
            <g>
                <g>
                    <g>
                        <g transform="translate(-1285 -2133) translate(150 1958) translate(960) translate(35 175) translate(140)">
                            <rect width="41" height="41" x=".5" y=".5" fill="#FFF" stroke="#CCC" rx="8"/>
                            <g fill="#18191A">
                                <path d="M5.338 0h13.253c1.469 0 2.804.6 3.77 1.567.968.967 1.568 2.302 1.568 3.771v13.253c0 1.469-.6 2.804-1.567 3.77-.967.968-2.302 1.568-3.771 1.568H5.338c-1.469 0-2.804-.6-3.77-1.567C.6 21.395 0 20.06 0 18.59V5.338c0-1.469.6-2.804 1.567-3.77C2.534.6 3.87 0 5.338 0m13.253 1.84H5.338c-.96 0-1.835.394-2.47 1.029-.634.634-1.027 1.508-1.027 2.469v13.253c0 .96.393 1.835 1.028 2.47.634.633 1.508 1.027 2.469 1.027h13.253c.96 0 1.835-.394 2.47-1.028.633-.634 1.027-1.508 1.027-2.47V5.339c0-.96-.394-1.835-1.028-2.47-.634-.634-1.508-1.027-2.47-1.027" transform="translate(9 9)"/>
                                <path d="M11.964 5.522c1.78 0 3.39.721 4.556 1.887s1.887 2.776 1.887 4.555c0 1.78-.721 3.39-1.887 4.556s-2.777 1.887-4.556 1.887c-1.778 0-3.39-.721-4.555-1.887-1.166-1.166-1.887-2.777-1.887-4.556s.721-3.39 1.887-4.555c1.166-1.166 2.777-1.887 4.555-1.887m3.254 3.188c-.832-.832-1.983-1.347-3.254-1.347-1.27 0-2.42.515-3.254 1.347-.832.833-1.347 1.984-1.347 3.254 0 1.271.515 2.422 1.347 3.254.833.833 1.984 1.348 3.254 1.348 1.271 0 2.422-.515 3.254-1.348.833-.832 1.348-1.983 1.348-3.254 0-1.27-.515-2.42-1.348-3.254M19.454 3.524c.69 0 1.25.56 1.25 1.25s-.56 1.25-1.25 1.25-1.25-.56-1.25-1.25.56-1.25 1.25-1.25" transform="translate(9 9)"/>
                            </g>
                        </g>
                    </g>
                </g>
            </g>
        </g>
    </g>
</svg>
