<svg xmlns="http://www.w3.org/2000/svg" xmlns:xlink="http://www.w3.org/1999/xlink" width="40" height="40" viewBox="0 0 40 40">
    <defs>
        <path id="10qahycfqa" d="M19.961 0C8.955 0 .031 8.922.031 19.93c0 10.973 8.869 19.876 19.828 19.93h.204c10.96-.054 19.83-8.957 19.83-19.93C39.892 8.923 30.967 0 19.96 0z"/>
    </defs>
    <g fill="none" fill-rule="evenodd">
        <g>
            <g>
                <g>
                    <g transform="translate(-610 -1993) translate(150 1958) translate(320) translate(140 35)">
                        <mask id="3omlw4jvcb" fill="#fff">
                            <use xlink:href="#10qahycfqa"/>
                        </mask>
                        <path fill="#F0F0F0" d="M-10 39.861L4.949 39.861 4.949 0 -10 0z" mask="url(#3omlw4jvcb)"/>
                        <path fill="#47B71D" d="M4.949 39.861L49.793 39.861 49.793 0 4.949 0z" mask="url(#3omlw4jvcb)"/>
                        <path fill="#F4F4F4" d="M23.727 8.538c-4.822 1.542-8.314 6.059-8.314 11.393 0 6.604 5.354 11.958 11.958 11.958 4.837 0 9.004-2.873 10.886-7.005-.175.18-.357.354-.547.523-4.524 4.022-11.453 3.614-15.475-.91-4.023-4.526-3.615-11.454.91-15.477.19-.169.385-.328.582-.482zm8.005 2.444l1.924 2.165 2.653-1.16-1.465 2.498 1.924 2.164-2.828-.62-1.464 2.5-.285-2.884-2.829-.62 2.654-1.16-.284-2.883z" mask="url(#3omlw4jvcb)"/>
                    </g>
                </g>
            </g>
        </g>
    </g>
</svg>
