<svg xmlns="http://www.w3.org/2000/svg" xmlns:xlink="http://www.w3.org/1999/xlink" width="40" height="40" viewBox="0 0 40 40">
    <defs>
        <path id="rnfsbiomqa" d="M20 0C8.955 0 0 8.955 0 20s8.955 20 20 20 20-8.955 20-20S31.045 0 20 0z"/>
    </defs>
    <g fill="none" fill-rule="evenodd">
        <g>
            <g>
                <g>
                    <g transform="translate(-930 -1993) translate(150 1958) translate(640) translate(140 35)">
                        <mask id="rz896yk94b" fill="#fff">
                            <use xlink:href="#rnfsbiomqa"/>
                        </mask>
                        <path fill="#F0F0F0" d="M-9.333 26.575L49.995 26.575 49.995 13.287 -9.333 13.287z" mask="url(#rz896yk94b)"/>
                        <path fill="#F39229" d="M-9.333 13.287L49.997 13.287 49.997 0 -9.333 0z" mask="url(#rz896yk94b)"/>
                        <path fill="#47B71D" d="M-9.333 39.862L49.997 39.862 49.997 26.575 -9.333 26.575z" mask="url(#rz896yk94b)"/>
                        <path fill="#0437A0" d="M20.331 13.951c1.638 0 3.121.67 4.196 1.752 1.073 1.082 1.737 2.577 1.737 4.228 0 1.65-.664 3.146-1.737 4.228-1.075 1.082-2.558 1.751-4.196 1.751s-3.121-.669-4.195-1.75c-1.074-1.083-1.738-2.579-1.738-4.229s.665-3.146 1.738-4.228c1.074-1.082 2.557-1.752 4.195-1.752zm-.417.763c.016.142-.085.271-.227.291-.142.018-.273-.08-.294-.223-.276.05-.545.125-.804.218.052.134-.012.285-.145.34-.132.055-.283-.005-.341-.138-.253.12-.493.262-.721.42.085.117.061.28-.052.367-.114.088-.275.068-.364-.043-.106.09-.208.185-.308.285-.097.098-.192.201-.281.308.11.09.13.253.042.367-.085.115-.248.138-.362.053-.158.23-.298.473-.418.727.13.057.192.21.137.343-.054.134-.206.199-.34.145-.09.263-.163.533-.214.812.142.022.24.154.22.297-.017.142-.146.243-.288.227-.01.14-.016.28-.016.421 0 .141.005.282.016.42.142-.016.27.086.289.228.019.144-.08.275-.22.297.05.279.122.55.214.811.133-.052.285.012.34.145.054.134-.007.287-.138.345.12.253.26.496.418.726.114-.084.277-.061.362.053.088.113.068.278-.042.368.09.106.184.21.281.308.1.099.202.194.308.285.09-.112.25-.132.364-.044.113.088.137.25.052.367.228.158.468.299.721.419.058-.13.209-.193.34-.137.134.056.198.207.146.34.26.094.528.167.804.217.021-.141.152-.24.294-.221.142.018.243.147.227.29.138.01.276.017.417.017.14 0 .279-.006.418-.017-.017-.143.084-.272.225-.29.143-.02.273.08.295.221.276-.05.546-.123.804-.217-.052-.133.012-.284.145-.34.132-.056.283.006.342.137.252-.12.492-.261.72-.42-.084-.116-.061-.278.052-.366.113-.088.275-.068.364.044.107-.091.208-.186.308-.285.097-.099.191-.202.283-.308-.111-.09-.132-.255-.044-.368.087-.114.248-.137.363-.053.157-.23.297-.473.417-.726-.13-.058-.192-.211-.136-.345.054-.133.205-.197.338-.145.093-.261.164-.532.215-.811-.141-.022-.24-.153-.221-.297.018-.142.147-.244.289-.228.01-.138.016-.279.016-.42 0-.142-.005-.282-.016-.42-.142.015-.27-.086-.29-.228-.018-.143.08-.275.222-.297-.051-.279-.122-.55-.215-.812-.133.054-.284-.01-.338-.145-.056-.133.006-.286.136-.343-.12-.254-.26-.497-.417-.727-.115.085-.276.062-.363-.053-.088-.114-.067-.277.044-.367-.092-.107-.186-.21-.283-.308-.1-.1-.201-.195-.308-.285-.089.111-.25.131-.364.043-.113-.088-.136-.25-.052-.366-.228-.159-.468-.3-.72-.421-.059.133-.21.193-.342.139-.133-.056-.197-.207-.145-.34-.258-.094-.528-.168-.804-.219-.022.143-.152.24-.295.223-.141-.02-.242-.149-.225-.291-.14-.01-.278-.017-.418-.017-.14 0-.279.006-.417.017zm.463 4.18c.06.003.12.011.176.024l.159-1.091.94-2.868-.606 2.958-.404 1.024c.057.018.11.042.163.07l.434-1.013 1.646-2.524-1.347 2.7-.653.882c.05.033.097.068.141.11l.679-.866 2.237-2.009-1.993 2.257-.858.683c.039.043.077.09.107.142l.879-.658 2.677-1.358-2.505 1.66-1.003.436c.026.052.048.108.067.166l1.016-.407 2.935-.613-2.846.949-1.081.16c.012.057.02.116.022.176l1.086-.127 2.993.174-2.993.174-1.086-.127c-.002.06-.01.119-.022.176l1.081.16 2.846.95-2.935-.614-1.016-.406c-.018.058-.041.113-.067.166l1.003.435 2.505 1.66-2.677-1.357-.879-.658c-.03.05-.068.098-.107.141l.858.683 1.993 2.257-2.237-2.01-.679-.864c-.044.04-.09.077-.14.109l.652.884 1.347 2.699-1.646-2.526-.434-1.01c-.052.026-.106.05-.163.068l.404 1.023.606 2.958-.94-2.868-.16-1.09c-.056.013-.114.021-.175.024l.128 1.093-.174 3.017-.173-3.017.127-1.093c-.061-.003-.12-.011-.176-.024l-.159 1.09-.94 2.868.607-2.958.403-1.023c-.056-.018-.11-.04-.163-.069l-.434 1.011-1.646 2.526 1.347-2.699.653-.884c-.05-.032-.097-.069-.142-.11l-.677.864-2.238 2.011 1.994-2.257.857-.683c-.04-.043-.076-.092-.108-.14l-.877.657-2.678 1.356 2.505-1.659 1.004-.435c-.027-.053-.05-.108-.067-.166l-1.017.406-2.935.614 2.845-.95 1.082-.16c-.012-.057-.02-.116-.022-.176l-1.086.127-2.993-.174 2.993-.174 1.086.127c.002-.06.01-.12.022-.177l-1.082-.16-2.845-.948 2.935.613 1.016.407c.018-.058.04-.114.067-.166l-1.003-.437-2.505-1.659 2.678 1.358.877.658c.032-.052.069-.099.108-.142l-.857-.683-1.994-2.257 2.238 2.01.677.864c.045-.04.092-.076.142-.11l-.653-.882-1.347-2.7 1.646 2.525.434 1.013c.052-.028.107-.052.163-.07l-.403-1.024-.607-2.958.94 2.868.159 1.09c.057-.012.115-.02.176-.023l-.127-1.094.173-3.016.174 3.016-.128 1.094z" mask="url(#rz896yk94b)"/>
                    </g>
                </g>
            </g>
        </g>
    </g>
</svg>
