<svg xmlns="http://www.w3.org/2000/svg" xmlns:xlink="http://www.w3.org/1999/xlink" width="40" height="40" viewBox="0 0 40 40">
    <defs>
        <path id="1u9izei60a" d="M0 19.93c0 11.008 8.923 19.93 19.93 19.93 11.008 0 19.932-8.922 19.932-19.93C39.862 8.923 30.938 0 19.931 0 8.923 0 0 8.923 0 19.93z"/>
    </defs>
    <g fill="none" fill-rule="evenodd">
        <g>
            <g>
                <g>
                    <g transform="translate(-930 -1749) translate(150 1714) translate(640) translate(140 35)">
                        <mask id="zofg0fmutb" fill="#fff">
                            <use xlink:href="#1u9izei60a"/>
                        </mask>
                        <path fill="#F0F0F0" d="M0 39.862L39.862 39.862 39.862 0 0 0z" mask="url(#zofg0fmutb)"/>
                        <path fill="#0437A0" d="M0 0L0 39.862 38.785 39.862 14.948 20.384 39.862 20.384z" mask="url(#zofg0fmutb)"/>
                        <path fill="#FF1612" d="M1.661 2.265L1.661 38.503 34.879 38.503 11.389 19.284 34.879 19.284z" mask="url(#zofg0fmutb)"/>
                        <path fill="#F4F4F4" d="M16.593 12.635c.003.062.005.124.005.186 0 3.025-2.998 5.478-6.696 5.478-3.699 0-6.697-2.453-6.697-5.478 0-.062.002-.124.004-.186.471 1.316 1.536 2.432 2.95 3.152l.744-.415-1.242-.687 1.472-.252-.827-1.024 1.478.23-.285-1.206 1.258.675.302-1.203.846 1.017.84-1.017.307 1.205 1.252-.676-.28 1.208 1.473-.232-.824 1.029 1.47.246-1.243.693.742.41c1.414-.72 2.48-1.836 2.951-3.153zM9.966 23.202l1.102 2.147 2.449-1.369-.358 2.311 2.958-.183-1.721 1.854 2.673 1.051-2.625.902 1.673 2.005-2.824-.293.224 2.42-2.266-1.41-1.285 2.189-1.103-2.148-2.449 1.369.358-2.31-2.959.183 1.723-1.855-2.674-1.052 2.625-.901-1.674-2.004 2.825.292-.224-2.42 2.267 1.41 1.285-2.188z" mask="url(#zofg0fmutb)"/>
                    </g>
                </g>
            </g>
        </g>
    </g>
</svg>
