<svg xmlns="http://www.w3.org/2000/svg" xmlns:xlink="http://www.w3.org/1999/xlink" width="40" height="40" viewBox="0 0 40 40">
    <defs>
        <path id="3tbigxynwa" d="M20.07 0C9.148 0 .294 8.924.294 19.932c0 11.006 8.854 19.93 19.776 19.93s19.777-8.924 19.777-19.93C39.847 8.924 30.992 0 20.07 0z"/>
    </defs>
    <g fill="none" fill-rule="evenodd">
        <g>
            <g>
                <g>
                    <g transform="translate(-610 -1749) translate(150 1714) translate(320) translate(140 35)">
                        <mask id="h16vyx4jmb" fill="#fff">
                            <use xlink:href="#3tbigxynwa"/>
                        </mask>
                        <path fill="#FFC703" d="M-4.651 39.863L54.678 39.863 54.678 0 -4.651 0z" mask="url(#h16vyx4jmb)"/>
                        <path fill="#F60" d="M5.612 36.51L13.383 36.51 13.383 2.903 5.612 2.903z" mask="url(#h16vyx4jmb)"/>
                        <path fill="#007A26" d="M-2.159 36.51L5.612 36.51 5.612 2.903 -2.159 2.903z" mask="url(#h16vyx4jmb)"/>
                        <path fill="#C20B18" d="M16.19 36.51L52.191 36.51 52.191 2.903 16.19 2.903z" mask="url(#h16vyx4jmb)"/>
                        <path fill="#FFC703" d="M42.108 25.543c.423.26 1.36.814 1.605 1.27.247.456.258 1.703.03 1.888-.23.185-1.018.285-1.34.487-.286.18-.343.22-.411.353-.008.016-.159.459-.168.477 0 0-.038.046-.028-.01.01-.06.175-.454.175-.474.004-.095-.007-.303-.12-.582-.16-.385-.067-.675.146-.94.212-.264.79-.849.658-1.096-.133-.248-.6-.066-.741-.194-.142-.129-.536-.502.194-1.179m-19.333-3.676c-.311.334.08.561.08.561-.236.418.185.575.185.575s-.008.235-.043.33c-.035.095-.183.013-.24-.039-.057-.05-.207-.1-.318-.02-.112.08-.21.317-.06.479.15.162.419.153.543.144.126-.01.09.107.051.156-.038.05-.159.225-.251.326-.093.102-.015.16.065.267.079.107.168.395.16.636-.005.241-.27.521-.27.521-.082-.16-.245-.267-.305-.277-.06-.01-.354-.05-.344.351.01.402.778.598.778.598s-.288.298-.382.363c-.093.064-.006.107.049.114.055.007.39.061.511.097.12.037.123.259.178.364.054.104.168.234.234.234.067 0 .188-.127.253-.222.063-.096.09-.306.147-.363.056-.057.461-.098.552-.115.09-.019.098-.052.064-.083-.035-.032-.402-.398-.402-.398.552-.097.812-.429.812-.632 0-.205-.192-.361-.403-.33-.21.032-.28.257-.28.257-.152-.1-.285-.268-.304-.502-.018-.232.065-.426.161-.567.095-.14.146-.24.084-.31-.062-.07-.233-.283-.266-.345-.034-.064-.099-.188-.03-.221.069-.034.223.062.332.102.108.04.398-.014.408-.242.01-.23-.192-.324-.317-.34-.125-.015-.362-.001-.362-.001-.017-.044-.074-.137-.074-.137.231-.006.303-.11.303-.11s.041.103.162.118c.12.014.24-.16.24-.16s.108.047.188.134c.079.086.18.16.18.283 0 .125.023.76.02 1.011-.005.253.089.316.189.456.1.141.214.034.225-.067.01-.1.041-.12.119-.18.077-.061.135-.087.213 0 .076.085.756.706 1.135 1.03.38.323.893.029 1.147-.135s.683-.664.683-.664c1.092.832 1.442.753 1.442.753s.448 1.228.556 2c.108.773-.426 1.081-.61 1.167-.183.083-.85.075-1.079.066-.23-.008-.367.005-.521.097-.155.092-.496.416-.592.987-.096.571.721-.037.721-.037.433.654 1.096.003 1.096.003.613.6 1.223.015 1.223.015.38.281.88.286.993.198.112-.089.403-.471.362-.68-.042-.21-.13-.808-.08-.933.05-.127.15-.093.66-.278.507-.184.518-.359.764-.67.245-.31.02-.32-.246-.378-.267-.059-.621-.083-.742-.349-.122-.263.091-.596.225-.83.133-.236.522-.852.522-.852.546-.088 2.21-.89 3.257-1.318 1.046-.428 1.877-.3 1.877-.3-.083.836.41 1.477.781 1.943.372.467.72.98.752 1.338.034.357.07 1.867.07 1.867-.125.235-.488.34-.788.353-.3.012-.754.03-.96.143-.203.113-.665.717-.424.936.242.218.813-.256.813-.256.537.68 1.065.019 1.065.019.616.634 1.07.02 1.07.02.726.584 1.022.105 1.022.105.104.442.779-.117.779-.117.48.655 1.065-.007 1.065-.007.754.703 1.145-.02 1.145-.02.86.596 1.184.156 1.064-.08-.121-.235-.66-.829-.527-1.346.132-.516.703-.768 1-1.167.296-.4-.092-.459-.313-.555-.221-.096-.773-.388-.732-1.733.043-1.343.99-2.75 1.014-4.355.025-1.605-.888-2.659-.888-2.659 1.691-1.36.85-2.865.08-3.326-.773-.461-1.789-.37-2.485-.286-.696.084-1.89.246-2.603.213-.712-.034-.798-.476-.839-.697-.042-.224-.22-.225-.427-.093-.206.132-.44.457-.44.457s-.254-.242-.24-.632c.015-.388.812-.677.812-.677-1.073-.875-1.725.301-1.725.301-.848-.728-.292-1.243-.04-1.409.253-.167.667-.138.769.128.103.267.302.094.417-.104.115-.197.055-.692.055-.692 1.06.065 1.543 1.205.822 2.126.961.086 1.673-.907 1.266-1.886.932.366.962 1.006.454 1.757-.067.1-.041.19.08.181.12-.008.32.005.664-.233.344-.238.445-.587.445-.587.172.333.587.595.735.685.148.09.605.3.69.177.085-.125-.143-.257-.243-.478-.101-.22-.137-.515-.137-.515.216.13 1.26 1.031 1.61 1.313.351.281 1.001.416 1.505.201.504-.214.558-.74.44-1.109-.12-.37-.552-.525-.903-.306-.35.217-.205.646-.205.646-.458-.038-1.19-.729-1.598-1.047-.408-.32-1.232-.953-2.265-1.444-1.033-.491-1.815-.557-2.795-.52-.979.038-1.265.237-1.479.325-.212.088-.491.23-1.05.646-.558.416-.702 1.028-.615 1.658.088.63.731 1.275.731 1.275s-.298.313-.278.745c.021.433.255.693.413.861.159.169.202-.09.248-.398.046-.31.34-.399.623-.307.284.092.978.41 1.72.553.742.144 2.003.07 2.49-.052.488-.122 1.017-.21 1.871-.227.855-.017 1.28.34 1.355.924.075.583-.302.93-.64 1.086-.337.155-.862.331-1.242.399-.379.067-.954.055-1.638.029-.683-.025-1.46.015-1.918.108-.459.092-.955.105-1.672.096-.716-.008-2.228-.066-2.228-.066s-.33-.388-.433-.65c-.104-.262-.085-.565-.085-.565s.274.246.419.153c.146-.092-.122-.54-.179-.76-.056-.222-.016-.404-.016-.404s.115.06.172-.009c.059-.07.052-.65.06-.931.009-.281.066-1.206-.033-1.59-.1-.384-.335-.636-.335-.636s.303-.301.521-.717c.22-.416.2-.91.2-.91-.212.219-.645.584-.92.58-.275-.005-.3-.13-.537-.333-.238-.204-.598-.365-.815-.417-.217-.054-.213.158-.267.333-.053.175-.195.356-.195.356s-.19-.218-.496-.447c-.304-.228-.564-.254-.741-.246-.177.008-.192.238-.183.567.008.33-.33.09-.486-.049-.154-.14-.293-.195-.645-.225-.352-.03-.946.082-.946.082s.124.315.116.436c-.008.122-.192.283-.342.399-.15.115-.388.153-.717.158-.33.008-.53.088-.692.165-.162.078-.597.014-.879.137.104-.941-1.128-1.122-1.316-.376-.14.558.16 1.199.508 1.613.33.39.72.784.807.913.088.127.386.258.494.31.109.053.126.02.12-.016-.007-.036-.01-.384-.01-.384s.292.281.44.355c.148.073.191-.015.212-.15.02-.132.096-.239.096-.239.091.249.764 1.092.764 1.092s-.504-.003-.713-.05c-.208-.045-.966-.243-1.364-.42-.398-.177-1.091-.718-1.28-.35-.186.367.367.719.367.719-.142.031-.216.174-.24.312-.023.139-.205.69-.26.814-.053.125-.125.246.05.242.176-.005.886-.12.946-.132.06-.014.073 0 .044.058-.03.059-.1.236-.133.307-.033.072-.07.147.008.128.077-.019.566-.116.667-.17.103-.051.182-.089.274.039.092.128.256.305.353.3.096-.004.15-.116.182-.3.034-.185.148.107.247.281.098.175.26.389.376.353.117-.036.177-.301.297-.41.121-.11.363-.164.376.196.012.362-.489.395-1.923 1.734-1.434 1.34-1.077 3.59-1.077 3.59l-2.103-2.086s.642-.347.496-.949c-.146-.602-.91-.527-.91-.527s.036-.156.04-.346l.057-2.715c.033-1.588.215-4.181.393-5.593.18-1.41.463-1.54.376-1.6-.088-.058-.48.122-.98.627-.5.503-1.08 1.728-1.264 2.61-.43 2.059-.297 4.909-.269 7.057-.221-.034-.421-.008-.621.093-.2.1-.509.445-.238.933.271.486.944.59.944.59-.253.226-.029.45-.029.45-.45.112-.17.51.024.684" mask="url(#h16vyx4jmb)"/>
                        <path stroke="#000" stroke-width=".5" d="M42.108 25.543c.423.26 1.36.814 1.605 1.27.247.456.258 1.703.03 1.888-.23.185-1.018.285-1.34.487-.286.18-.343.22-.411.353-.008.016-.159.459-.168.477 0 0-.038.046-.028-.01.01-.06.175-.454.175-.474.004-.095-.007-.303-.12-.582-.16-.385-.067-.675.146-.94.212-.264.79-.849.658-1.096-.133-.248-.6-.066-.741-.194-.142-.129-.536-.502.194-1.179zm-19.333-3.676c-.311.334.08.561.08.561-.236.418.185.575.185.575s-.008.235-.043.33c-.035.095-.183.013-.24-.039-.057-.05-.207-.1-.318-.02-.112.08-.21.317-.06.479.15.162.419.153.543.144.126-.01.09.107.051.156-.038.05-.159.225-.251.326-.093.102-.015.16.065.267.079.107.168.395.16.636-.005.241-.27.521-.27.521-.082-.16-.245-.267-.305-.277-.06-.01-.354-.05-.344.351.01.402.778.598.778.598s-.288.298-.382.363c-.093.064-.006.107.049.114.055.007.39.061.511.097.12.037.123.259.178.364.054.104.168.234.234.234.067 0 .188-.127.253-.222.063-.096.09-.306.147-.363.056-.057.461-.098.552-.115.09-.019.098-.052.064-.083-.035-.032-.402-.398-.402-.398.552-.097.812-.429.812-.632 0-.205-.192-.361-.403-.33-.21.032-.28.257-.28.257-.152-.1-.285-.268-.304-.502-.018-.232.065-.426.161-.567.095-.14.146-.24.084-.31-.062-.07-.233-.283-.266-.345-.034-.064-.099-.188-.03-.221.069-.034.223.062.332.102.108.04.398-.014.408-.242.01-.23-.192-.324-.317-.34-.125-.015-.362-.001-.362-.001-.017-.044-.074-.137-.074-.137.231-.006.303-.11.303-.11s.041.103.162.118c.12.014.24-.16.24-.16s.108.047.188.134c.079.086.18.16.18.283 0 .125.023.76.02 1.011-.005.253.089.316.189.456.1.141.214.034.225-.067.01-.1.041-.12.119-.18.077-.061.135-.087.213 0 .076.085.756.706 1.135 1.03.38.323.893.029 1.147-.135s.683-.664.683-.664c1.092.832 1.442.753 1.442.753s.448 1.228.556 2c.108.773-.426 1.081-.61 1.167-.183.083-.85.075-1.079.066-.23-.008-.367.005-.521.097-.155.092-.496.416-.592.987-.096.571.721-.037.721-.037.433.654 1.096.003 1.096.003.613.6 1.223.015 1.223.015.38.281.88.286.993.198.112-.089.403-.471.362-.68-.042-.21-.13-.808-.08-.933.05-.127.15-.093.66-.278.507-.184.518-.359.764-.67.245-.31.02-.32-.246-.378-.267-.059-.621-.083-.742-.349-.122-.263.091-.596.225-.83.133-.236.522-.852.522-.852.546-.088 2.21-.89 3.257-1.318 1.046-.428 1.877-.3 1.877-.3-.083.836.41 1.477.781 1.943.372.467.72.98.752 1.338.034.357.07 1.867.07 1.867-.125.235-.488.34-.788.353-.3.012-.754.03-.96.143-.203.113-.665.717-.424.936.242.218.813-.256.813-.256.537.68 1.065.019 1.065.019.616.634 1.07.02 1.07.02.726.584 1.022.105 1.022.105.104.442.779-.117.779-.117.48.655 1.065-.007 1.065-.007.754.703 1.145-.02 1.145-.02.86.596 1.184.156 1.064-.08-.121-.235-.66-.829-.527-1.346.132-.516.703-.768 1-1.167.296-.4-.092-.459-.313-.555-.221-.096-.773-.388-.732-1.733.043-1.343.99-2.75 1.014-4.355.025-1.605-.888-2.659-.888-2.659 1.691-1.36.85-2.865.08-3.326-.773-.461-1.789-.37-2.485-.286-.696.084-1.89.246-2.603.213-.712-.034-.798-.476-.839-.697-.042-.224-.22-.225-.427-.093-.206.132-.44.457-.44.457s-.254-.242-.24-.632c.015-.388.812-.677.812-.677-1.073-.875-1.725.301-1.725.301-.848-.728-.292-1.243-.04-1.409.253-.167.667-.138.769.128.103.267.302.094.417-.104.115-.197.055-.692.055-.692 1.06.065 1.543 1.205.822 2.126.961.086 1.673-.907 1.266-1.886.932.366.962 1.006.454 1.757-.067.1-.041.19.08.181.12-.008.32.005.664-.233.344-.238.445-.587.445-.587.172.333.587.595.735.685.148.09.605.3.69.177.085-.125-.143-.257-.243-.478-.101-.22-.137-.515-.137-.515.216.13 1.26 1.031 1.61 1.313.351.281 1.001.416 1.505.201.504-.214.558-.74.44-1.109-.12-.37-.552-.525-.903-.306-.35.217-.205.646-.205.646-.458-.038-1.19-.729-1.598-1.047-.408-.32-1.232-.953-2.265-1.444-1.033-.491-1.815-.557-2.795-.52-.979.038-1.265.237-1.479.325-.212.088-.491.23-1.05.646-.558.416-.702 1.028-.615 1.658.088.63.731 1.275.731 1.275s-.298.313-.278.745c.021.433.255.693.413.861.159.169.202-.09.248-.398.046-.31.34-.399.623-.307.284.092.978.41 1.72.553.742.144 2.003.07 2.49-.052.488-.122 1.017-.21 1.871-.227.855-.017 1.28.34 1.355.924.075.583-.302.93-.64 1.086-.337.155-.862.331-1.242.399-.379.067-.954.055-1.638.029-.683-.025-1.46.015-1.918.108-.459.092-.955.105-1.672.096-.716-.008-2.228-.066-2.228-.066s-.33-.388-.433-.65c-.104-.262-.085-.565-.085-.565s.274.246.419.153c.146-.092-.122-.54-.179-.76-.056-.222-.016-.404-.016-.404s.115.06.172-.009c.059-.07.052-.65.06-.931.009-.281.066-1.206-.033-1.59-.1-.384-.335-.636-.335-.636s.303-.301.521-.717c.22-.416.2-.91.2-.91-.212.219-.645.584-.92.58-.275-.005-.3-.13-.537-.333-.238-.204-.598-.365-.815-.417-.217-.054-.213.158-.267.333-.053.175-.195.356-.195.356s-.19-.218-.496-.447c-.304-.228-.564-.254-.741-.246-.177.008-.192.238-.183.567.008.33-.33.09-.486-.049-.154-.14-.293-.195-.645-.225-.352-.03-.946.082-.946.082s.124.315.116.436c-.008.122-.192.283-.342.399-.15.115-.388.153-.717.158-.33.008-.53.088-.692.165-.162.078-.597.014-.879.137.104-.941-1.128-1.122-1.316-.376-.14.558.16 1.199.508 1.613.33.39.72.784.807.913.088.127.386.258.494.31.109.053.126.02.12-.016-.007-.036-.01-.384-.01-.384s.292.281.44.355c.148.073.191-.015.212-.15.02-.132.096-.239.096-.239.091.249.764 1.092.764 1.092s-.504-.003-.713-.05c-.208-.045-.966-.243-1.364-.42-.398-.177-1.091-.718-1.28-.35-.186.367.367.719.367.719-.142.031-.216.174-.24.312-.023.139-.205.69-.26.814-.053.125-.125.246.05.242.176-.005.886-.12.946-.132.06-.014.073 0 .044.058-.03.059-.1.236-.133.307-.033.072-.07.147.008.128.077-.019.566-.116.667-.17.103-.051.182-.089.274.039.092.128.256.305.353.3.096-.004.15-.116.182-.3.034-.185.148.107.247.281.098.175.26.389.376.353.117-.036.177-.301.297-.41.121-.11.363-.164.376.196.012.362-.489.395-1.923 1.734-1.434 1.34-1.077 3.59-1.077 3.59l-2.103-2.086s.642-.347.496-.949c-.146-.602-.91-.527-.91-.527s.036-.156.04-.346l.057-2.715c.033-1.588.215-4.181.393-5.593.18-1.41.463-1.54.376-1.6-.088-.058-.48.122-.98.627-.5.503-1.08 1.728-1.264 2.61-.43 2.059-.297 4.909-.269 7.057-.221-.034-.421-.008-.621.093-.2.1-.509.445-.238.933.271.486.944.59.944.59-.253.226-.029.45-.029.45-.45.112-.17.51.024.684z" mask="url(#h16vyx4jmb)"/>
                        <path fill="#000" d="M35.426 11.848c-.141.09-.373.23-.699.35-.325.12-.744.218-1.265.22v-.067c.511-.002.923-.098 1.243-.215.319-.118.547-.258.686-.344l.035.056zM33.617 12.55l.392.386.044.045-.06.012c-.003 0-.918.191-1.707-.163.044.11.131.303.207.385l.043.047-.063.009c-.001 0-.515.078-1.22-.315-.345-.191-.581-.294-.755-.322-.166-.025-.277.022-.377.13-.04.042-.066.088-.082.135-.025.073-.023.149-.005.22.02.069.057.131.106.178.03.028.065.05.102.063.074.027.186.003.275-.052.04-.024.075-.056.1-.091.022-.034.035-.072.033-.114-.004-.058-.04-.125-.127-.195l.042-.052c.103.083.146.167.151.244.004.057-.014.108-.044.155-.03.043-.072.08-.122.11-.104.064-.237.09-.329.06-.046-.018-.09-.045-.126-.08-.057-.054-.102-.128-.125-.21-.022-.081-.024-.172.006-.258.02-.055.05-.11.095-.16.118-.124.244-.178.437-.148.182.027.425.133.776.328.546.303.97.319 1.12.312-.106-.152-.213-.433-.213-.434l-.03-.08.076.038c.667.334 1.454.242 1.679.205l-.346-.34.047-.048zM30.915 14.549c.013.1.09.226.189.345.115.136.26.26.38.336.069-.075.308-.34.335-.466l.01-.046.04.024c.001 0 .398.241.566.406.022-.12.064-.382.052-.558l-.006-.09.063.065s.182.19.273.3c.048-.07.157-.246.195-.5l.01-.06.046.04s.262.226.377.401c.06-.115.192-.406.16-.658l.065-.009c.046.346-.195.751-.196.753l-.03.053-.028-.056c-.062-.127-.259-.314-.347-.396-.065.317-.226.507-.227.509l-.027.031-.025-.033c-.047-.064-.163-.19-.234-.266-.004.24-.07.55-.07.553l-.014.072-.045-.06c-.094-.124-.444-.349-.557-.418-.073.176-.354.474-.354.475l-.019.02-.022-.014c-.132-.077-.295-.216-.421-.365-.108-.127-.19-.265-.205-.38l.066-.008zM33.9 14.323c.115.074.221.143.317.215.08.06.152.122.214.192.047-.15.16-.574.062-.91l-.018-.064.062.024s.137.048.252.287c.065.137.094.286.121.424.018.094.035.183.063.26.066.181.751.817.754.818l-.046.05c-.002-.002-.699-.649-.77-.845-.03-.08-.048-.173-.067-.271-.026-.133-.054-.278-.115-.406-.054-.112-.11-.177-.152-.213.082.42-.1.922-.101.924l-.02.056-.037-.046c-.068-.084-.15-.157-.241-.227-.094-.07-.2-.138-.314-.211l.036-.057zM35.253 13.514c.07.083.156.182.239.266.066.07.129.132.175.168l-.04.053c-.051-.039-.115-.102-.184-.174-.083-.087-.17-.187-.241-.27l.05-.043zM32.874 15.666c.074.06.16.146.24.232.086.092.166.185.22.252.06-.086.21-.314.227-.49l.006-.053.046.03s.28.178.457.343c.044-.098.155-.335.267-.457l.027-.028.024.03c0 .001.217.27.45.487.231.218.699.578.7.579l-.04.054c0-.002-.472-.365-.706-.584-.188-.175-.366-.385-.431-.463-.126.158-.248.452-.249.452l-.018.047-.035-.035c-.131-.132-.348-.282-.44-.34-.049.23-.258.503-.258.504l-.027.036-.026-.036c-.05-.066-.142-.175-.243-.282-.079-.085-.162-.167-.233-.227l.042-.05zM26.678 15.265c.07.014.15.04.254.075.209.068.51.167.984.258.706.133 1.083.125 1.083.125l.061-.001-.032.052-.21.343c.13-.002.434-.007.65.016.078.007.162.027.244.046.112.026.219.05.283.038.04-.007.06-.033.05-.097-.024-.136-.083-.297-.165-.436-.07-.122-.159-.226-.258-.285l.034-.058c.11.066.205.18.28.309.088.146.149.316.174.46.02.11-.024.16-.103.174-.078.014-.19-.013-.31-.04-.079-.019-.162-.037-.236-.044-.276-.03-.702-.014-.702-.013l-.063.002.032-.054.213-.345c-.133-.004-.487-.023-1.037-.127-.478-.091-.782-.19-.993-.26-.101-.033-.18-.06-.246-.074l.013-.064zM31.304 15.904c.117.28.472.576.566.65.054-.057.204-.232.28-.478l.011-.036.034.015c.002.002.433.21.64.768.05-.058.133-.166.163-.252l.02-.058.037.049c.001 0 .297.39.965.716.03-.074.103-.264.107-.37h.065c-.004.149-.125.429-.125.43l-.014.03-.03-.013c-.57-.273-.885-.595-.984-.71-.064.127-.191.266-.192.266l-.039.042-.017-.054c-.157-.477-.485-.702-.59-.765-.104.298-.305.488-.305.489l-.02.02-.023-.018c-.001 0-.47-.355-.61-.695l.061-.026zM34.423 17.154c.15.15.383.299.666.395.237.08.508.123.797.1l.005.067c-.298.023-.579-.02-.823-.103-.293-.1-.535-.254-.691-.41l.046-.05z" mask="url(#h16vyx4jmb)"/>
                        <path fill="#000" d="M35.582 17.666c.061.09.186.242.38.39.136.104.305.207.512.29l.077.031-.077.031c-.002.001-.479.198-1.004.087-.023.107-.098.469-.066.739l.003.042-.04-.006c-.002 0-.623-.075-1.146-.347-.08.104-.426.53-.806.641l-.035.01-.007-.034c0-.002-.115-.538-.262-.81-.068-.124-.115-.242-.146-.347-.031-.098-.048-.185-.054-.25-.068.059-.196.204-.242.498-.069.443-.266.575-.266.575l-.037.025-.014-.043s-.078-.246-.229-.407c-.085-.088-.13-.18-.155-.246-.086.223-.312.752-.593.862l-.038.015-.007-.042s-.047-.314-.158-.634c-.041.166-.15.47-.423.668-.381.28-.469.32-.469.32l-.063.027.017-.067c.001 0 .114-.422-.011-.615-.092-.141-.097-.28-.088-.362-.132.07-.448.22-.737.211l-.069-.002.044-.053s.259-.315.259-.508c0-.219.175-.408.175-.409l.05.046c-.002 0-.16.17-.16.363 0 .164-.153.392-.23.495.339-.018.694-.235.696-.236l.075-.044-.026.083c-.001.001-.058.187.066.379.106.164.066.456.038.593.062-.04.18-.118.395-.274.367-.268.42-.74.42-.741l.015-.13.048.12c.114.29.175.602.195.716.309-.171.55-.9.55-.902l.048-.141.018.148s.017.157.165.315c.12.127.197.302.228.384.054-.055.158-.199.206-.5.069-.444.32-.58.322-.58l.05-.028v.058c-.002.063.013.166.051.293.03.101.078.215.142.334.129.239.233.666.262.792.396-.137.753-.628.754-.628l.017-.024.025.014c.44.234.958.325 1.106.347-.024-.327.08-.75.081-.751l.007-.032.033.008c.39.091.757.002.915-.048-.176-.08-.325-.172-.445-.264-.204-.156-.333-.312-.397-.408l.055-.037z" mask="url(#h16vyx4jmb)"/>
                        <path fill="#000" d="M30.312 16.95c.016.185.137.49.184.604.088-.086.318-.322.385-.527l.022-.068.037.06c0 .002.132.209.158.61.12-.094.42-.349.525-.588l.019-.04.033.027c.002.002.365.305.574.727.044-.074.124-.25.161-.593l.005-.043.04.015c.001.001.564.207.93.671.036-.119.107-.41.089-.802l.065-.003c.026.533-.11.887-.11.887l-.022.058-.036-.05c-.297-.408-.763-.625-.899-.682-.06.473-.203.63-.203.63l-.035.04-.02-.048c-.163-.359-.453-.64-.549-.727-.16.305-.576.613-.577.614l-.05.038-.003-.064c-.01-.293-.078-.486-.12-.578-.117.252-.407.516-.407.518l-.035.03-.02-.042s-.186-.428-.208-.67l.067-.005zM34.256 22.024c.042 1.075-.965 3.195-.968 3.2l-.06-.029c.003-.006 1.003-2.11.962-3.168l.066-.003zM29.995 23.213c-.09.244-.15.792-.139 1.33.01.435.066.86.19 1.108l-.059.03c-.13-.257-.188-.693-.197-1.137-.012-.545.049-1.103.143-1.355l.062.024zM26.87 22.567c.103.293.456.953.875 1.51.287.382.604.714.89.841l-.027.062c-.297-.133-.622-.473-.917-.863-.422-.562-.779-1.23-.883-1.528l.063-.022zM38.405 23.542c.12.004.237.004.352.003.565 0 1.074 0 1.58.443.197.173.384.355.57.538.38.372.755.741 1.204 1.001l-.034.059c-.455-.266-.834-.637-1.217-1.012-.185-.182-.37-.364-.567-.536-.488-.426-.984-.426-1.536-.426-.116 0-.233 0-.355-.003l.003-.067zM22.714 19.09c.086.062.153.14.195.222.041.083.057.17.04.253-.017.085-.059.114-.097.143-.03.023-.06.043-.054.115.003.07.065.128.18.17.123.043.304.066.54.066.187 0 .344-.021.464-.054.083-.022.147-.05.191-.08.037-.025.057-.05.057-.074 0-.004 0-.007-.002-.01-.013-.047-.052-.085-.092-.123-.056-.052-.11-.103-.11-.184 0-.07.04-.172.098-.266.054-.089.126-.172.2-.22l.036.057c-.066.041-.13.118-.18.198-.052.084-.087.173-.087.23 0 .053.044.094.088.137.047.043.094.088.112.153.002.01.003.018.003.028 0 .045-.03.09-.086.13-.048.034-.12.066-.211.09-.125.034-.288.055-.48.055-.244 0-.433-.025-.563-.07-.143-.051-.219-.128-.225-.228-.007-.108.036-.14.082-.173.028-.022.058-.045.07-.102.014-.07.001-.141-.034-.21-.036-.075-.096-.142-.174-.198l.039-.054zM22.752 20.694c.175.007.55.02.948.002.395-.019.81-.069 1.064-.186l.028.06c-.264.122-.688.174-1.09.193-.399.02-.777.006-.952-.002l.002-.067zM23.04 22.993c.105.004.275.026.43.063.127.03.247.069.318.112l-.034.057c-.066-.04-.178-.075-.299-.103-.152-.036-.315-.06-.418-.063l.003-.066zM22.856 22.395c.139 0 .403.039.642.092.213.049.408.108.476.16.07.052.113.13.135.207.027.093.023.19-.006.25l-.06-.03c.023-.046.024-.123.003-.202-.02-.064-.056-.128-.112-.171-.061-.046-.246-.103-.45-.147-.234-.054-.493-.093-.628-.092v-.067z" mask="url(#h16vyx4jmb)"/>
                        <path fill="#000" d="M22.778 21.833c.123.007.44.05.723.112.195.044.374.096.47.154.054.032.092.073.117.119.03.055.04.119.035.18-.004.06-.024.119-.054.169-.03.05-.072.093-.118.119l-.032-.058c.036-.02.068-.054.093-.095.025-.043.04-.09.045-.14.004-.05-.004-.099-.028-.143-.02-.035-.05-.068-.093-.093-.087-.053-.26-.104-.45-.146-.28-.062-.591-.105-.711-.111l.003-.067z" mask="url(#h16vyx4jmb)"/>
                        <path fill="#000" d="M22.757 21.15c.15.031.425.108.68.194.206.07.401.144.51.208.054.03.093.073.119.12.037.067.046.143.04.215-.007.072-.028.14-.057.19-.021.037-.048.066-.074.08l-.032-.057c.015-.01.033-.03.048-.057.025-.041.043-.1.049-.161.006-.06-.003-.124-.033-.177-.02-.038-.05-.07-.093-.095-.105-.06-.295-.135-.498-.202-.252-.086-.523-.161-.671-.19l.012-.067z" mask="url(#h16vyx4jmb)"/>
                        <path fill="#000" d="M23.295 20.708c.183.052.373.124.53.203.111.057.207.118.27.181.07.068.102.14.082.212-.002.01-.006.02-.01.029-.11.217-.277.255-.278.255l-.014-.065s.137-.03.231-.22c.003-.006.006-.011.007-.018.012-.044-.014-.094-.065-.146-.058-.057-.147-.114-.253-.168-.153-.078-.339-.147-.518-.198l.018-.065zM24.456 23.02c.074-.06.174-.156.23-.248.033-.058.048-.112.023-.152-.005-.009-.012-.017-.018-.024-.024-.025-.058-.036-.096-.034-.042.003-.09.022-.14.054-.038.023-.076.053-.113.09-.162.158-.229.239-.229.239l-.051-.043s.07-.083.234-.244c.04-.04.082-.074.123-.1.059-.037.118-.059.172-.063.058-.003.109.014.148.055.01.01.019.02.027.034.04.066.023.144-.023.222-.06.1-.167.201-.246.266l-.041-.053z" mask="url(#h16vyx4jmb)"/>
                        <path fill="#000" d="M24.592 22.51c.068-.127.145-.37.16-.52.004-.04.004-.07-.002-.09-.002-.008-.004-.012-.005-.011-.01 0-.027.01-.05.03-.224.198-.594.532-.594.532l-.045-.05s.375-.337.596-.533c.035-.03.065-.046.09-.048.038-.002.061.021.073.062.007.029.008.068.004.113-.017.16-.097.413-.168.547l-.06-.033z" mask="url(#h16vyx4jmb)"/>
                        <path fill="#000" d="M24.679 21.85c.03-.099.054-.187.055-.256 0-.059-.016-.103-.062-.125-.102-.047-.568.414-.57.415l-.046-.047c.002 0 .5-.495.643-.429.077.034.103.101.102.187-.002.077-.027.171-.059.275l-.063-.02z" mask="url(#h16vyx4jmb)"/>
                        <path fill="#000" d="M24.615 21.42c.044-.082.077-.17.093-.251.013-.067.013-.128-.007-.172-.03-.068-.53.298-.53.3l-.04-.055c.002 0 .566-.416.632-.271.026.056.026.13.01.21-.017.088-.053.184-.1.27l-.058-.031z" mask="url(#h16vyx4jmb)"/>
                        <path fill="#FFC703" d="M17.536 4.423l.033.395s-.437.657-.176 1.076c.262.421.684.524 1.088.641.402.118 1.093.248 1.364.675.272.426.319.502.37.495.052-.007-.018-.54-.065-.733-.048-.193-.209-.735-.215-1.037-.02-.773-.21-1.497-.743-1.687-.257-.092-.589-.081-1.027.149l-.629.026z" mask="url(#h16vyx4jmb)"/>
                        <path stroke="#000" stroke-width=".5" d="M17.536 4.423l.033.395s-.437.657-.176 1.076c.262.421.684.524 1.088.641.402.118 1.093.248 1.364.675.272.426.319.502.37.495.052-.007-.018-.54-.065-.733-.048-.193-.209-.735-.215-1.037-.02-.773-.21-1.497-.743-1.687-.257-.092-.589-.081-1.027.149l-.629.026z" mask="url(#h16vyx4jmb)"/>
                        <path fill="#FFC703" d="M17.536 35.068l.033-.394s-.437-.657-.176-1.076c.262-.42.684-.524 1.088-.641.402-.118 1.093-.248 1.364-.675.272-.426.319-.502.37-.495.052.007-.018.54-.065.733-.048.191-.209.734-.215 1.037-.02.773-.21 1.498-.743 1.687-.257.092-.589.081-1.027-.148l-.629-.028z" mask="url(#h16vyx4jmb)"/>
                        <path stroke="#000" stroke-width=".5" d="M17.536 35.068l.033-.394s-.437-.657-.176-1.076c.262-.42.684-.524 1.088-.641.402-.118 1.093-.248 1.364-.675.272-.426.319-.502.37-.495.052.007-.018.54-.065.733-.048.191-.209.734-.215 1.037-.02.773-.21 1.498-.743 1.687-.257.092-.589.081-1.027-.148l-.629-.028z" mask="url(#h16vyx4jmb)"/>
                    </g>
                </g>
            </g>
        </g>
    </g>
</svg>
