<svg xmlns="http://www.w3.org/2000/svg" xmlns:xlink="http://www.w3.org/1999/xlink" width="40" height="40" viewBox="0 0 40 40">
    <defs>
        <path id="qt76bt8ula" d="M0 20c0 11.046 8.955 20 20 20s20-8.954 20-20S31.045 0 20 0 0 8.954 0 20z"/>
    </defs>
    <g fill="none" fill-rule="evenodd">
        <g>
            <g>
                <g transform="translate(-291 -1993) translate(150 1958) translate(141 35)">
                    <mask id="mo7tda6mwb" fill="#fff">
                        <use xlink:href="#qt76bt8ula"/>
                    </mask>
                    <path fill="#F90805" d="M30.22 39.862h19.776V0H30.22v39.862zm-39.553 0h19.776V0H-9.333v39.862z" mask="url(#mo7tda6mwb)"/>
                    <path fill="#49A9F6" d="M10.443 39.862L30.22 39.862 30.22 0 10.443 0z" mask="url(#mo7tda6mwb)"/>
                    <path fill="#FFDE27" d="M.573 26.685c.336 0 .608.273.608.613 0 .337-.272.612-.608.612-.335 0-.607-.275-.607-.612 0-.34.272-.613.607-.613zm0-3.271c.336 0 .608.273.608.613 0 .337-.272.612-.608.612-.335 0-.607-.275-.607-.612 0-.34.272-.613.607-.613zm.222 5.367c.923-.07 1.803-.561 2.343-1.406.915-1.434.504-3.343-.918-4.265-.048-.031-.097-.061-.145-.09.087.158.155.327.2.51.115.453.074.926-.103 1.327-.05.114-.111.22-.183.322-.413.576-.892.638-1.378.7-.409.051-.825.105-1.178.557-.032.043-.063.088-.093.137-.19.318-.247.71-.163 1.1.196.9.824 1.17 1.618 1.108zm-3.313-6.81h6.162v-1.233h-6.162v1.234zm3.08-1.869l1.526-.922 1.523-.922h-6.096l1.524.922 1.524.922zm0 13.033l1.526-.922 1.523-.923h-6.096l1.524.923 1.524.922zm-3.08-2.493h6.162v-1.233h-6.162v1.233zm-3.695 2.493h3.072V18.258h-3.072v14.877zm10.463 0h3.072V18.258H4.25v14.877zM3.986 13.99C3.972 16 2.445 17.626.563 17.626c-1.882 0-3.41-1.625-3.423-3.635.519 1.39 1.855 2.379 3.423 2.379 1.567 0 2.904-.99 3.423-2.38zM.563 10.83c1.35 0 2.443 1.102 2.443 2.462S1.912 15.755.563 15.755c-1.35 0-2.444-1.103-2.444-2.462 0-1.36 1.095-2.463 2.444-2.463zm-.937-4.038c-.141.21-.045.34.017.443.061.103.093.24.14.418.047.177-.153.444-.153.657 0 .213.16.327.324.327.163 0 .288-.143.288-.343 0-.199-.22-.425-.233-.685-.014-.26.103-.637.238-.883.134-.245.041-.79.018-.964-.023-.174.03-.444.275-.531 0 0-.238.184.061.623.3.44.525.743.567 1.282.043.54-.21.778-.27.983-.06.206-.057.452.249.506.305.055.375-.311.28-.537-.094-.225-.16-.531-.014-.756.146-.226.162-.404.098-.53 0 0 .287.208.25.567-.036.358-.108.358.115.635.223.278.292.781.067 1.31-.225.526-.89.879-1.391.879-.5 0-1.096-.326-1.357-.864-.262-.54-.206-.951-.021-1.239.185-.287.266-.267.21-.508-.056-.243-.1-.516.242-.79zm.35 15.883c-.79.156-1.519.623-1.988 1.359-.915 1.433-.504 3.342.918 4.265.057.036.113.071.172.104-.12-.2-.21-.419-.26-.653-.106-.482-.033-.97.207-1.37.034-.057.074-.116.118-.172.446-.574.938-.636 1.422-.699.407-.051.806-.102 1.125-.548.057-.08.105-.165.146-.256.143-.325.176-.712.082-1.086-.25-.992-1.107-1.108-1.942-.944z" mask="url(#mo7tda6mwb)"/>
                </g>
            </g>
        </g>
    </g>
</svg>
