<svg xmlns="http://www.w3.org/2000/svg" xmlns:xlink="http://www.w3.org/1999/xlink" width="40" height="40" viewBox="0 0 40 40">
    <defs>
        <path id="uv0h6oerxa" d="M.276 19.93c0 11.009 8.855 19.932 19.776 19.932 10.922 0 19.777-8.923 19.777-19.931C39.83 8.923 30.974 0 20.052 0 9.131 0 .276 8.922.276 19.93z"/>
    </defs>
    <g fill="none" fill-rule="evenodd">
        <g>
            <g>
                <g>
                    <g transform="translate(-930 -1505) translate(150 1470) translate(640) translate(140 35)">
                        <mask id="ptx63vqwgb" fill="#fff">
                            <use xlink:href="#uv0h6oerxa"/>
                        </mask>
                        <path fill="#F0F0F0" d="M-9.612 26.309L49.717 26.309 49.717 13.554 -9.612 13.554z" mask="url(#ptx63vqwgb)"/>
                        <path fill="#49A9F6" d="M-9.612 12.756L49.717 12.756 49.717 0 -9.612 0z" mask="url(#ptx63vqwgb)"/>
                        <path fill="#C20B18" d="M-9.612 13.554h59.329v-.798h-59.33v.798zm0 13.553h59.329v-.798h-59.33v.798z" mask="url(#ptx63vqwgb)"/>
                        <path fill="#47B71D" d="M-9.612 39.862L49.717 39.862 49.717 27.107 -9.612 27.107z" mask="url(#ptx63vqwgb)"/>
                        <path fill="#F4F4F4" d="M15.714 1.557l.216.678.707-.002-.573.419.22.675-.57-.42-.57.42.219-.675-.572-.419.706.002.217-.678zm-3.816 0l.217.678.706-.002-.572.419.22.675-.571-.42-.57.42.22-.675-.572-.419.705.002.217-.678zM8.126 5.36l.217.677.706-.002-.572.417.22.676-.57-.419-.571.419.22-.676-.572-.417.706.002.216-.677zm3.772 0l.217.677.706-.002-.572.417.22.676-.571-.419-.57.419.22-.676-.572-.417.705.002.217-.677zm3.816 0l.216.677.707-.002-.573.417.22.676-.57-.419-.57.419.219-.676-.572-.417.706.002.217-.677zm3.815 0l.217.677.705-.002-.571.417.22.676-.571-.419-.57.419.22-.676-.573-.417.706.002.217-.677zm0 3.866l.217.678.705-.002-.571.417.22.677-.571-.42-.57.42.22-.677-.573-.417.706.002.217-.678zm-3.815 0l.216.678.707-.002-.573.417.22.677-.57-.42-.57.42.219-.677-.572-.417.706.002.217-.678zm-3.816 0l.217.678.706-.002-.572.417.22.677-.571-.42-.57.42.22-.677-.572-.417.705.002.217-.678zm-3.772 0l.217.678.706-.002-.572.417.22.677-.57-.42-.571.42.22-.677-.572-.417.706.002.216-.678zm-3.794 0l.218.678.705-.002-.571.417.22.677-.572-.42-.57.42.22-.677-.572-.417.706.002.216-.678zM19.53 1.557l.217.678.705-.002-.571.419.22.675-.571-.42-.57.42.22-.675-.573-.419.706.002.217-.678zm-17.276.105c-.257-.044-.522-.067-.79-.067-2.622 0-4.747 2.143-4.747 4.784 0 2.642 2.125 4.783 4.746 4.783.27 0 .534-.024.791-.066-2.244-.38-3.955-2.348-3.955-4.718s1.71-4.337 3.955-4.716z" mask="url(#ptx63vqwgb)"/>
                    </g>
                </g>
            </g>
        </g>
    </g>
</svg>
