<svg xmlns="http://www.w3.org/2000/svg" xmlns:xlink="http://www.w3.org/1999/xlink" width="40" height="40" viewBox="0 0 40 40">
    <defs>
        <path id="qlm852n39a" d="M20 0C8.954 0 0 8.954 0 20c0 11.045 8.954 20 20 20 11.045 0 20-8.955 20-20C40 8.954 31.045 0 20 0z"/>
    </defs>
    <g fill="none" fill-rule="evenodd">
        <g>
            <g>
                <g>
                    <g transform="translate(-930 -1261) translate(150 1226) translate(640) translate(140 35)">
                        <mask id="mdr59rz0hb" fill="#fff">
                            <use xlink:href="#qlm852n39a"/>
                        </mask>
                        <path fill="#0437A0" d="M-9.333 39.553L49.996 39.553 49.996 0 -9.333 0z" mask="url(#mdr59rz0hb)"/>
                        <path fill="#FF1612" d="M-9.333 29.665L49.996 29.665 49.996 9.888 -9.333 9.888z" mask="url(#mdr59rz0hb)"/>
                        <path fill="#FFF" d="M8.951 23.578s.52-.304.675-.755v-2.31s-.086-.337-.502-.57v-2.147c.216.013.407.313.407.307v-.77s.144-.144.294 0v.202h.462v-.99s.27.535.484.46c.215-.075-.054-.41-.075-.598-.02-.187.078-.427.078-.427s.154.313.272.256c.12-.056-.167-.346-.174-.517-.006-.17.05-.31.05-.31s.113.316.236.245c.123-.07-.1-.362-.096-.527.004-.165.077-.327.077-.327s.062.309.18.274c.12-.036.059-.396.076-.607.016-.21.216-.45.447-.506 0 0 0-.338.197-.338.195 0 .191.336.191.336s.445.184.467.555c.024.37.02.385.03.473.01.088.171.098.207-.146 0 0 .143.138.05.397-.09.258-.115.3-.066.368.05.069.202-.062.244-.187 0 0 .127.235-.044.49-.17.254-.125.376-.027.32.098-.056.194-.156.227-.229 0 0 .12.227-.011.545-.132.316-.125.366-.05.435s.27-.031.358-.185c.087-.155.115-.177.173-.198v1.69h.526s.006-.164.15-.164.155.155.155.155h2.659v-1.593s.331.192.331.388v.227h.334c.122 0 .154-.163.154-.268 0-.104 0-.39-.292-.47v-.537s.331.044.506.398v-.244s.225.054.225.328v.446h.163s.042-.508 0-.665c-.042-.158-.12-.237-.23-.325-.107-.088-.155-.403-.048-.624 0 0 .133.358.29.256.16-.102.014-.37-.139-.566-.151-.196-.327-.5-.13-.837 0 0 .084.506.305.41.22-.095.073-.437-.042-.597-.114-.16-.161-.556.053-.69 0 0-.03.449.232.403.26-.046-.04-.381-.086-.577-.046-.195.031-.358.091-.403 0 0 .116.373.267.238.149-.136-.124-.305-.161-.442-.038-.137.08-.296.08-.296s.135.268.242.16c.106-.109-.05-.563-.05-.563h.132l-.06-.361h.185l-.066-.305s.284.013.291 0c.007-.012-.023-.283-.023-.283h.244s-.014-.466.234-.466c.25 0 .235.466.235.466h.244s-.035.269-.023.283c.013.015.292 0 .292 0l-.067.305h.186l-.06.36h.132s-.156.455-.05.563c.106.109.24-.159.24-.159s.119.159.082.296c-.038.137-.31.306-.16.442.149.135.265-.238.265-.238.06.045.137.208.091.403-.046.196-.346.531-.085.577.26.046.231-.404.231-.404.215.135.168.53.053.69-.114.161-.262.503-.041.599.22.095.304-.411.304-.411.198.337.021.641-.13.837-.152.196-.298.464-.14.566.158.102.291-.256.291-.256.107.22.06.536-.048.624-.109.088-.187.167-.23.325-.042.157 0 .665 0 .665h.163v-.446c0-.274.225-.328.225-.328v.244c.175-.354.506-.398.506-.398v.538c-.291.078-.292.365-.292.47 0 .104.032.267.154.267h.334v-.227c0-.196.332-.388.332-.388v1.593h2.658s.012-.155.155-.155c.144 0 .15.164.15.164h.526v-1.69c.058.02.086.043.173.198.088.154.284.254.358.185.075-.069.082-.12-.049-.435-.132-.318-.012-.545-.012-.545.033.073.13.173.227.229.098.056.144-.066-.027-.32-.17-.255-.044-.49-.044-.49.042.125.194.256.245.187.05-.068.024-.11-.068-.368-.091-.259.051-.397.051-.397.036.244.197.234.208.146.01-.088.005-.102.028-.473.023-.37.468-.555.468-.555s-.004-.336.192-.336.196.338.196.338c.231.057.432.296.448.506.017.211-.044.571.075.607.118.035.18-.274.18-.274s.073.162.077.327c.004.165-.219.456-.095.527.122.071.235-.246.235-.246s.056.14.05.31c-.007.172-.293.462-.174.518.119.057.273-.256.273-.256s.098.24.077.427c-.021.188-.29.523-.075.598.215.075.485-.46.485-.46v.99h.462v-.202c.15-.144.293 0 .293 0v.77c0 .006.192-.294.408-.307v2.146c-.417.234-.503.571-.503.571v2.31c.155.45.676.755.676.755l-11.36.182-11.36-.182z" mask="url(#mdr59rz0hb)"/>
                        <path stroke="#000" stroke-width=".5" d="M8.951 23.578s.52-.304.675-.755v-2.31s-.086-.337-.502-.57v-2.147c.216.013.407.313.407.307v-.77s.144-.144.294 0v.202h.462v-.99s.27.535.484.46c.215-.075-.054-.41-.075-.598-.02-.187.078-.427.078-.427s.154.313.272.256c.12-.056-.167-.346-.174-.517-.006-.17.05-.31.05-.31s.113.316.236.245c.123-.07-.1-.362-.096-.527.004-.165.077-.327.077-.327s.062.309.18.274c.12-.036.059-.396.076-.607.016-.21.216-.45.447-.506 0 0 0-.338.197-.338.195 0 .191.336.191.336s.445.184.467.555c.024.37.02.385.03.473.01.088.171.098.207-.146 0 0 .143.138.05.397-.09.258-.115.3-.066.368.05.069.202-.062.244-.187 0 0 .127.235-.044.49-.17.254-.125.376-.027.32.098-.056.194-.156.227-.229 0 0 .12.227-.011.545-.132.316-.125.366-.05.435s.27-.031.358-.185c.087-.155.115-.177.173-.198v1.69h.526s.006-.164.15-.164.155.155.155.155h2.659v-1.593s.331.192.331.388v.227h.334c.122 0 .154-.163.154-.268 0-.104 0-.39-.292-.47v-.537s.331.044.506.398v-.244s.225.054.225.328v.446h.163s.042-.508 0-.665c-.042-.158-.12-.237-.23-.325-.107-.088-.155-.403-.048-.624 0 0 .133.358.29.256.16-.102.014-.37-.139-.566-.151-.196-.327-.5-.13-.837 0 0 .084.506.305.41.22-.095.073-.437-.042-.597-.114-.16-.161-.556.053-.69 0 0-.03.449.232.403.26-.046-.04-.381-.086-.577-.046-.195.031-.358.091-.403 0 0 .116.373.267.238.149-.136-.124-.305-.161-.442-.038-.137.08-.296.08-.296s.135.268.242.16c.106-.109-.05-.563-.05-.563h.132l-.06-.361h.185l-.066-.305s.284.013.291 0c.007-.012-.023-.283-.023-.283h.244s-.014-.466.234-.466c.25 0 .235.466.235.466h.244s-.035.269-.023.283c.013.015.292 0 .292 0l-.067.305h.186l-.06.36h.132s-.156.455-.05.563c.106.109.24-.159.24-.159s.119.159.082.296c-.038.137-.31.306-.16.442.149.135.265-.238.265-.238.06.045.137.208.091.403-.046.196-.346.531-.085.577.26.046.231-.404.231-.404.215.135.168.53.053.69-.114.161-.262.503-.041.599.22.095.304-.411.304-.411.198.337.021.641-.13.837-.152.196-.298.464-.14.566.158.102.291-.256.291-.256.107.22.06.536-.048.624-.109.088-.187.167-.23.325-.042.157 0 .665 0 .665h.163v-.446c0-.274.225-.328.225-.328v.244c.175-.354.506-.398.506-.398v.538c-.291.078-.292.365-.292.47 0 .104.032.267.154.267h.334v-.227c0-.196.332-.388.332-.388v1.593h2.658s.012-.155.155-.155c.144 0 .15.164.15.164h.526v-1.69c.058.02.086.043.173.198.088.154.284.254.358.185.075-.069.082-.12-.049-.435-.132-.318-.012-.545-.012-.545.033.073.13.173.227.229.098.056.144-.066-.027-.32-.17-.255-.044-.49-.044-.49.042.125.194.256.245.187.05-.068.024-.11-.068-.368-.091-.259.051-.397.051-.397.036.244.197.234.208.146.01-.088.005-.102.028-.473.023-.37.468-.555.468-.555s-.004-.336.192-.336.196.338.196.338c.231.057.432.296.448.506.017.211-.044.571.075.607.118.035.18-.274.18-.274s.073.162.077.327c.004.165-.219.456-.095.527.122.071.235-.246.235-.246s.056.14.05.31c-.007.172-.293.462-.174.518.119.057.273-.256.273-.256s.098.24.077.427c-.021.188-.29.523-.075.598.215.075.485-.46.485-.46v.99h.462v-.202c.15-.144.293 0 .293 0v.77c0 .006.192-.294.408-.307v2.146c-.417.234-.503.571-.503.571v2.31c.155.45.676.755.676.755l-11.36.182-11.36-.182z" mask="url(#mdr59rz0hb)"/>
                        <path fill="#000" d="M9.626 22.856L31.008 22.856 31.008 22.79 9.626 22.79zM10.936 19.794L9.535 19.794 9.502 19.794 9.502 19.76 9.502 18.052 9.568 18.052 9.568 19.727 10.936 19.727z" mask="url(#mdr59rz0hb)"/>
                        <path fill="#000" d="M10.31 17.518v2.217l.492.4.012.01V22.824l-.001.003c0 .002-.085.586-.801.71l-.011-.065c.639-.11.739-.608.746-.652v-2.644l-.491-.4-.012-.01v-2.248h.066zM9.26 23.442c.019-.014.043-.029.07-.046.158-.096.438-.268.438-.569v-2.82l-.137-.235.058-.033.141.243.004.009v2.836c0 .339-.3.523-.468.625l-.069.044-.038-.054z" mask="url(#mdr59rz0hb)"/>
                        <path fill="#000" d="M10.138 22.839V21.01c0-.112.067-.112.111-.112h.277s.08-.001.08.115v1.807h-.066v-1.807c0-.049-.014-.049-.014-.049h-.277c-.018 0-.044 0-.044.046v1.828h-.067zM9.555 18.862c.108.052.256.126.397.24.142.115.277.27.356.483l-.063.023c-.073-.2-.2-.346-.335-.455-.135-.109-.28-.181-.383-.231l.028-.06zM9.798 19.056L9.865 19.056 9.865 17.531 9.798 17.531z" mask="url(#mdr59rz0hb)"/>
                        <path fill="#000" d="M9.839 17.93L10.271 17.93 10.271 17.863 9.839 17.863zM10.59 23.484c.112-.016.27-.13.398-.268.124-.133.219-.286.219-.393v-2.395l-.307-.396-.007-.009v-.792l.045.016c.001 0 .37.134.564.366.047-.15.186-.524.476-.75l.018-.015.02.011c0 .001.368.219.522.74.088-.089.309-.286.536-.32l.039-.007v.762l-.007.009-.28.388v2.395c.006.036.086.464.66.708l-.026.062c-.634-.27-.7-.763-.7-.764V20.41l.006-.01.28-.387v-.661c-.257.062-.5.332-.5.333l-.042.046-.015-.06c-.118-.462-.41-.689-.489-.742-.335.277-.452.763-.453.765l-.018.073-.042-.063c-.131-.197-.417-.33-.527-.377v.674l.307.395.006.01v2.417c0 .125-.103.294-.237.438-.137.149-.31.271-.437.29l-.01-.067z" mask="url(#mdr59rz0hb)"/>
                        <path fill="#000" d="M10.94 20.061L13.078 20.061 13.078 19.995 10.94 19.995z" mask="url(#mdr59rz0hb)"/>
                        <path fill="#000" d="M11.492 23.466L11.558 23.466 11.558 20.024 11.492 20.024zM12.471 23.466L12.538 23.466 12.538 20.024 12.471 20.024zM11.236 19.455c.04-.175.155-.403.304-.603.135-.182.298-.341.46-.422l.015-.007.014.007c.002.001.535.25.743 1.034l-.064.017c-.18-.68-.61-.938-.693-.984-.148.078-.297.226-.422.394-.143.194-.254.412-.291.578l-.066-.014z" mask="url(#mdr59rz0hb)"/>
                        <path fill="#000" d="M11.328 19.222l-.424-.491-.009-.01v-.672l.037.004c.001 0 .248.023.454.309.046-.156.196-.536.625-.91l.02-.016.02.014c.002.001.479.317.613.907.075-.083.236-.235.444-.277l.04-.008v.671l-.008.01-.45.536-.05-.042.442-.528v-.565c-.243.07-.41.297-.41.298l-.046.062-.013-.076c-.093-.533-.483-.848-.578-.918-.524.466-.602.927-.603.928l-.016.085-.045-.073c-.15-.244-.333-.314-.41-.334v.57l.418.482-.05.044z" mask="url(#mdr59rz0hb)"/>
                        <path fill="#000" d="M11.079 18.175l-.173-.343-.004-.008V17.122l.039.005s.26.034.445.302c.05-.193.217-.692.63-.979l.019-.013.019.013c0 .001.457.314.62.963.064-.083.2-.22.44-.268l.04-.008V17.825l-.004.008-.189.36-.059-.031.185-.352v-.59c-.293.075-.398.29-.398.292l-.042.085-.02-.094c-.122-.595-.504-.916-.593-.984-.48.348-.6 1-.601 1.002l-.017.09-.044-.08c-.132-.234-.322-.308-.403-.33v.607l.169.337-.06.03z" mask="url(#mdr59rz0hb)"/>
                        <path fill="#000" d="M11.49 17.138c0-.002-.298-.336-.319-.428-.02-.088-.001-.41-.001-.412l.002-.036.037.006s.2.031.342.152c.055-.113.221-.412.477-.499l.011-.003.012.004s.302.107.464.512c.058-.055.182-.151.329-.156l.03-.001.004.03s.032.259-.002.446c-.036.195-.317.389-.318.39l-.038-.055s.26-.18.29-.347c.026-.139.013-.321.005-.394-.164.022-.288.168-.288.168l-.038.045-.019-.055c-.129-.37-.378-.494-.431-.517-.282.104-.446.5-.447.5l-.02.047-.034-.036c-.094-.098-.237-.142-.303-.158-.005.086-.013.293.001.355.017.075.304.396.305.397l-.05.045z" mask="url(#mdr59rz0hb)"/>
                        <path fill="#000" d="M11.595 16.37c-.002-.004-.015-.012-.039-.035-.08-.077-.226-.22-.226-.27l.002-.343v-.04l.04.009s.126.025.229.113c.04-.087.156-.268.433-.36l.01-.002.013.004s.26.104.411.356c.047-.044.137-.118.229-.123l.035-.002v.381c0 .03-.04.085-.088.143-.061.07-.14.147-.175.171l-.038-.054c.032-.022.105-.094.163-.16.04-.047.071-.088.071-.1v-.306c-.092.026-.179.128-.179.128l-.032.037-.023-.044c-.118-.228-.336-.337-.388-.36-.327.113-.398.358-.398.359l-.017.056-.04-.043c-.061-.067-.142-.102-.19-.118l-.002.297c0 .023.134.153.206.223.03.03.05.05.054.059l-.061.024z" mask="url(#mdr59rz0hb)"/>
                        <path fill="#000" d="M11.686 15.726l-.062-.072c-.048-.054-.07-.08-.078-.14-.011-.075.006-.298.006-.3l.003-.043.041.015s.083.03.142.073c.022-.077.087-.2.288-.285l.016-.006.015.009s.216.136.278.283c.03-.024.078-.052.143-.065l.04-.007v.04s.004.177.004.248c0 .087-.136.254-.137.254l-.05-.042s.12-.149.12-.212l-.002-.205c-.075.026-.108.072-.108.072l-.051.071-.009-.087c-.011-.116-.195-.248-.25-.284-.25.114-.24.283-.24.283l.003.099-.066-.082c-.014-.028-.075-.06-.117-.077-.005.067-.011.19-.003.238.005.041.024.062.062.105.018.02.04.045.064.075l-.052.042z" mask="url(#mdr59rz0hb)"/>
                        <path fill="#000" d="M11.79 15.2c-.026-.023-.061-.046-.095-.068-.076-.048-.149-.095-.145-.167.004-.078.002-.207.002-.208v-.047l.044.015s.099.034.16.081c.031-.077.104-.213.257-.286l.015-.007.015.008s.24.129.307.29c.027-.024.067-.051.124-.068l.042-.012v.264c0 .076-.249.219-.25.22l-.033-.058s.217-.124.217-.161v-.173c-.065.031-.087.076-.087.076l-.055.07-.008-.083c-.008-.135-.216-.265-.274-.298-.179.094-.227.302-.228.302l-.012.061-.047-.069c-.01-.028-.074-.058-.12-.077 0 .046 0 .115-.003.164-.001.033.055.069.115.107.036.024.074.048.104.075l-.045.05zM13.089 19.787L18.739 19.787 18.739 19.72 13.089 19.72z" mask="url(#mdr59rz0hb)"/>
                        <path fill="#000" d="M13.824 23.547c-.134-.072-.304-.204-.428-.35-.102-.12-.175-.25-.175-.366v-2.683l.01-.01.415-.414.047.046-.405.406v2.655c0 .1.065.214.158.323.12.14.282.266.41.334l-.032.059zM13.749 19.759L13.816 19.759 13.816 18.292 13.749 18.292z" mask="url(#mdr59rz0hb)"/>
                        <path fill="#000" d="M13.496 22.839V21.01c0-.112.067-.112.111-.112h.277s.08-.001.08.115v1.807h-.066v-1.807c0-.049-.014-.049-.014-.049h-.277c-.018 0-.045 0-.045.046v1.828h-.066zM14.958 22.839V21.01c0-.112.067-.112.112-.112h.276s.08-.001.08.115v1.807h-.065v-1.807c0-.049-.015-.049-.015-.049h-.276c-.018 0-.045 0-.045.046v1.828h-.067zM15.735 22.839V21.01c0-.112.066-.112.11-.112h.277s.081-.001.081.115v1.807h-.066v-1.807c0-.049-.015-.049-.015-.049h-.276c-.018 0-.045 0-.045.046v1.828h-.066zM16.558 22.839V21.01c0-.112.067-.112.111-.112h.277s.081-.001.081.115v1.807h-.067v-1.807c0-.049-.014-.049-.014-.049h-.276c-.018 0-.045 0-.045.046v1.828h-.067zM14.318 20.899h.237s.08 0 .08.115v1.807h-.066v-1.807c0-.049-.014-.049-.014-.049h-.237V20.9zM17.665 20.899h-.236s-.081 0-.081.115v1.807h.066v-1.807c0-.049.014-.049.014-.049h.237V20.9z" mask="url(#mdr59rz0hb)"/>
                        <path fill="#000" d="M14.8 23.555c-.141-.108-.266-.207-.358-.318-.094-.115-.15-.242-.15-.4v-2.792l.01-.01.282-.29V18.27h.067v1.504l-.01.01-.283.29v2.764c0 .141.05.254.136.358.087.106.209.202.347.307l-.04.053z" mask="url(#mdr59rz0hb)"/>
                        <path fill="#000" d="M13.748 19.62c.05-.14.156-.307.326-.457.134-.119.31-.226.531-.3l.021.063c-.212.07-.38.173-.508.287-.16.142-.26.3-.307.43l-.063-.022z" mask="url(#mdr59rz0hb)"/>
                        <path fill="#000" d="M14.282 19.03L14.349 19.03 14.349 18.276 14.282 18.276zM17.086 23.483c.177-.08.317-.185.414-.298.103-.122.158-.25.158-.362v-2.662l-.4-.39-.01-.01v-1.492h.066v1.463l.4.392.01.01V22.823c0 .128-.06.272-.174.405-.103.12-.25.232-.437.316l-.027-.061z" mask="url(#mdr59rz0hb)"/>
                        <path fill="#000" d="M14.332 20.657L17.699 20.657 17.699 20.59 14.332 20.59zM14.328 20.118L17.629 20.118 17.629 20.051 14.328 20.051zM14.628 19.322L17.279 19.322 17.279 19.256 14.628 19.256zM14.628 19.039L17.279 19.039 17.279 18.973 14.628 18.973zM14.628 18.56L17.279 18.56 17.279 18.493 14.628 18.493zM18.76 20.899h-.252s-.081 0-.081.115v1.807h.067v-1.807c0-.049.014-.049.014-.049h.252V20.9z" mask="url(#mdr59rz0hb)"/>
                        <path fill="#000" d="M18.07 23.48c.137-.058.348-.18.5-.33.103-.103.177-.218.177-.333v-3.002c-.03-.043-.18-.245-.376-.298l.017-.064c.243.065.42.333.42.334l.005.008v3.022c0 .135-.082.266-.197.38-.157.156-.378.283-.52.345l-.027-.062z" mask="url(#mdr59rz0hb)"/>
                        <path fill="#000" d="M19.284 19.518L17.617 19.518 17.584 19.518 17.584 19.485 17.584 17.289 17.651 17.289 17.651 19.451 19.284 19.451z" mask="url(#mdr59rz0hb)"/>
                        <path fill="#000" d="M17.617 18.934L19.896 18.934 19.896 18.868 17.617 18.868z" mask="url(#mdr59rz0hb)"/>
                        <path fill="#000" d="M17.901 18.898L17.968 18.898 17.968 17.304 17.901 17.304zM18.343 16.397c.014.054.023.096.03.148.007.052.01.111.01.197v2.151h-.066v-2.15c0-.085-.004-.142-.01-.19-.006-.046-.016-.087-.028-.14l.064-.016z" mask="url(#mdr59rz0hb)"/>
                        <path fill="#000" d="M18.357 17.91c.096.027.246.124.403.267.133.12.27.275.385.448l-.055.036c-.111-.168-.246-.317-.374-.435-.15-.135-.29-.227-.377-.252l.018-.064zM18.695 16.979L18.959 16.979 18.959 16.913 18.695 16.913zM18.66 15.649L19.229 15.649 19.229 15.582 18.66 15.582zM18.722 14.648L19.324 14.648 19.324 14.581 18.722 14.581zM18.983 13.755L19.598 13.755 19.598 13.688 18.983 13.688zM19.218 13.042L19.693 13.042 19.693 12.975 19.218 12.975zM19.391 12.452L19.888 12.452 19.888 12.385 19.391 12.385zM18.866 23.499c.17-.083.347-.194.47-.33.095-.106.157-.225.157-.357v-2.524l-.211-.249-.008-.01v-1.142h.067v1.118l.21.25.008.008v2.549c0 .15-.068.284-.173.4-.13.145-.316.26-.491.347l-.03-.06zM19.82 23.489L19.886 23.489 19.886 20.031 19.82 20.031zM29.703 19.794L31.103 19.794 31.137 19.794 31.137 19.76 31.137 18.052 31.07 18.052 31.07 19.727 29.703 19.727z" mask="url(#mdr59rz0hb)"/>
                        <path fill="#000" d="M30.328 17.518v2.217l-.491.4-.012.01V22.827c0 .002.086.586.801.71l.012-.065c-.64-.11-.739-.608-.747-.652v-2.644l.492-.4.012-.01v-2.248h-.067zM31.38 23.442c-.02-.014-.045-.029-.073-.046-.157-.096-.436-.268-.436-.569v-2.82l.136-.235-.058-.033-.14.243-.005.009v2.836c0 .339.3.523.469.625.027.018.052.032.068.044l.038-.054z" mask="url(#mdr59rz0hb)"/>
                        <path fill="#000" d="M30.501 22.839V21.01c0-.112-.067-.112-.111-.112h-.277s-.08-.001-.08.115v1.807h.065v-1.807c0-.049.015-.049.015-.049h.276c.018 0 .045 0 .045.046v1.828h.067zM31.083 18.862c-.108.052-.256.126-.397.24-.142.115-.276.27-.355.483l.063.023c.073-.2.2-.346.334-.455.136-.109.28-.181.384-.231l-.029-.06z" mask="url(#mdr59rz0hb)"/>
                        <path fill="#000" d="M30.774 19.056L30.841 19.056 30.841 17.531 30.774 17.531z" mask="url(#mdr59rz0hb)"/>
                        <path fill="#000" d="M30.368 17.93L30.8 17.93 30.8 17.863 30.368 17.863zM30.049 23.484c-.112-.016-.27-.13-.398-.268-.124-.133-.22-.286-.22-.393v-2.395l.308-.396.007-.009v-.792l-.045.016c-.002 0-.37.134-.564.366-.047-.15-.188-.524-.476-.75l-.018-.015-.02.011c-.001.001-.368.219-.522.74-.089-.089-.31-.286-.537-.32l-.038-.007v.762l.006.009.28.388v2.395c-.006.036-.086.464-.66.708l.026.062c.634-.27.7-.763.7-.764l.001-.002v-2.42l-.006-.01-.28-.387v-.661c.257.062.499.332.5.333l.041.046.015-.06c.119-.462.41-.689.49-.742.334.277.452.763.452.765l.019.073.042-.063c.131-.197.416-.33.527-.377v.674l-.307.395-.007.01v2.417c0 .125.103.294.237.438.138.149.31.271.438.29l.009-.067z" mask="url(#mdr59rz0hb)"/>
                        <path fill="#000" d="M27.561 20.061L29.699 20.061 29.699 19.995 27.561 19.995z" mask="url(#mdr59rz0hb)"/>
                        <path fill="#000" d="M29.08 23.466L29.146 23.466 29.146 20.024 29.08 20.024zM28.101 23.466L28.168 23.466 28.168 20.024 28.101 20.024zM29.402 19.455c-.04-.175-.154-.403-.304-.603-.134-.182-.298-.341-.46-.422l-.014-.007-.015.007c-.001.001-.534.25-.743 1.034l.065.017c.18-.68.609-.938.693-.984.147.078.296.226.422.394.143.194.253.412.291.578l.065-.014z" mask="url(#mdr59rz0hb)"/>
                        <path fill="#000" d="M29.31 19.222l.425-.491.008-.01v-.672l-.037.004s-.247.023-.453.309c-.046-.156-.196-.536-.625-.91l-.02-.016-.021.014c0 .001-.478.317-.612.907-.075-.083-.237-.235-.445-.277l-.04-.008v.671l.009.01.449.536.051-.042-.442-.528v-.565c.243.07.41.297.41.298l.046.062.013-.076c.093-.533.483-.848.578-.918.523.466.602.927.603.928l.015.085.046-.073c.15-.244.332-.314.409-.334v.57l-.417.482.05.044z" mask="url(#mdr59rz0hb)"/>
                        <path fill="#000" d="M29.56 18.175l.172-.343.004-.008V17.122l-.037.005c-.002 0-.26.034-.447.302-.05-.193-.216-.692-.63-.979l-.018-.013-.02.013c0 .001-.457.314-.62.963-.064-.083-.2-.22-.44-.268l-.039-.008V17.825l.004.008.188.36.06-.031-.185-.352v-.59c.293.075.397.29.397.292l.043.085.02-.094c.122-.595.504-.916.592-.984.482.348.6 1 .602 1.002l.017.09.045-.08c.13-.234.32-.308.401-.33v.607l-.169.337.06.03z" mask="url(#mdr59rz0hb)"/>
                        <path fill="#000" d="M29.148 17.138c0-.002.298-.336.32-.428.02-.088 0-.41 0-.412l-.002-.036-.036.006s-.2.031-.342.152c-.055-.113-.222-.412-.478-.499l-.01-.003-.012.004s-.303.107-.464.512c-.059-.055-.182-.151-.33-.156l-.03-.001-.004.03s-.031.259.003.446c.035.195.317.389.318.39l.038-.055c-.001 0-.26-.18-.29-.347-.026-.139-.013-.321-.006-.394.164.022.289.168.289.169l.037.044.02-.055c.128-.37.377-.494.432-.517.28.104.445.5.445.5l.02.047.035-.036c.093-.098.237-.142.303-.158.004.086.012.293-.002.355-.015.075-.304.396-.304.397l.05.045z" mask="url(#mdr59rz0hb)"/>
                        <path fill="#000" d="M29.044 16.37c.002-.004.015-.012.04-.035.078-.077.225-.22.225-.27l-.002-.343v-.04l-.04.009s-.126.025-.229.113c-.04-.087-.156-.268-.433-.36l-.012-.002-.011.004s-.261.104-.412.356c-.047-.044-.137-.118-.228-.123l-.035-.002v.381c0 .03.039.085.088.143.06.07.14.147.174.171l.039-.054c-.032-.022-.105-.094-.163-.16-.04-.047-.071-.088-.071-.1v-.306c.091.026.178.128.18.128l.031.037.023-.044c.117-.228.336-.337.388-.36.328.113.398.358.398.359l.017.056.04-.043c.06-.067.141-.102.19-.118l.001.297c0 .023-.134.153-.205.223-.03.03-.051.05-.055.059l.062.024z" mask="url(#mdr59rz0hb)"/>
                        <path fill="#000" d="M28.952 15.726l.062-.072c.048-.054.07-.08.079-.14.01-.075-.006-.298-.006-.3l-.003-.043-.042.015s-.082.03-.142.073c-.021-.077-.087-.2-.287-.285l-.016-.006-.015.009s-.217.136-.279.283c-.03-.024-.078-.052-.143-.065l-.039-.007v.04s-.004.177-.004.248c0 .087.136.254.136.254l.052-.042s-.122-.149-.122-.212l.003-.205c.074.026.108.072.108.072l.051.071.009-.087c.01-.116.195-.248.249-.284.252.114.24.283.24.283l-.002.099.065-.082c.015-.028.076-.06.118-.077.004.067.01.19.003.238-.005.041-.024.062-.063.105l-.063.075.051.042z" mask="url(#mdr59rz0hb)"/>
                        <path fill="#000" d="M28.849 15.2c.026-.023.06-.046.094-.068.077-.048.15-.095.146-.167-.005-.078-.003-.207-.003-.208l.001-.047-.045.015s-.099.034-.16.081c-.03-.077-.103-.213-.256-.286l-.016-.007-.014.008s-.24.129-.307.29c-.028-.024-.068-.051-.124-.068l-.043-.012v.264c0 .076.25.219.25.22l.033-.058s-.217-.124-.217-.161v-.173c.065.031.088.076.088.076l.055.07.008-.083c.008-.135.216-.265.273-.298.18.094.228.302.228.302l.012.061.047-.069c.01-.028.075-.058.12-.077 0 .046 0 .115.003.164.002.033-.055.069-.115.107-.036.024-.073.048-.103.075l.045.05zM21.899 19.787L27.549 19.787 27.549 19.72 21.899 19.72z" mask="url(#mdr59rz0hb)"/>
                        <path fill="#000" d="M26.815 23.547c.133-.072.303-.204.428-.35.102-.12.174-.25.174-.366v-2.683l-.01-.01-.414-.414-.048.046.406.406v2.655c0 .1-.066.214-.159.323-.119.14-.28.266-.41.334l.033.059zM26.823 19.759L26.89 19.759 26.89 18.292 26.823 18.292z" mask="url(#mdr59rz0hb)"/>
                        <path fill="#000" d="M27.143 22.839V21.01c0-.112-.067-.112-.111-.112h-.277s-.081-.001-.081.115v1.807h.066v-1.807c0-.049.015-.049.015-.049h.276c.018 0 .045 0 .045.046v1.828h.067zM25.68 22.839V21.01c0-.112-.067-.112-.11-.112h-.278s-.08-.001-.08.115v1.807h.066v-1.807c0-.049.014-.049.014-.049h.277c.018 0 .045 0 .045.046v1.828h.066zM24.904 22.839V21.01c0-.112-.066-.112-.111-.112h-.277s-.08-.001-.08.115v1.807h.066v-1.807c0-.049.014-.049.014-.049h.276c.018 0 .046 0 .046.046v1.828h.066zM24.08 22.839V21.01c0-.112-.066-.112-.111-.112h-.277s-.08-.001-.08.115v1.807h.066v-1.807c0-.049.014-.049.014-.049h.276c.019 0 .046 0 .046.046v1.828h.067zM26.32 20.899h-.236s-.08 0-.08.115v1.807h.066v-1.807c0-.049.014-.049.014-.049h.236V20.9zM22.974 20.899h.236s.08 0 .08.115v1.807h-.066v-1.807c0-.049-.014-.049-.014-.049h-.236V20.9z" mask="url(#mdr59rz0hb)"/>
                        <path fill="#000" d="M25.838 23.555c.142-.108.267-.207.359-.318.093-.115.15-.242.15-.4v-2.792l-.01-.01-.282-.29V18.27h-.067v1.504l.01.01.282.29v2.764c0 .141-.05.254-.136.358-.086.106-.208.202-.346.307l.04.053z" mask="url(#mdr59rz0hb)"/>
                        <path fill="#000" d="M26.89 19.62c-.05-.14-.155-.307-.325-.457-.135-.119-.31-.226-.532-.3l-.02.063c.211.07.38.173.508.287.16.142.26.3.307.43l.062-.022z" mask="url(#mdr59rz0hb)"/>
                        <path fill="#000" d="M26.29 19.03L26.356 19.03 26.356 18.276 26.29 18.276zM23.552 23.483c-.176-.08-.316-.185-.413-.298-.103-.122-.158-.25-.158-.362v-2.662l.4-.39.01-.01v-1.492h-.067v1.463l-.4.392-.01.01V22.823c0 .128.06.272.174.405.104.12.251.232.438.316l.026-.061z" mask="url(#mdr59rz0hb)"/>
                        <path fill="#000" d="M22.94 20.657L26.306 20.657 26.306 20.59 22.94 20.59zM23.01 20.118L26.31 20.118 26.31 20.051 23.01 20.051zM23.359 19.322L26.011 19.322 26.011 19.256 23.359 19.256zM23.359 19.039L26.011 19.039 26.011 18.973 23.359 18.973zM23.359 18.56L26.011 18.56 26.011 18.493 23.359 18.493zM21.879 20.899h.252s.08 0 .08.115v1.807h-.066v-1.807c0-.049-.014-.049-.014-.049h-.252V20.9z" mask="url(#mdr59rz0hb)"/>
                        <path fill="#000" d="M22.57 23.48c-.138-.058-.35-.18-.5-.33-.104-.103-.179-.218-.179-.333v-3.002c.03-.043.181-.245.377-.298l-.017-.064c-.244.065-.42.333-.42.334l-.006.008v3.022c0 .135.082.266.197.38.158.156.378.283.52.345l.028-.062z" mask="url(#mdr59rz0hb)"/>
                        <path fill="#000" d="M21.354 19.518L23.021 19.518 23.055 19.518 23.055 19.485 23.055 17.289 22.988 17.289 22.988 19.451 21.354 19.451z" mask="url(#mdr59rz0hb)"/>
                        <path fill="#000" d="M20.742 18.934L23.021 18.934 23.021 18.868 20.742 18.868z" mask="url(#mdr59rz0hb)"/>
                        <path fill="#000" d="M22.67 18.898L22.737 18.898 22.737 17.304 22.67 17.304zM22.296 16.397c-.014.054-.024.096-.031.148-.006.052-.01.111-.01.197v2.151h.067v-2.15c0-.085.003-.142.01-.19.005-.046.015-.087.029-.14l-.065-.016z" mask="url(#mdr59rz0hb)"/>
                        <path fill="#000" d="M22.281 17.91c-.095.027-.246.124-.403.267-.132.12-.27.275-.384.448l.055.036c.111-.168.246-.317.374-.435.15-.135.29-.227.376-.252l-.018-.064zM21.68 16.979L21.944 16.979 21.944 16.913 21.68 16.913zM21.411 15.649L21.978 15.649 21.978 15.582 21.411 15.582zM21.314 14.648L21.917 14.648 21.917 14.581 21.314 14.581zM21.041 13.755L21.656 13.755 21.656 13.688 21.041 13.688zM20.971 13.042L21.42 13.042 21.42 12.975 20.971 12.975zM20.75 12.452L21.248 12.452 21.248 12.385 20.75 12.385zM21.773 23.499c-.17-.083-.348-.194-.471-.33-.094-.106-.156-.225-.156-.357v-2.524l.21-.249.01-.01v-1.142h-.068v1.118l-.211.25-.008.008v2.549c0 .15.069.284.174.4.13.145.315.26.49.347l.03-.06zM20.752 23.489L20.819 23.489 20.819 20.031 20.752 20.031z" mask="url(#mdr59rz0hb)"/>
                        <path fill="#000" d="M18.407 18.865c.2.03.546.122.835.269.169.085.32.19.412.314.038-.22.18-.774.649-1.037l.016-.009.017.01c.001 0 .522.29.668 1.035.139-.135.585-.516 1.234-.578l.005.065c-.761.074-1.234.603-1.236.605l-.046.05-.012-.068c-.109-.682-.54-.986-.63-1.042-.545.32-.613 1.064-.613 1.066l-.011.115-.052-.103c-.071-.144-.237-.267-.431-.364-.282-.143-.619-.233-.814-.262l.01-.066z" mask="url(#mdr59rz0hb)"/>
                        <path fill="#000" d="M19.081 18.898v-.795l.048.021s.224.1.363.32c.052-.298.25-1.192.812-1.596l.021-.015.02.017c.002.001.666.553.797 1.596.07-.101.204-.265.371-.306l.042-.01v.762h-.066v-.674c-.198.078-.34.343-.34.343l-.052.097-.01-.109c-.09-.971-.652-1.529-.765-1.631-.637.48-.78 1.629-.78 1.632l-.015.116-.048-.106c-.086-.19-.25-.304-.33-.35v.688h-.068z" mask="url(#mdr59rz0hb)"/>
                        <path fill="#000" d="M19.95 17.317h-.89c-.039 0-.072-.005-.098-.025-.027-.02-.043-.054-.043-.107v-.56c0-.013.006-.025.016-.035.015-.014.045-.023.084-.022.034 0 .076.007.123.021.109.034.245.113.355.267.073-.206.33-.84.799-1.107l.015-.008.016.007c.002.001.572.274.819 1.11.134-.128.559-.513.56-.255.003.214 0 .554 0 .59.003.016.011.123-.119.123h-.914v-.066h.914c.062 0 .054-.049.053-.049v-.005c0-.001.003-.367 0-.593 0-.146-.486.341-.487.342l-.04.041-.016-.056c-.208-.767-.69-1.063-.783-1.114-.53.315-.775 1.122-.775 1.125l-.022.071-.039-.064c-.104-.176-.246-.261-.355-.296-.041-.012-.077-.017-.104-.018-.015 0-.027.001-.033.003v.548c0 .03.006.046.016.054.012.01.033.012.057.012h.89v.066z" mask="url(#mdr59rz0hb)"/>
                        <path fill="#000" d="M21.253 18.32c-.005-.138.031-.403.09-.635.046-.19.11-.359.179-.424l.045.049c-.059.055-.116.212-.16.39-.057.228-.093.485-.088.618l-.066.002zM19.32 18.318c.03-.114.005-.368-.05-.596-.046-.194-.113-.366-.185-.409l.034-.057c.089.052.166.241.216.451.056.237.081.505.049.627l-.065-.016zM20.062 16.007h-.758c-.04 0-.067-.013-.086-.032-.026-.025-.032-.06-.032-.085v-.487c0-.014.006-.027.017-.037.015-.015.041-.023.074-.023.029 0 .065.005.103.018.084.029.188.094.276.216.074-.155.302-.594.64-.811l.017-.012.019.012c.001.001.482.322.645.812.12-.104.468-.394.468-.195v.519c0 .027-.004.05-.02.067-.014.02-.039.03-.078.03h-.776v-.066h.776c.017 0 .025-.002.028-.005.002-.004.003-.014.003-.026v-.519c0-.087-.393.278-.395.28l-.04.036-.014-.052c-.123-.439-.526-.748-.616-.813-.385.26-.62.822-.62.824l-.025.06-.034-.056c-.085-.139-.192-.21-.276-.237-.03-.012-.059-.016-.08-.016-.012 0-.02 0-.025.003v.478c0 .012.002.028.012.038.008.007.019.012.039.012h.758v.067z" mask="url(#mdr59rz0hb)"/>
                        <path fill="#000" d="M20.956 16.534c.016-.116.05-.255.109-.374.046-.094.107-.176.188-.226l.034.056c-.068.043-.121.115-.162.2-.055.111-.087.244-.103.353l-.066-.01zM19.697 16.544c-.017-.116-.05-.254-.11-.373-.045-.094-.106-.177-.187-.227l-.034.057c.067.042.121.115.162.2.055.11.087.243.104.353l.065-.01zM20.155 14.952h-.737c-.04 0-.07-.014-.09-.035-.025-.025-.037-.06-.037-.092v-.475c0-.015.007-.027.02-.038.014-.012.04-.021.072-.022.029-.002.064.002.102.015.073.023.158.076.23.18.06-.153.241-.544.578-.78l.02-.015.019.014c.002.001.48.353.593.807.118-.118.431-.412.431-.186v.512c0 .042-.015.068-.037.085-.022.016-.047.02-.07.02h-.796v-.066h.796c.011 0 .023-.002.03-.008.006-.005.01-.014.01-.031v-.512c0-.107-.358.275-.358.277l-.046.048-.012-.065c-.07-.405-.468-.74-.56-.813-.394.29-.558.797-.559.799l-.024.072-.036-.067c-.069-.125-.157-.184-.23-.208-.03-.01-.057-.013-.078-.012-.012 0-.022.003-.028.004v.465c0 .016.005.033.017.045.01.01.023.015.043.015h.737v.067z" mask="url(#mdr59rz0hb)"/>
                        <path fill="#000" d="M19.626 14.905L19.886 15.246 19.833 15.286 19.574 14.945zM20.752 15.232L21.021 14.89 21.074 14.931 20.804 15.273zM19.892 14.182c-.026-.021-.063-.047-.102-.075-.101-.072-.216-.153-.216-.217V13.315l.04.009s.237.05.37.204c.03-.138.116-.427.308-.587l.022-.018.021.02c.001 0 .258.223.346.602.068-.08.204-.212.382-.213h.034v.529c0 .1-.346.361-.347.362l-.04-.054s.32-.241.32-.308v-.46c-.201.023-.338.242-.338.242l-.048.074-.014-.086c-.054-.334-.252-.554-.318-.619-.22.205-.278.602-.278.604l-.016.098-.047-.087c-.074-.138-.251-.204-.331-.227v.49c0 .03.1.1.188.162.04.029.079.056.107.079l-.043.051z" mask="url(#mdr59rz0hb)"/>
                        <path fill="#000" d="M20.061 13.328c-.001-.001-.407-.244-.407-.315V12.624l.036.005s.232.022.35.126c.026-.093.094-.262.256-.37l.013-.008.016.005c0 .001.242.078.333.393.054-.049.157-.118.33-.138l.036-.004v.371c0 .044-.44.35-.442.35l-.038-.053c.001-.002.414-.288.414-.297v-.296c-.214.036-.289.154-.289.154l-.045.068-.015-.079c-.058-.281-.238-.377-.29-.4-.196.139-.228.38-.228.38l-.013.1-.05-.087c-.052-.095-.23-.132-.308-.145v.314c0 .032.374.257.375.258l-.034.057z" mask="url(#mdr59rz0hb)"/>
                        <path fill="#000" d="M20.078 12.697c-.018-.01-.045-.022-.072-.034h-.001c-.072-.033-.15-.067-.15-.115v-.411l.04.01s.141.033.224.1c.03-.059.09-.158.18-.212l.015-.01.016.008s.137.066.217.236c.046-.042.132-.11.214-.125l.04-.009v.43c0 .059-.195.146-.195.146l-.027-.061s.155-.07.155-.084v-.344c-.088.037-.176.128-.176.128l-.038.039-.017-.05c-.051-.143-.148-.214-.186-.237-.103.073-.157.214-.157.214l-.023.058-.035-.05c-.035-.05-.127-.084-.18-.1v.324c0 .005.057.03.11.053.03.013.058.026.079.038l-.033.058zM19.498 11.873L21.129 11.873 21.129 11.807 19.498 11.807zM19.498 11.513L21.129 11.513 21.129 11.446 19.498 11.446zM19.837 11.212L20.789 11.212 20.789 11.146 19.837 11.146zM20.06 10.925L20.567 10.925 20.567 10.858 20.06 10.858zM19.316 20.055L21.311 20.055 21.311 19.988 19.316 19.988z" mask="url(#mdr59rz0hb)"/>
                        <path fill="#FFF" d="M5.999 28.894L34.664 28.894 34.664 27.544 5.999 27.544z" mask="url(#mdr59rz0hb)"/>
                        <path stroke="#000" stroke-width=".5" d="M5.999 28.894L34.664 28.894 34.664 27.544 5.999 27.544z" mask="url(#mdr59rz0hb)"/>
                        <path fill="#FFF" d="M6.705 27.544L33.958 27.544 33.958 26.177 6.705 26.177z" mask="url(#mdr59rz0hb)"/>
                        <path stroke="#000" stroke-width=".5" d="M6.705 27.544L33.958 27.544 33.958 26.177 6.705 26.177z" mask="url(#mdr59rz0hb)"/>
                        <path fill="#FFF" d="M7.424 26.177L33.239 26.177 33.239 24.967 7.424 24.967z" mask="url(#mdr59rz0hb)"/>
                        <path stroke="#000" stroke-width=".5" d="M7.424 26.177L33.239 26.177 33.239 24.967 7.424 24.967z" mask="url(#mdr59rz0hb)"/>
                        <path fill="#FFF" d="M8.126 24.967L32.537 24.967 32.537 24.078 8.126 24.078z" mask="url(#mdr59rz0hb)"/>
                        <path stroke="#000" stroke-width=".5" d="M8.126 24.967L32.537 24.967 32.537 24.078 8.126 24.078z" mask="url(#mdr59rz0hb)"/>
                        <path fill="#FFF" d="M8.557 24.078L32.106 24.078 32.106 23.372 8.557 23.372z" mask="url(#mdr59rz0hb)"/>
                        <path stroke="#000" stroke-width=".5" d="M8.557 24.078L32.106 24.078 32.106 23.372 8.557 23.372z" mask="url(#mdr59rz0hb)"/>
                        <path fill="#FFF" d="M19.487 28.894L21.176 28.894 21.176 23.371 19.487 23.371z" mask="url(#mdr59rz0hb)"/>
                        <path stroke="#000" stroke-width=".5" d="M19.487 28.894L21.176 28.894 21.176 23.371 19.487 23.371z" mask="url(#mdr59rz0hb)"/>
                        <path fill="#FFF" d="M11.157 28.894L12.847 28.894 12.847 23.371 11.157 23.371z" mask="url(#mdr59rz0hb)"/>
                        <path stroke="#000" stroke-width=".5" d="M11.157 28.894L12.847 28.894 12.847 23.371 11.157 23.371z" mask="url(#mdr59rz0hb)"/>
                        <path fill="#FFF" d="M27.826 28.894L29.516 28.894 29.516 23.371 27.826 23.371z" mask="url(#mdr59rz0hb)"/>
                        <path stroke="#000" stroke-width=".5" d="M27.826 28.894L29.516 28.894 29.516 23.371 27.826 23.371z" mask="url(#mdr59rz0hb)"/>
                        <path fill="#FFF" d="M11.506 24.061L12.497 24.061 12.497 23.371 11.506 23.371z" mask="url(#mdr59rz0hb)"/>
                        <path stroke="#000" stroke-width=".5" d="M11.506 24.061L12.497 24.061 12.497 23.371 11.506 23.371z" mask="url(#mdr59rz0hb)"/>
                        <path fill="#FFF" d="M11.506 24.752L12.497 24.752 12.497 24.061 11.506 24.061z" mask="url(#mdr59rz0hb)"/>
                        <path stroke="#000" stroke-width=".5" d="M11.506 24.752L12.497 24.752 12.497 24.061 11.506 24.061z" mask="url(#mdr59rz0hb)"/>
                        <path fill="#FFF" d="M11.506 25.442L12.497 25.442 12.497 24.752 11.506 24.752z" mask="url(#mdr59rz0hb)"/>
                        <path stroke="#000" stroke-width=".5" d="M11.506 25.442L12.497 25.442 12.497 24.752 11.506 24.752z" mask="url(#mdr59rz0hb)"/>
                        <path fill="#FFF" d="M11.506 26.132L12.497 26.132 12.497 25.442 11.506 25.442z" mask="url(#mdr59rz0hb)"/>
                        <path stroke="#000" stroke-width=".5" d="M11.506 26.132L12.497 26.132 12.497 25.442 11.506 25.442z" mask="url(#mdr59rz0hb)"/>
                        <path fill="#FFF" d="M11.506 26.823L12.497 26.823 12.497 26.132 11.506 26.132z" mask="url(#mdr59rz0hb)"/>
                        <path stroke="#000" stroke-width=".5" d="M11.506 26.823L12.497 26.823 12.497 26.132 11.506 26.132z" mask="url(#mdr59rz0hb)"/>
                        <path fill="#FFF" d="M11.506 27.513L12.497 27.513 12.497 26.823 11.506 26.823z" mask="url(#mdr59rz0hb)"/>
                        <path stroke="#000" stroke-width=".5" d="M11.506 27.513L12.497 27.513 12.497 26.823 11.506 26.823z" mask="url(#mdr59rz0hb)"/>
                        <path fill="#FFF" d="M11.506 28.204L12.497 28.204 12.497 27.514 11.506 27.514z" mask="url(#mdr59rz0hb)"/>
                        <path stroke="#000" stroke-width=".5" d="M11.506 28.204L12.497 28.204 12.497 27.514 11.506 27.514z" mask="url(#mdr59rz0hb)"/>
                        <path fill="#FFF" d="M11.506 28.894L12.497 28.894 12.497 28.204 11.506 28.204z" mask="url(#mdr59rz0hb)"/>
                        <path stroke="#000" stroke-width=".5" d="M11.506 28.894L12.497 28.894 12.497 28.204 11.506 28.204z" mask="url(#mdr59rz0hb)"/>
                        <path fill="#FFF" d="M19.836 24.061L20.827 24.061 20.827 23.371 19.836 23.371z" mask="url(#mdr59rz0hb)"/>
                        <path stroke="#000" stroke-width=".5" d="M19.836 24.061L20.827 24.061 20.827 23.371 19.836 23.371z" mask="url(#mdr59rz0hb)"/>
                        <path fill="#FFF" d="M19.836 24.752L20.827 24.752 20.827 24.061 19.836 24.061z" mask="url(#mdr59rz0hb)"/>
                        <path stroke="#000" stroke-width=".5" d="M19.836 24.752L20.827 24.752 20.827 24.061 19.836 24.061z" mask="url(#mdr59rz0hb)"/>
                        <path fill="#FFF" d="M19.836 25.442L20.827 25.442 20.827 24.752 19.836 24.752z" mask="url(#mdr59rz0hb)"/>
                        <path stroke="#000" stroke-width=".5" d="M19.836 25.442L20.827 25.442 20.827 24.752 19.836 24.752z" mask="url(#mdr59rz0hb)"/>
                        <path fill="#FFF" d="M19.836 26.132L20.827 26.132 20.827 25.442 19.836 25.442z" mask="url(#mdr59rz0hb)"/>
                        <path stroke="#000" stroke-width=".5" d="M19.836 26.132L20.827 26.132 20.827 25.442 19.836 25.442z" mask="url(#mdr59rz0hb)"/>
                        <path fill="#FFF" d="M19.836 26.823L20.827 26.823 20.827 26.132 19.836 26.132z" mask="url(#mdr59rz0hb)"/>
                        <path stroke="#000" stroke-width=".5" d="M19.836 26.823L20.827 26.823 20.827 26.132 19.836 26.132z" mask="url(#mdr59rz0hb)"/>
                        <path fill="#FFF" d="M19.836 27.513L20.827 27.513 20.827 26.823 19.836 26.823z" mask="url(#mdr59rz0hb)"/>
                        <path stroke="#000" stroke-width=".5" d="M19.836 27.513L20.827 27.513 20.827 26.823 19.836 26.823z" mask="url(#mdr59rz0hb)"/>
                        <path fill="#FFF" d="M19.836 28.204L20.827 28.204 20.827 27.514 19.836 27.514z" mask="url(#mdr59rz0hb)"/>
                        <path stroke="#000" stroke-width=".5" d="M19.836 28.204L20.827 28.204 20.827 27.514 19.836 27.514z" mask="url(#mdr59rz0hb)"/>
                        <path fill="#FFF" d="M19.836 28.894L20.827 28.894 20.827 28.204 19.836 28.204z" mask="url(#mdr59rz0hb)"/>
                        <path stroke="#000" stroke-width=".5" d="M19.836 28.894L20.827 28.894 20.827 28.204 19.836 28.204z" mask="url(#mdr59rz0hb)"/>
                        <path fill="#FFF" d="M28.175 24.061L29.166 24.061 29.166 23.371 28.175 23.371z" mask="url(#mdr59rz0hb)"/>
                        <path stroke="#000" stroke-width=".5" d="M28.175 24.061L29.166 24.061 29.166 23.371 28.175 23.371z" mask="url(#mdr59rz0hb)"/>
                        <path fill="#FFF" d="M28.175 24.752L29.166 24.752 29.166 24.061 28.175 24.061z" mask="url(#mdr59rz0hb)"/>
                        <path stroke="#000" stroke-width=".5" d="M28.175 24.752L29.166 24.752 29.166 24.061 28.175 24.061z" mask="url(#mdr59rz0hb)"/>
                        <path fill="#FFF" d="M28.175 25.442L29.166 25.442 29.166 24.752 28.175 24.752z" mask="url(#mdr59rz0hb)"/>
                        <path stroke="#000" stroke-width=".5" d="M28.175 25.442L29.166 25.442 29.166 24.752 28.175 24.752z" mask="url(#mdr59rz0hb)"/>
                        <path fill="#FFF" d="M28.175 26.132L29.166 26.132 29.166 25.442 28.175 25.442z" mask="url(#mdr59rz0hb)"/>
                        <path stroke="#000" stroke-width=".5" d="M28.175 26.132L29.166 26.132 29.166 25.442 28.175 25.442z" mask="url(#mdr59rz0hb)"/>
                        <path fill="#FFF" d="M28.175 26.823L29.166 26.823 29.166 26.132 28.175 26.132z" mask="url(#mdr59rz0hb)"/>
                        <path stroke="#000" stroke-width=".5" d="M28.175 26.823L29.166 26.823 29.166 26.132 28.175 26.132z" mask="url(#mdr59rz0hb)"/>
                        <path fill="#FFF" d="M28.175 27.513L29.166 27.513 29.166 26.823 28.175 26.823z" mask="url(#mdr59rz0hb)"/>
                        <path stroke="#000" stroke-width=".5" d="M28.175 27.513L29.166 27.513 29.166 26.823 28.175 26.823z" mask="url(#mdr59rz0hb)"/>
                        <path fill="#FFF" d="M28.175 28.204L29.166 28.204 29.166 27.514 28.175 27.514z" mask="url(#mdr59rz0hb)"/>
                        <path stroke="#000" stroke-width=".5" d="M28.175 28.204L29.166 28.204 29.166 27.514 28.175 27.514z" mask="url(#mdr59rz0hb)"/>
                        <path fill="#FFF" d="M28.175 28.894L29.166 28.894 29.166 28.204 28.175 28.204z" mask="url(#mdr59rz0hb)"/>
                        <path stroke="#000" stroke-width=".5" d="M28.175 28.894L29.166 28.894 29.166 28.204 28.175 28.204z" mask="url(#mdr59rz0hb)"/>
                    </g>
                </g>
            </g>
        </g>
    </g>
</svg>
